<svg xmlns="http://www.w3.org/2000/svg" viewBox="0 0 37 22.74"><defs><style>.cls-1{fill:#525564;}</style></defs><title>arrow-down</title><g id="Layer_2" data-name="Layer 2"><g id="Layer_1-2" data-name="Layer 1"><path class="cls-1" d="M0,3.7c.09-.13.23-.24.27-.39A4.24,4.24,0,0,1,3.51.18,4.48,4.48,0,0,1,8,1.54Q12.9,6.24,17.73,11c.81.79.8.78,1.61,0L29.1,1.43A4.53,4.53,0,0,1,32.37,0a4.41,4.41,0,0,1,4.07,2.5c.2.39.37.8.56,1.2V5.59c-.14.3-.3.59-.42.9A7.84,7.84,0,0,1,34.5,9c-4,3.9-8,7.81-12.08,11.69a8.5,8.5,0,0,1-2,1.52,4.09,4.09,0,0,1-4.81-.63c-1.34-1.16-2.57-2.44-3.85-3.67L2.5,9A7.4,7.4,0,0,1,.42,6.49C.3,6.18.14,5.89,0,5.59Z"/></g></g></svg>