<svg xmlns="http://www.w3.org/2000/svg" viewBox="0 0 305.22 244.61"><defs><style>.cls-1{fill:#525565;}.cls-1,.cls-2,.cls-3,.cls-4{stroke:#525565;}.cls-1,.cls-2,.cls-3,.cls-4,.cls-7{stroke-miterlimit:10;}.cls-1,.cls-2,.cls-3{stroke-width:5px;}.cls-2,.cls-4{fill:#fff;}.cls-3,.cls-7{fill:none;}.cls-4,.cls-7{stroke-width:2px;}.cls-5{fill:#96c0ce;}.cls-6{fill:#ce6567;}.cls-7{stroke:#93909e;}</style></defs><title>desktop</title><g id="Layer_2" data-name="Layer 2"><g id="Layer_1-2" data-name="Layer 1"><rect class="cls-1" x="141.77" y="142.31" width="21.67" height="93.64" rx="9" ry="9" transform="translate(305.22 378.26) rotate(-180)"/><rect class="cls-1" x="144.18" y="169.96" width="16.86" height="127.45" rx="4" ry="4" transform="translate(386.29 81.07) rotate(90)"/><rect class="cls-2" x="2.5" y="2.5" width="300.22" height="201.08" rx="15" ry="15"/><line class="cls-3" x1="2.1" y1="162.64" x2="303.12" y2="162.64"/><rect class="cls-4" x="47.35" y="16.95" width="210.53" height="132.45" rx="15" ry="15"/><path class="cls-5" d="M119,36.37l-2.84-3.63h1.66l2,2.65,2-2.65h1.65l-2.86,3.65,3.24,4.15h-1.66l-2.46-3.18-2.46,3.18h-1.66Z"/><path class="cls-5" d="M129.65,39.81l-3.59-7.07h1.54l2.76,5.58,2.54-5.58h1.51l-5.74,12.12h-1.5Z"/><path class="cls-5" d="M139.29,39.3h5.42v1.24h-8.12L142.23,34h-4.55V32.74h7.25Z"/><path class="cls-5" d="M149.11,38.85a.94.94,0,1,1-.94.94A1,1,0,0,1,149.11,38.85Z"/><path class="cls-5" d="M160.52,34.92a3.17,3.17,0,0,0-2.45-1.17,2.72,2.72,0,0,0-2.76,2.92,2.71,2.71,0,0,0,2.74,2.89,3.3,3.3,0,0,0,2.52-1.22V40a4.16,4.16,0,0,1-2.48.81,4.11,4.11,0,1,1,0-8.22,4.19,4.19,0,0,1,2.43.75Z"/><path class="cls-5" d="M164,36.67a4.14,4.14,0,1,1,4.14,4.1A4,4,0,0,1,164,36.67Zm1.39,0a2.75,2.75,0,1,0,5.49,0,2.75,2.75,0,1,0-5.49,0Z"/><path class="cls-5" d="M176.25,32.74h1.35v.83a2.28,2.28,0,0,1,1.94-1,2.33,2.33,0,0,1,2.12,1.26A2.63,2.63,0,0,1,184,32.55c2.32,0,2.54,1.94,2.54,3.05v4.94H185.2V35.8c0-.88-.11-2-1.39-2-1.56,0-1.73,1.51-1.73,2.45v4.34h-1.36V35.92c0-.55,0-2.17-1.41-2.17s-1.71,1.6-1.71,2.54v4.25h-1.35Z"/><path class="cls-6" d="M96.24,69.54h-7l-1.8,4H84.7l8.19-17.4,7.79,17.4H98Zm-1-2.37-2.44-5.58-2.54,5.58Z"/><path class="cls-6" d="M107.19,79.15h-2.41v-16h2.41v1.14a3.92,3.92,0,0,1,3.09-1.41,5.08,5.08,0,0,1,5,5.4,5.26,5.26,0,0,1-5,5.58,4.14,4.14,0,0,1-3.11-1.53Zm-.14-10.77A3,3,0,0,0,110,71.66a3,3,0,0,0,2.89-3.31c0-1.85-1.14-3.33-2.89-3.33C108.45,65,107.05,66.11,107.05,68.38Z"/><path class="cls-6" d="M122.73,79.15h-2.41v-16h2.41v1.14a3.92,3.92,0,0,1,3.08-1.41,5.08,5.08,0,0,1,5.06,5.4,5.26,5.26,0,0,1-5,5.58,4.14,4.14,0,0,1-3.11-1.53Zm-.15-10.77a3,3,0,0,0,2.94,3.28,3,3,0,0,0,2.88-3.31c0-1.85-1.13-3.33-2.88-3.33C124,65,122.58,66.11,122.58,68.38Z"/><path class="cls-6" d="M138.27,55.53v18h-2.42v-18Z"/><path class="cls-6" d="M146.85,71.88l-4.44-8.76h2.91l3,6.07,3-6.07H154l-8.26,16H143Z"/><path class="cls-6" d="M166.8,73.5V56l11.94,12.5V57.06h2.51V74.52L169.32,62V73.5Z"/><path class="cls-6" d="M197.78,68.33a5.55,5.55,0,1,1-5.55-5.48A5.4,5.4,0,0,1,197.78,68.33Zm-2.47,0a3.09,3.09,0,1,0-3.08,3.31A3,3,0,0,0,195.31,68.35Z"/><path class="cls-6" d="M204.09,63.12l2.69,5.95,2.91-6.83,2.91,6.83,2.69-5.95H218l-5.4,11.13-2.91-6.64-2.91,6.64-5.4-11.13Z"/><line class="cls-7" x1="91.24" y1="124.54" x2="213.99" y2="124.54"/><line class="cls-7" x1="91.24" y1="109.53" x2="213.99" y2="109.53"/><line class="cls-7" x1="91.24" y1="94.53" x2="213.99" y2="94.53"/></g></g></svg>