<?xml version="1.0" encoding="UTF-8"?>
<svg width="57px" height="57px" viewBox="0 0 57 57" version="1.1" xmlns="http://www.w3.org/2000/svg" xmlns:xlink="http://www.w3.org/1999/xlink">
    <!-- Generator: Sketch 48.2 (47327) - http://www.bohemiancoding.com/sketch -->
    <title>icon-3-fill</title>
    <desc>Created with Sketch.</desc>
    <defs></defs>
    <g id="Page-1" stroke="none" stroke-width="1" fill="none" fill-rule="evenodd" opacity="0.15">
        <g id="icon-3-fill">
            <g id="Group">
                <circle id="Oval" fill="#525565" fill-rule="nonzero" cx="28.1" cy="28.1" r="28.1"></circle>
                <polygon id="Shape" points="10.6 12.2 45.6 12.2 45.6 45.7 10.6 45.7"></polygon>
                <path d="M24.6814062,25.229375 L27.8845312,25.229375 C29.2387047,25.229375 30.2412988,24.8745608 30.8923437,24.1649219 C31.5433887,23.4552829 31.8689062,22.4689646 31.8689062,21.2059375 C31.8689062,20.0600984 31.5433887,19.1421389 30.8923437,18.4520312 C30.2412988,17.7619236 29.2972979,17.416875 28.0603125,17.416875 C26.9925988,17.416875 26.0941703,17.7293719 25.365,18.354375 C24.6358297,18.9793781 24.27125,19.7996824 24.27125,20.8153125 L18.7439062,20.8153125 L18.7048437,20.698125 C18.6267184,18.4715514 19.4795744,16.6356322 21.2634375,15.1903125 C23.0473006,13.7449928 25.2608201,13.0223437 27.9040625,13.0223437 C30.8467855,13.0223437 33.1937673,13.7254617 34.9450781,15.1317187 C36.696389,16.5379758 37.5720312,18.5431641 37.5720312,21.1473437 C37.5720312,22.3843291 37.1814102,23.5594476 36.4001562,24.6727344 C35.6189023,25.7860212 34.5446943,26.6551531 33.1775,27.2801562 C34.7530287,27.8400549 35.9541886,28.6994213 36.7810156,29.8582812 C37.6078427,31.0171412 38.02125,32.364784 38.02125,33.90125 C38.02125,36.5054297 37.0739938,38.5529353 35.1794531,40.0438281 C33.2849124,41.534721 30.8598064,42.2801562 27.9040625,42.2801562 C25.2608201,42.2801562 22.9919626,41.5802935 21.0974219,40.1805469 C19.2028812,38.7808003 18.2881768,36.8049086 18.3532812,34.2528125 L18.3923437,34.135625 L23.9196875,34.135625 C23.9196875,35.2293805 24.3103086,36.1310642 25.0915625,36.8407031 C25.8728164,37.5503421 26.8623898,37.9051562 28.0603125,37.9051562 C29.3754232,37.9051562 30.4138243,37.5405766 31.1755469,36.8114062 C31.9372694,36.0822359 32.318125,35.0926625 32.318125,33.8426562 C32.318125,32.3452529 31.9437798,31.2482587 31.1950781,30.5516406 C30.4463765,29.8550226 29.3428719,29.5067187 27.8845312,29.5067187 L24.6814062,29.5067187 L24.6814062,25.229375 Z" id="3" fill="#FFFFFF"></path>
            </g>
        </g>
    </g>
</svg>