<svg xmlns="http://www.w3.org/2000/svg" viewBox="0 0 253.6 187.53"><defs><style>.cls-1{fill:#525564;}.cls-2{fill:#928f9d;}.cls-3{fill:#c66;}</style></defs><title>logo-stacked</title><g id="Layer_2" data-name="Layer 2"><g id="OL_Text" data-name="OL Text"><path class="cls-1" d="M106.37,84.14H66.89V45.76A19.92,19.92,0,0,1,79,27.53a28.06,28.06,0,0,1,1.23-7.77,27,27,0,0,0-20.38,26V91.14h46.93a23.72,23.72,0,0,1-.36-3.41Z"/><path class="cls-2" d="M179.25,50.42A28.08,28.08,0,0,1,176.87,57c5.94,2,9.84,7.74,9.84,14.85v30.91H129a15.52,15.52,0,0,1-15.59-15.21l-.08-3.41h-7l.09,3.59a23.72,23.72,0,0,0,.36,3.41A22.44,22.44,0,0,0,129,109.76h64.67V71.85C193.71,61.68,188,53.39,179.25,50.42Z"/><path class="cls-3" d="M180,44.25V28a28.08,28.08,0,0,0-28-28H107.07A28,28,0,0,0,79,27.53c0,.17,0,.34,0,.51V72.29H151.9a28.1,28.1,0,0,0,28-28Zm-28,21H86V28a21.17,21.17,0,0,1,.43-4.24c0-.12.07-.24.1-.37A21.07,21.07,0,0,1,107.07,7H151.9a21.07,21.07,0,0,1,21,21V44.25A21.07,21.07,0,0,1,151.9,65.29Z"/><path class="cls-1" d="M29,135.38v6.15H6.84v11H26.68v6.09H6.84v11.2H29.7V176H0v-40.6Z"/><path class="cls-1" d="M89.2,156.79V176H82.53V158.64c0-4.7-2.79-7.54-7.31-7.54-5.28.18-8.47,4.24-8.47,9.63V176H60.08V158.64c0-4.7-2.72-7.54-7.25-7.54-5.33.18-8.58,4.24-8.58,9.63V176H37.64V145.13h6.61v6c2.14-4.35,6.09-6.2,11.19-6.2,5.51,0,9.28,2.72,10.73,7.42,2-5.16,6.09-7.42,11.72-7.42C85,144.9,89.2,149.42,89.2,156.79Z"/><path class="cls-1" d="M105.31,136.31a3.89,3.89,0,1,1-3.88-4A3.83,3.83,0,0,1,105.31,136.31Zm-.58,8.82V176H98.12V145.13Z"/><path class="cls-1" d="M123.29,150.17c-2.61,0-4.52.87-4.52,3.08,0,5.68,16.41,2.61,16.35,13.8,0,6.32-5.62,9.17-11.83,9.17-4.52,0-9.34-1.51-12.41-4.3l2.38-4.75A16.78,16.78,0,0,0,123.58,171c2.84,0,5-1,5-3.31,0-6.32-16.24-2.78-16.19-13.92,0-6.26,5.46-8.93,11.37-8.93A19.5,19.5,0,0,1,134.6,148l-2.44,4.93A18.12,18.12,0,0,0,123.29,150.17Z"/><path class="cls-1" d="M150.55,150.17c-2.61,0-4.53.87-4.53,3.08,0,5.68,16.42,2.61,16.36,13.8,0,6.32-5.63,9.17-11.83,9.17-4.53,0-9.34-1.51-12.42-4.3l2.38-4.75A16.81,16.81,0,0,0,150.84,171c2.84,0,5-1,5-3.31,0-6.32-16.24-2.78-16.18-13.92,0-6.26,5.45-8.93,11.37-8.93A19.55,19.55,0,0,1,161.86,148l-2.44,4.93A18.18,18.18,0,0,0,150.55,150.17Z"/><path class="cls-1" d="M187.6,176v-3.77c-2.2,2.73-5.74,4.06-10.21,4.06-6.67,0-10.84-4.11-10.84-9.57,0-5.62,4.23-9.22,11.66-9.28h9.33v-.92c0-3.89-2.49-6.21-7.36-6.21a16.27,16.27,0,0,0-9.11,3.13l-2.72-4.64c4.29-2.55,7.42-3.88,13.28-3.88,7.94,0,12.41,4.06,12.47,10.84l.06,20.24Zm-.06-10.84V162.3h-8.35c-4.35,0-6.38,1.16-6.38,4.11,0,2.79,2.26,4.59,6,4.59C183.54,171,187.2,168.5,187.54,165.14Z"/><path class="cls-1" d="M220.43,144.9v6.38c-6.21-.35-10.15,3.3-10.68,8.58V176h-6.67V145.13h6.67v6.15C211.84,147.1,215.55,144.9,220.43,144.9Z"/><path class="cls-1" d="M229.53,187.53a10.49,10.49,0,0,1-7.14-2.61l2.85-5.17a6.49,6.49,0,0,0,4,1.51c2,0,3.65-1.1,4.7-3.42l1-2.32-12.76-30.39h6.9l9.22,23.37,8.59-23.37h6.67l-14,35.09C237.65,185.09,234.17,187.53,229.53,187.53Z"/></g></g></svg>