<svg xmlns="http://www.w3.org/2000/svg" viewBox="0 0 165.25 291.71"><defs><style>.cls-1,.cls-5,.cls-6{fill:#fff;}.cls-1,.cls-2,.cls-3,.cls-4,.cls-5{stroke:#525565;}.cls-1,.cls-2,.cls-3,.cls-4,.cls-5,.cls-6,.cls-7{stroke-miterlimit:10;}.cls-1,.cls-2{stroke-width:6px;}.cls-2,.cls-7{fill:none;}.cls-3,.cls-4{fill:#525565;}.cls-3{stroke-width:1.5px;}.cls-4,.cls-7{stroke-width:2px;}.cls-5,.cls-6{stroke-width:5px;}.cls-6,.cls-7{stroke:#ce6567;}.cls-8{fill:#96c0ce;}</style></defs><title>mobile-phone</title><g id="Layer_2" data-name="Layer 2"><g id="Layer_1-2" data-name="Layer 1"><rect class="cls-1" x="3" y="3" width="159.25" height="285.71" rx="20" ry="20"/><line class="cls-2" x1="162.25" y1="32.86" x2="3" y2="32.86"/><line class="cls-2" x1="162.25" y1="228.41" x2="3" y2="228.41"/><rect class="cls-3" x="68.57" y="14.12" width="28.1" height="5.85" rx="2.23" ry="2.23"/><rect class="cls-4" x="75.01" y="14.12" width="15.22" height="5.85" rx="2.23" ry="2.23"/><circle class="cls-5" cx="82.63" cy="257.72" r="16.98"/><path class="cls-6" d="M42.72,86.43h79.8a15,15,0,0,1,15,15v65.43a15,15,0,0,1-15,15H27.72a0,0,0,0,1,0,0V101.43A15,15,0,0,1,42.72,86.43Z"/><line class="cls-7" x1="40.47" y1="167.23" x2="124.78" y2="167.23"/><line class="cls-7" x1="40.47" y1="136.97" x2="124.78" y2="136.97"/><line class="cls-7" x1="40.47" y1="121.18" x2="124.78" y2="121.18"/><line class="cls-7" x1="40.47" y1="105.4" x2="124.78" y2="105.4"/><path class="cls-8" d="M52,152l-2.58-3.31h1.5l1.84,2.42,1.86-2.42h1.51l-2.61,3.32,3,3.78H55l-2.24-2.89-2.24,2.89H49Z"/><path class="cls-8" d="M61.74,155.17l-3.27-6.44h1.4l2.52,5.08,2.31-5.08h1.36l-5.21,11H59.48Z"/><path class="cls-8" d="M70.51,154.7h4.93v1.13H68.05l5.13-6H69v-1.13h6.6Z"/><path class="cls-8" d="M79.44,154.29a.87.87,0,0,1,.85.86.86.86,0,0,1-1.71,0A.87.87,0,0,1,79.44,154.29Z"/><path class="cls-8" d="M89.82,150.72a2.87,2.87,0,0,0-2.23-1.06,2.64,2.64,0,0,0,0,5.28,3,3,0,0,0,2.29-1.11v1.47a3.76,3.76,0,0,1-2.26.74,3.74,3.74,0,1,1,0-7.48,3.78,3.78,0,0,1,2.21.69Z"/><path class="cls-8" d="M93,152.31A3.77,3.77,0,1,1,96.78,156,3.65,3.65,0,0,1,93,152.31Zm1.27,0a2.5,2.5,0,1,0,2.5-2.65A2.46,2.46,0,0,0,94.28,152.31Z"/><path class="cls-8" d="M104.13,148.73h1.23v.76a2.06,2.06,0,0,1,1.76-.93,2.13,2.13,0,0,1,1.94,1.15,2.36,2.36,0,0,1,2.13-1.15c2.11,0,2.31,1.76,2.31,2.77v4.5h-1.23v-4.31c0-.8-.1-1.86-1.26-1.86-1.42,0-1.58,1.37-1.58,2.22v4H108.2v-4.21c0-.49,0-2-1.28-2s-1.56,1.45-1.56,2.31v3.86h-1.23Z"/><path class="cls-8" d="M48.86,158v-.86h67.53V158Z"/></g></g></svg>