<svg id="Layer_1" xmlns="http://www.w3.org/2000/svg" viewBox="0 0 165.2 291.7"><style>.st7{fill:#96c0ce}</style><g id="Layer_2_1_"><g id="Layer_1-2"><path d="M23 3h119.2c11 0 20 9 20 20v245.7c0 11-9 20-20 20H23c-11 0-20-9-20-20V23C3 12 12 3 23 3z" fill="#fff" stroke="#525565" stroke-width="6" stroke-miterlimit="10"/><path d="M162.2 32.9H3m159.2 195.5H3" fill="none" stroke="#525565" stroke-width="6" stroke-miterlimit="10"/><path d="M70.8 14.1h23.6c1.2 0 2.2 1 2.2 2.2v1.4c0 1.2-1 2.2-2.2 2.2H70.8c-1.2 0-2.2-1-2.2-2.2v-1.4c0-1.2 1-2.2 2.2-2.2z" fill="#525565" stroke="#525565" stroke-width="1.5" stroke-miterlimit="10"/><path d="M77.2 14.1H88c1.2 0 2.2 1 2.2 2.2v1.4c0 1.2-1 2.2-2.2 2.2H77.2C76 20 75 19 75 17.7v-1.4c0-1.2 1-2.2 2.2-2.2z" fill="#525565" stroke="#525565" stroke-width="2" stroke-miterlimit="10"/><circle cx="82.6" cy="257.7" r="17" fill="#fff" stroke="#525565" stroke-width="5" stroke-miterlimit="10"/><path d="M42.7 107h79.8c8.3 0 15 6.7 15 15v65.4c0 8.3-6.7 15-15 15H27.7V122c0-8.3 6.7-15 15-15z" fill="#fff" stroke="#ce6567" stroke-width="5" stroke-miterlimit="10"/><path d="M40.5 187.8h84.3m-84.3-30.3h84.3m-84.3-15.8h84.3M40.5 126h84.3" stroke="#ce6567" stroke-width="2" fill="none" stroke-miterlimit="10"/><path class="st7" d="M52 172.6l-2.6-3.3h1.5l1.8 2.4 1.9-2.4h1.5l-2.6 3.3 3 3.8H55l-2.2-2.9-2.2 2.9H49l3-3.8zm9.7 3.1l-3.3-6.4h1.4l2.5 5.1 2.3-5.1H66l-5.2 11h-1.4l2.3-4.6zm8.8-.4h4.9v1.1H68l5.1-6H69v-1.1h6.6l-5.1 6zm8.9-.5c.5 0 .8.4.8.9-.1.5-.5.8-.9.8s-.7-.4-.8-.8c.1-.5.5-.8.9-.9zm10.4-3.5c-.5-.7-1.4-1.1-2.2-1.1-1.5 0-2.6 1.2-2.6 2.6 0 1.5 1.2 2.6 2.6 2.6.9 0 1.7-.4 2.3-1.1v1.5c-.7.5-1.4.7-2.3.7-2.1 0-3.7-1.7-3.7-3.7 0-2.1 1.7-3.7 3.7-3.7.8 0 1.6.2 2.2.7v1.5zm3.2 1.6c0-2.1 1.6-3.8 3.7-3.8s3.8 1.6 3.8 3.7-1.6 3.8-3.7 3.8h-.1c-2 .1-3.7-1.5-3.8-3.5.1-.1.1-.2.1-.2zm1.3 0c.1 1.4 1.3 2.4 2.6 2.3 1.4-.1 2.4-1.3 2.3-2.6-.1-1.3-1.2-2.3-2.5-2.3-1.4 0-2.5 1.1-2.5 2.4.1 0 .1.1.1.2zm9.8-3.6h1.2v.8c.4-.6 1.1-.9 1.8-.9.8 0 1.6.4 1.9 1.1.4-.7 1.3-1.2 2.1-1.1 2.1 0 2.3 1.8 2.3 2.8v4.5h-1.2v-4.3c0-.8-.1-1.9-1.3-1.9-1.4 0-1.6 1.4-1.6 2.2v4h-1.2v-4.2c0-.5 0-2-1.3-2s-1.6 1.4-1.6 2.3v3.9H104v-7.2z"/><path class="st7" d="M48.9 178.6v-.9h67.5v.9H48.9z"/></g></g><g id="XljwlL.tif"><path d="M66.9 91.7V54.6h32.3v37.1H66.9zm16-18.4c-6.3 0-12.2 4-14.3 9.7-.4 1.1-.3 1.8.6 2.5 7.5 7.2 20.1 7.1 27.5-.1.9-.8 1-1.5.6-2.6-2.4-5.7-8.1-9.5-14.4-9.5zm0-17.9c-3.5 0-6.5 3-6.6 6.5-.1 3.4 2.9 6.5 6.5 6.6 3.5.1 6.7-3.1 6.7-6.6-.1-3.5-3.1-6.5-6.6-6.5z" fill="#fff"/><path d="M82.9 73.3c6.3 0 12.1 3.8 14.3 9.4.4 1.1.3 1.8-.6 2.6-7.5 7.2-20 7.3-27.5.1-.8-.8-1-1.5-.6-2.5 2.2-5.6 8.1-9.6 14.4-9.6zm0-17.9c3.5 0 6.5 3.1 6.5 6.5 0 3.5-3.2 6.7-6.7 6.6-3.5-.1-6.5-3.2-6.5-6.6.2-3.5 3.2-6.5 6.7-6.5z" fill="#ce6567"/></g></svg>