<svg xmlns="http://www.w3.org/2000/svg" viewBox="0 0 90.54 175.84"><defs><style>.cls-1{fill:#525564;stroke:#525564;stroke-width:4px;}.cls-1,.cls-5{stroke-miterlimit:10;}.cls-2{fill:#fff;}.cls-3{fill:#928f9d;}.cls-4{fill:#97c0ce;}.cls-5{fill:none;stroke:#c66;stroke-width:12px;}</style></defs><title>g-imports</title><g id="Layer_2" data-name="Layer 2"><g id="Final_Icons" data-name="Final Icons"><g id="g-imports"><g id="import-data"><path class="cls-1" d="M2,171.22V58.46a2.57,2.57,0,0,1,2.62-2.62H64.94l23.6,23.6v91.78a2.57,2.57,0,0,1-2.63,2.62H4.62A2.57,2.57,0,0,1,2,171.22Z"/><path class="cls-2" d="M5.93,167.44V62.24a2.37,2.37,0,0,1,2.39-2.47H61v21a2.57,2.57,0,0,0,2.62,2.62h21v84.08a2.36,2.36,0,0,1-2.38,2.46H8.32A2.37,2.37,0,0,1,5.93,167.44Z"/><rect class="cls-3" x="11.18" y="93.86" width="68.18" height="68.18"/><rect class="cls-2" x="15.11" y="105.66" width="13.11" height="5.24"/><rect class="cls-2" x="30.85" y="105.66" width="13.11" height="5.24"/><rect class="cls-2" x="46.58" y="105.66" width="13.11" height="5.24"/><rect class="cls-2" x="62.31" y="105.66" width="13.11" height="5.24"/><rect class="cls-2" x="15.11" y="113.53" width="13.11" height="5.24"/><rect class="cls-2" x="30.85" y="113.53" width="13.11" height="5.24"/><rect class="cls-2" x="46.58" y="113.53" width="13.11" height="5.24"/><rect class="cls-2" x="62.31" y="113.53" width="13.11" height="5.24"/><rect class="cls-2" x="15.11" y="121.4" width="13.11" height="5.24"/><rect class="cls-2" x="30.85" y="121.4" width="13.11" height="5.24"/><rect class="cls-2" x="46.58" y="121.4" width="13.11" height="5.24"/><rect class="cls-2" x="62.31" y="121.4" width="13.11" height="5.24"/><rect class="cls-2" x="15.11" y="129.27" width="13.11" height="5.24"/><rect class="cls-2" x="30.85" y="129.27" width="13.11" height="5.24"/><rect class="cls-2" x="46.58" y="129.27" width="13.11" height="5.24"/><rect class="cls-2" x="62.31" y="129.27" width="13.11" height="5.24"/><rect class="cls-2" x="15.11" y="137.13" width="13.11" height="5.24"/><rect class="cls-2" x="30.85" y="137.13" width="13.11" height="5.24"/><rect class="cls-2" x="46.58" y="137.13" width="13.11" height="5.24"/><rect class="cls-2" x="62.31" y="137.13" width="13.11" height="5.24"/><rect class="cls-2" x="15.11" y="145" width="13.11" height="5.24"/><rect class="cls-2" x="30.85" y="145" width="13.11" height="5.24"/><rect class="cls-2" x="46.58" y="145" width="13.11" height="5.24"/><rect class="cls-2" x="62.31" y="145" width="13.11" height="5.24"/><rect class="cls-2" x="15.11" y="152.87" width="13.11" height="5.24"/><rect class="cls-2" x="30.85" y="152.87" width="13.11" height="5.24"/><rect class="cls-2" x="46.58" y="152.87" width="13.11" height="5.24"/><rect class="cls-2" x="62.31" y="152.87" width="13.11" height="5.24"/><rect class="cls-4" x="11.18" y="93.86" width="68.18" height="7.7"/></g><g id="import-arrow"><polyline class="cls-5" points="15.43 38.32 45.27 8.48 75.11 38.32"/><line class="cls-5" x1="45.27" y1="65.84" x2="45.27" y2="16.36"/><line class="cls-5" x1="45.27" y1="69.33" x2="45.27" y2="72.6"/><line class="cls-5" x1="45.27" y1="74.99" x2="45.27" y2="78.27"/><line class="cls-5" x1="45.27" y1="80.66" x2="45.27" y2="83.94"/></g></g></g></g></svg>