<svg xmlns="http://www.w3.org/2000/svg" viewBox="0 0 151.36 141.58"><defs><style>.cls-1{fill:#dcddde;}.cls-2{fill:#fff;}.cls-3{fill:#525564;}.cls-4,.cls-5,.cls-6,.cls-7{fill:none;stroke-miterlimit:10;}.cls-4,.cls-6{stroke:#dcddde;}.cls-4,.cls-5{stroke-width:2px;}.cls-5{stroke:#c66;stroke-linecap:round;}.cls-6,.cls-7{stroke-width:6px;}.cls-7{stroke:#97c0ce;}</style></defs><title>g-schedule</title><g id="Layer_2" data-name="Layer 2"><g id="Final_Icons" data-name="Final Icons"><g id="g-schedule"><g id="schedule-calendar-page"><rect class="cls-1" x="8.11" y="29.71" width="143.25" height="111.87"/><rect class="cls-2" x="3" y="24.61" width="137.25" height="105.87"/><path class="cls-3" d="M137.25,27.61v99.87H6V27.61H137.25m6-6H0V133.48H143.25V21.61Z"/><rect class="cls-2" x="1" y="1" width="141.25" height="17.35"/><path class="cls-3" d="M141.25,2V17.35H2V2H141.25m2-2H0V19.35H143.25V0Z"/><path class="cls-3" d="M55.09,36v9.8H12.88V36H55.09m2-2H10.88v13.8H57.09V34Z"/><path class="cls-3" d="M129.87,36v9.8H62.73V36h67.14m2-2H60.73v13.8h71.14V34Z"/><rect class="cls-3" x="10.88" y="53.05" width="120.99" height="3.92"/></g><g id="schedule-calendar-content"><rect class="cls-4" x="29.8" y="65.87" width="11.95" height="8.96"/><rect class="cls-4" x="47.73" y="65.87" width="11.95" height="8.96"/><rect class="cls-4" x="65.65" y="65.87" width="11.95" height="8.96"/><rect class="cls-4" x="83.58" y="65.87" width="11.95" height="8.96"/><rect class="cls-4" x="101.5" y="65.87" width="11.95" height="8.96"/><rect class="cls-4" x="119.43" y="65.87" width="11.95" height="8.96"/><rect class="cls-4" x="11.87" y="80.81" width="11.95" height="8.96"/><rect class="cls-4" x="29.8" y="80.81" width="11.95" height="8.96"/><rect class="cls-4" x="47.73" y="80.81" width="11.95" height="8.96"/><rect class="cls-4" x="65.65" y="80.81" width="11.95" height="8.96"/><rect class="cls-4" x="83.58" y="80.81" width="11.95" height="8.96"/><rect class="cls-4" x="101.5" y="80.81" width="11.95" height="8.96"/><rect class="cls-4" x="119.43" y="80.81" width="11.95" height="8.96"/><rect class="cls-4" x="11.87" y="95.75" width="11.95" height="8.96"/><rect class="cls-4" x="29.8" y="95.75" width="11.95" height="8.96"/><rect class="cls-4" x="47.73" y="95.75" width="11.95" height="8.96"/><rect class="cls-4" x="65.65" y="95.75" width="11.95" height="8.96"/><rect class="cls-4" x="83.58" y="95.75" width="11.95" height="8.96"/><rect id="calendar-date-select" class="cls-5" x="101.5" y="95.75" width="11.95" height="8.96"/><rect class="cls-4" x="119.43" y="95.75" width="11.95" height="8.96"/><rect class="cls-4" x="11.87" y="110.69" width="11.95" height="8.96"/><rect class="cls-4" x="29.8" y="110.69" width="11.95" height="8.96"/><rect class="cls-4" x="47.73" y="110.69" width="11.95" height="8.96"/><rect class="cls-4" x="65.65" y="110.69" width="11.95" height="8.96"/><rect class="cls-4" x="83.58" y="110.69" width="11.95" height="8.96"/><rect class="cls-4" x="101.5" y="110.69" width="11.95" height="8.96"/></g><g id="schedule-selected-date"><line class="cls-6" x1="23.46" y1="40.85" x2="30.24" y2="40.85"/><line class="cls-7" x1="37.73" y1="40.85" x2="44.52" y2="40.85"/><path class="cls-3" d="M32.25,44.6,35,37.34h.68l-2.8,7.26Z"/></g><g id="schedule-selected-time"><g id="calendar-time-minute"><line class="cls-6" x1="98.4" y1="40.85" x2="105.19" y2="40.85"/><line class="cls-6" x1="107.89" y1="40.85" x2="114.67" y2="40.85"/></g><g id="calendar-time-hour"><line class="cls-6" x1="77.92" y1="40.85" x2="84.71" y2="40.85"/><line class="cls-6" x1="87.41" y1="40.85" x2="94.19" y2="40.85"/></g><path class="cls-3" d="M95.78,39.39a.6.6,0,1,1,1.2,0,.6.6,0,1,1-1.2,0Zm0,3.53a.6.6,0,1,1,1.2,0,.6.6,0,1,1-1.2,0Z"/></g></g></g></g></svg>