<?xml version="1.0" encoding="UTF-8"?><svg xmlns="http://www.w3.org/2000/svg" xmlns:xlink="http://www.w3.org/1999/xlink" viewBox="0 0 250 127"><defs><path id="a" d="M.486 11.634c0 6.061 4.913 10.974 10.973 10.974 6.061 0 10.975-4.913 10.975-10.974S17.52.66 11.459.66C5.399.66.486 5.573.486 11.634"/><path id="c" d="M.486 11.634c0 6.061 4.913 10.974 10.973 10.974 6.061 0 10.975-4.913 10.975-10.974S17.52.66 11.459.66C5.399.66.486 5.573.486 11.634"/><path id="e" d="M.486 11.634c0 6.061 4.913 10.974 10.973 10.974 6.061 0 10.975-4.913 10.975-10.974S17.52.66 11.459.66C5.399.66.486 5.573.486 11.634z"/></defs><g fill="none" fill-rule="evenodd"><circle cx="26.31" cy="10.78" r="2.59" fill="#545454" fill-rule="nonzero"/><circle cx="26.31" cy="10.78" r="1.18" fill="#C66" fill-rule="nonzero"/><circle cx="18.78" cy="10.78" r="2.59" fill="#525564" fill-rule="nonzero"/><circle cx="18.78" cy="10.78" r="1.18" fill="#97C0CE" fill-rule="nonzero"/><path fill="#525564" fill-rule="nonzero" d="M11.24 13.36a2.59 2.59 0 1 1 0-5.18 2.59 2.59 0 0 1 0 5.18zm0-3.77a1.18 1.18 0 1 0 1.18 1.18 1.18 1.18 0 0 0-1.18-1.17v-.01z"/><path fill="#525564" fill-rule="nonzero" d="M250 15.12V0H0V126.27h250V15.12zm-244 6h238v99.14H6V21.12zm238-6H6V6h238v9.12z"/><path fill="#DCDDDE" d="M6 20h238v24H6zM180 59h44v43h-44z"/><g><g fill-rule="nonzero"><path fill="#DCDDDE" d="M26 65h40v-6H26zM26 78h144v-6H26zM26 103h144v-6H26zM109 84v6h61v-6zM26 90h23v-6H26zM51 90h20v-6H51z"/><path fill="#928F9D" d="M73 90h14v-6H73zM89 90h18v-6H89z"/></g><g fill="#CD6666" fill-rule="nonzero"><path d="M51 90h20v-6H51zM73 90h14v-6H73zM89 90h18v-6H89z"/></g><path fill="#FFF" fill-rule="nonzero" stroke="#928F9D" d="M46.224 92.123h-6.889a2.2 2.2 0 0 1-2.199-2.2v-5.512a2.2 2.2 0 0 1 2.199-2.2h6.889a2.2 2.2 0 0 1 2.199 2.2v5.513a2.2 2.2 0 0 1-2.199 2.199z"/><path fill="#525564" fill-rule="nonzero" d="M41.669 88.758h-2.146v-2.086c0-.438.27-.826.66-.991a1.48 1.48 0 0 1 .068-.423 1.466 1.466 0 0 0-1.108 1.414v2.467h2.55a1.26 1.26 0 0 1-.02-.186l-.004-.195z"/><path stroke="#525564" stroke-width=".15" d="M41.669 88.758h-2.146v-2.086c0-.438.27-.826.66-.991a1.48 1.48 0 0 1 .068-.423 1.466 1.466 0 0 0-1.108 1.414v2.467h2.55a1.26 1.26 0 0 1-.02-.186l-.004-.195z"/><path fill="#928F9D" fill-rule="nonzero" d="M45.63 86.925a1.45 1.45 0 0 1-.13.357c.324.109.536.42.536.808v1.68h-3.134a.844.844 0 0 1-.848-.826l-.005-.186h-.38l.004.195a1.221 1.221 0 0 0 1.229 1.198h3.515V88.09c0-.553-.311-1.004-.786-1.165"/><path stroke="#928F9D" stroke-width=".15" d="M45.63 86.925a1.45 1.45 0 0 1-.13.357c.324.109.536.42.536.808v1.68h-3.134a.844.844 0 0 1-.848-.826l-.005-.186h-.38l.004.195a1.221 1.221 0 0 0 1.229 1.198h3.515V88.09c0-.553-.311-1.004-.786-1.165z"/><path fill="#CD6666" fill-rule="nonzero" d="M44.144 87.733h-3.581v-2.025c0-.079.008-.156.023-.23l.005-.02a1.146 1.146 0 0 1 1.115-.894h2.438c.631 0 1.144.514 1.144 1.144v.881c0 .631-.513 1.144-1.144 1.144m1.524-1.144v-.88c0-.84-.684-1.525-1.524-1.525h-2.438a1.527 1.527 0 0 0-1.523 1.496l-.001.028v2.406h3.962a1.526 1.526 0 0 0 1.524-1.525"/><path stroke="#CD6666" stroke-width=".15" d="M44.144 87.733h-3.581v-2.025c0-.079.008-.156.023-.23l.005-.02a1.146 1.146 0 0 1 1.115-.894h2.438c.631 0 1.144.514 1.144 1.144v.881c0 .631-.513 1.144-1.144 1.144zm1.524-1.144v-.88c0-.84-.684-1.525-1.524-1.525h-2.438a1.527 1.527 0 0 0-1.523 1.496l-.001.028v2.406h3.962a1.526 1.526 0 0 0 1.524-1.525z"/><g fill="#FFF"><g transform="translate(52 85)"><path d="M1.816 4a2.73 2.73 0 0 1-.675-.902A2.584 2.584 0 0 1 .904 2c0-.39.08-.757.237-1.1.158-.344.383-.644.675-.9h1.088c-.307.316-.53.637-.672.964A2.582 2.582 0 0 0 2.021 2c0 .365.07.71.211 1.036.142.327.365.648.672.964H1.816zM15 4c.305-.316.53-.637.673-.964.143-.326.214-.671.214-1.036s-.071-.71-.214-1.036A3.331 3.331 0 0 0 15 0h1.084A2.595 2.595 0 0 1 17 2c0 .393-.078.76-.233 1.1a2.61 2.61 0 0 1-.683.9H15z"/><circle cx="5" cy="2" r="1"/><circle cx="9" cy="2" r="1"/><circle cx="13" cy="2" r="1"/></g><g transform="translate(75 86)"><circle cx="1" cy="1" r="1"/><circle cx="5" cy="1" r="1"/><circle cx="9" cy="1" r="1"/></g><g transform="translate(91 86)"><circle cx="1" cy="1" r="1"/><circle cx="5" cy="1" r="1"/><circle cx="9" cy="1" r="1"/><circle cx="13" cy="1" r="1"/></g></g></g><g><path fill="#FFF" fill-rule="nonzero" d="M164 120.155h80.824V19H164z"/><path fill="#928F9D" fill-rule="nonzero" d="M164 120.155h80.919V71.876H164z"/><path fill="#CD6666" fill-rule="nonzero" d="M164 34.558h80.919V18.999H164z"/><path stroke="#525564" stroke-width="2" d="M164 121.155h80.919V19H164z"/><path fill="#FFF" fill-rule="nonzero" d="M186.502 26.19v.479h-1.72v.854h1.54v.473h-1.54v.869h1.774v.476h-2.305v-3.15zM191.174 27.852v1.489h-.518v-1.345c0-.365-.216-.585-.567-.585-.41.013-.657.329-.657.747v1.183h-.518v-1.345c0-.365-.21-.585-.562-.585-.414.013-.666.329-.666.747v1.183h-.513v-2.394h.513v.464c.166-.338.472-.482.868-.482.428 0 .721.211.833.576.153-.4.473-.576.91-.576.548 0 .877.351.877.923M191.867 29.341h.513v-2.395h-.513v2.395zm.558-3.078a.297.297 0 0 1-.301.306.298.298 0 0 1-.302-.306c0-.181.131-.31.302-.31.17 0 .301.129.301.31zM193.82 27.338c-.203 0-.35.067-.35.24 0 .44 1.273.201 1.268 1.071 0 .49-.437.71-.918.71-.35 0-.725-.117-.963-.333l.184-.369c.207.185.54.297.801.297.221 0 .392-.076.392-.257 0-.49-1.26-.215-1.256-1.08 0-.486.424-.693.883-.693.301 0 .621.09.837.243l-.189.383a1.408 1.408 0 0 0-.689-.212M195.935 27.338c-.203 0-.35.067-.35.24 0 .44 1.273.201 1.268 1.071 0 .49-.436.71-.918.71-.35 0-.725-.117-.963-.333l.184-.369c.207.185.541.297.801.297.221 0 .392-.076.392-.257 0-.49-1.26-.215-1.256-1.08 0-.486.424-.693.883-.693.301 0 .621.09.837.243l-.189.383a1.408 1.408 0 0 0-.689-.212M198.807 28.5v-.22h-.648c-.338 0-.496.09-.496.32 0 .214.176.354.464.354.37 0 .653-.193.68-.454zm.004.841v-.292c-.17.211-.445.314-.792.314-.517 0-.84-.319-.84-.742 0-.436.327-.716.903-.72h.725v-.072c0-.302-.193-.48-.572-.48-.229 0-.468.08-.706.241l-.212-.36c.333-.198.576-.3 1.031-.3.617 0 .963.313.968.841l.004 1.57h-.509zM201.359 26.93v.494c-.481-.027-.788.257-.828.666v1.251h-.518v-2.394h.518v.477c.162-.324.45-.495.828-.495M202.065 30.238a.81.81 0 0 1-.554-.203l.221-.401a.502.502 0 0 0 .311.118c.157 0 .283-.086.364-.266l.081-.18-.99-2.36h.536l.715 1.815.667-1.814h.517l-1.089 2.724c-.149.378-.419.567-.779.567M174.751 29.807h-3.064v-2.979c0-.625.387-1.18.943-1.415a2.18 2.18 0 0 1 .096-.603 2.092 2.092 0 0 0-1.582 2.018v3.522h3.643a1.761 1.761 0 0 1-.029-.265l-.007-.278z"/><path fill="#FFF" fill-rule="nonzero" d="M180.408 27.19c-.041.18-.103.35-.185.51.46.154.764.6.764 1.153v2.399h-4.476a1.204 1.204 0 0 1-1.21-1.18l-.006-.266h-.544l.007.28c.003.09.014.178.029.264a1.74 1.74 0 0 0 1.724 1.445h5.019v-2.942c0-.79-.443-1.433-1.122-1.663"/><path fill="#FFF" fill-rule="nonzero" d="M178.285 28.344h-5.113v-2.892c0-.112.011-.222.033-.329l.008-.028a1.635 1.635 0 0 1 1.592-1.275h3.48c.9 0 1.633.732 1.633 1.632v1.26c0 .9-.733 1.632-1.633 1.632m2.176-1.633v-1.259c0-1.2-.976-2.175-2.176-2.175h-3.48a2.179 2.179 0 0 0-2.175 2.136v3.474h5.655a2.176 2.176 0 0 0 2.176-2.176"/><g stroke="#FFF"><path d="M229.882 25.018h7.893M229.882 27.536h7.893M229.882 30.053h7.893"/></g><g><g transform="translate(193 42.155)"><mask id="b" fill="#fff"><use xlink:href="#a"/></mask><path fill="#DCDDDE" fill-rule="nonzero" d="M.485 11.634C.485 5.572 5.398.66 11.46.66s10.974 4.913 10.974 10.975c0 6.061-4.913 10.974-10.974 10.974C5.4 22.608.485 17.695.485 11.634" mask="url(#b)"/></g><g transform="translate(193 42.155)"><mask id="d" fill="#fff"><use xlink:href="#c"/></mask><path stroke="#525564" d="M16.29 10.311a4.83 4.83 0 1 0-9.661 0 4.83 4.83 0 0 0 9.66 0" mask="url(#d)"/></g><g transform="translate(193 42.155)"><mask id="f" fill="#fff"><use xlink:href="#e"/></mask><path stroke="#525564" d="M20.337 21.11s-1.429-4.132-5.103-4.132c-1.826 0-2.189.63-3.544.63-1.356 0-1.73-.634-4.006-.63-3.345.006-5.103 4.132-5.103 4.132s3.121 5.379 9.09 5.379c5.966 0 8.666-5.379 8.666-5.379z" mask="url(#f)"/></g></g><g><path fill="#FFF" fill-rule="nonzero" d="M171 105h67V77h-67z"/><path fill="#97C0CE" fill-rule="nonzero" d="M222 114h16v-5h-16z"/><path stroke="#928F9D" stroke-width="2" d="M177 83h21M177 88h55M177 93h55M177 98h55"/></g></g></g></svg>