<svg style="width:100%" xmlns="http://www.w3.org/2000/svg" viewBox="0 0 227.71 65.29"><defs><style>.cls-2{fill:#fff}</style></defs><g id="Layer_2" data-name="Layer 2"><g id="chatbytext" opacity="0" data-name="OL TEXT"><path fill="#c66" d="M15.22 0h197.27a15.22 15.22 0 0 1 15.22 15.22v34.85a15.22 15.22 0 0 1-15.22 15.22H0V15.22A15.22 15.22 0 0 1 15.22 0z"/><path d="M56.48 28.35a4.52 4.52 0 0 0 0 9 5.67 5.67 0 0 0 3.82-1.72l2 2.12a8.6 8.6 0 0 1-5.94 2.62 7.46 7.46 0 0 1-7.71-7.52c0-4.24 3.38-7.43 7.83-7.43a8.36 8.36 0 0 1 5.79 2.44l-1.97 2.4a5.32 5.32 0 0 0-3.82-1.91zm18.59 4.83v7.1h-3.23v-6.15a2.1 2.1 0 0 0-2.23-2.31 2.63 2.63 0 0 0-2.6 2.9v5.56h-3.23V24.7H67V31a4.23 4.23 0 0 1 3.91-2.12 4 4 0 0 1 4.16 4.3zm9.15 7.1V39a4.35 4.35 0 0 1-3.55 1.47c-2.41 0-3.88-1.47-3.88-3.53s1.53-3.38 4.3-3.4h3.11v-.21c0-1.2-.8-1.89-2.35-1.89a7.16 7.16 0 0 0-3.36 1l-1-2.23a10.59 10.59 0 0 1 5.1-1.3c3 0 4.77 1.51 4.79 4.05v7.37zm0-3.86v-1h-2.56c-1.24 0-1.85.38-1.85 1.28s.67 1.43 1.76 1.43a2.5 2.5 0 0 0 2.63-1.71zm12.62 3.23a6 6 0 0 1-2.94.78 3.26 3.26 0 0 1-3.55-3.48v-5.24h-1.57v-2.22h1.57v-3.11h3.21v3.11h3.07v2.25h-3.07v4.66c0 .95.4 1.32 1.09 1.3a3.77 3.77 0 0 0 1.51-.42zm20.47-4.96c0 3.42-2.08 5.71-5.25 5.71a4.27 4.27 0 0 1-3.63-1.76v1.64h-3.23V24.7h3.23v5.94a4.18 4.18 0 0 1 3.57-1.76c3.17 0 5.31 2.33 5.31 5.81zm-3.28-.1a2.82 2.82 0 1 0-5.61 0 2.82 2.82 0 1 0 5.61 0z" class="cls-2"/><path d="M120.34 44.5a4.54 4.54 0 0 1-3.07-1.09l1.36-2.33a2.2 2.2 0 0 0 1.47.61 1.57 1.57 0 0 0 1.49-1l.31-.63L117.23 29h3.34l3 7.77L126.2 29h3.23l-5 12.56a4.19 4.19 0 0 1-4.09 2.94zM148 25.58v2.81h-4.49v11.89h-3.32V28.39h-4.47v-2.81zm10.34 10.04h-8.1a2.89 2.89 0 0 0 2.92 2.27 4 4 0 0 0 2.86-1.2l1.7 1.72a6.3 6.3 0 0 1-4.83 2c-3.61 0-5.9-2.31-5.9-5.73a5.5 5.5 0 0 1 5.82-5.79c3.95-.01 5.8 2.61 5.53 6.73zm-3-1.91a2.36 2.36 0 0 0-2.5-2.46 2.65 2.65 0 0 0-2.65 2.46zm7.14-4.71l2.08 3.42 2.2-3.42h3.53l-3.59 5.5 3.84 5.79h-3.72l-2.27-3.7-2.48 3.7h-3.57l3.91-5.77-3.63-5.52zm16.79 10.65a6 6 0 0 1-2.94.78 3.26 3.26 0 0 1-3.55-3.48v-5.24h-1.57v-2.22h1.57v-3.11H176v3.11h3.07v2.25H176v4.66c0 .95.4 1.32 1.09 1.3a3.77 3.77 0 0 0 1.51-.42z" class="cls-2"/></g></g></svg>