<svg width="306px" height="245px" viewBox="0 0 306 245" version="1.1" xmlns="http://www.w3.org/2000/svg" xmlns:xlink="http://www.w3.org/1999/xlink">
    <!-- Generator: Sketch 48.2 (47327) - http://www.bohemiancoding.com/sketch -->
    <title>desktop-user-interact</title>
    <desc>Created with Sketch.</desc>
    <defs></defs>
    <g id="Page-1" stroke="none" stroke-width="1" fill="none" fill-rule="evenodd">
        <g id="desktop-user-interact" opacity="0" transform="translate(2.000000, 2.000000)">
            <rect id="Rectangle-path" stroke="#525565" stroke-width="5" fill="#525565" fill-rule="nonzero" transform="translate(150.615000, 187.130000) rotate(-180.000000) translate(-150.615000, -187.130000) " x="139.78" y="140.31" width="21.67" height="93.64" rx="9"></rect>
            <rect id="Rectangle-path" stroke="#525565" stroke-width="5" fill="#525565" fill-rule="nonzero" transform="translate(150.605000, 231.680000) rotate(90.000000) translate(-150.605000, -231.680000) " x="142.175" y="167.955" width="16.86" height="127.45" rx="4"></rect>
            <rect id="Rectangle-path" stroke="#525565" stroke-width="5" fill="#FFFFFF" fill-rule="nonzero" x="0.5" y="0.5" width="300.22" height="201.08" rx="15"></rect>
            <path d="M0.1,160.64 L301.12,160.64" id="Shape" stroke="#525565" stroke-width="5"></path>
            <g id="Group" transform="translate(45.000000, 14.000000)">
                <rect id="Rectangle-path" stroke="#525565" stroke-width="2" fill="#FFFFFF" fill-rule="nonzero" x="0.35" y="0.95" width="210.53" height="132.45" rx="15"></rect>
                <path d="M72,20.37 L69.16,16.74 L70.82,16.74 L72.82,19.39 L74.82,16.74 L76.47,16.74 L73.61,20.39 L76.85,24.54 L75.19,24.54 L72.73,21.36 L70.27,24.54 L68.61,24.54 L72,20.37 Z M82.65,23.81 L79.06,16.74 L80.6,16.74 L83.36,22.32 L85.9,16.74 L87.41,16.74 L81.67,28.86 L80.17,28.86 L82.65,23.81 Z M92.29,23.3 L97.71,23.3 L97.71,24.54 L89.59,24.54 L95.23,18 L90.68,18 L90.68,16.74 L97.93,16.74 L92.29,23.3 Z M102.11,22.85 C102.629148,22.85 103.05,23.2708523 103.05,23.79 C103.05,24.3091477 102.629148,24.73 102.11,24.73 C101.590852,24.73 101.17,24.3091477 101.17,23.79 C101.199573,23.2836071 101.603607,22.8795726 102.11,22.85 Z M113.52,18.92 C112.920125,18.1823098 112.020804,17.7528382 111.07,17.75 C110.305661,17.7366801 109.570998,18.045618 109.045882,18.6011761 C108.520765,19.1567341 108.253674,19.9076225 108.31,20.67 C108.259699,21.4246271 108.52703,22.1659424 109.047383,22.714782 C109.567736,23.2636215 110.293765,23.5700469 111.05,23.56 C112.029433,23.5474827 112.95269,23.1005088 113.57,22.34 L113.57,24 C112.851574,24.5289414 111.982136,24.8129114 111.09,24.81 C108.82011,24.8099999 106.98,22.9698903 106.98,20.7 C106.98,18.4301097 108.82011,16.5900001 111.09,16.59 C111.958139,16.5822128 112.807262,16.8442875 113.52,17.34 L113.52,18.92 Z M117,20.67 C116.983787,18.9919814 117.98212,17.4701542 119.527778,16.8167386 C121.073435,16.1633229 122.860644,16.5075822 124.052984,17.6884018 C125.245324,18.8692214 125.606918,20.6530035 124.968539,22.2049318 C124.33016,23.7568602 122.818097,24.7699217 121.14,24.77 C120.037508,24.8089736 118.967867,24.3908916 118.184023,23.6146208 C117.400179,22.8383501 116.971732,21.7728186 117,20.67 Z M118.39,20.67 C118.328394,21.6902332 118.837697,22.6604672 119.712402,23.1892036 C120.587108,23.7179399 121.682892,23.7179399 122.557598,23.1892036 C123.432303,22.6604672 123.941606,21.6902332 123.88,20.67 C123.941606,19.6497668 123.432303,18.6795328 122.557598,18.1507964 C121.682892,17.6220601 120.587108,17.6220601 119.712402,18.1507964 C118.837697,18.6795328 118.328394,19.6497668 118.39,20.67 Z M129.25,16.74 L130.6,16.74 L130.6,17.57 C131.034755,16.9286976 131.76543,16.5520614 132.54,16.57 C133.429235,16.5509359 134.251749,17.0397889 134.66,17.83 C135.149749,17.0101261 136.045454,16.5201677 137,16.55 C139.32,16.55 139.54,18.49 139.54,19.6 L139.54,24.54 L138.2,24.54 L138.2,19.8 C138.2,18.92 138.09,17.8 136.81,17.8 C135.25,17.8 135.08,19.31 135.08,20.25 L135.08,24.59 L133.72,24.59 L133.72,19.92 C133.72,19.37 133.72,17.75 132.31,17.75 C130.9,17.75 130.6,19.35 130.6,20.29 L130.6,24.54 L129.25,24.54 L129.25,16.74 Z" id="Shape" fill="#96C0CE" fill-rule="nonzero"></path>
                <path d="M49.24,53.54 L42.24,53.54 L40.44,57.54 L37.7,57.54 L45.89,40.14 L53.68,57.54 L51,57.54 L49.24,53.54 Z M48.24,51.17 L45.8,45.59 L43.26,51.17 L48.24,51.17 Z M60.19,63.15 L57.78,63.15 L57.78,47.15 L60.19,47.15 L60.19,48.29 C60.9523338,47.3750109 62.0892894,46.8562059 63.28,46.88 C64.6706778,46.8991321 65.9926963,47.4876053 66.9376233,48.5081265 C67.8825504,49.5286478 68.3677416,50.891961 68.28,52.28 C68.3672625,53.6855332 67.8872817,55.0673625 66.9475059,56.1161523 C66.0077302,57.164942 64.6866494,57.7930974 63.28,57.86 C62.0694635,57.8293706 60.9330211,57.2702848 60.17,56.33 L60.19,63.15 Z M60.05,52.38 C59.9717262,53.2143053 60.2459631,54.043323 60.8063249,54.6663694 C61.3666867,55.2894157 62.1620943,55.6496976 63,55.66 C63.8331216,55.6339418 64.6178449,55.262444 65.1660558,54.6345623 C65.7142667,54.0066806 65.9765388,53.1790245 65.89,52.35 C65.89,50.5 64.75,49.02 63,49.02 C61.45,49 60.05,50.11 60.05,52.38 Z M75.73,63.15 L73.32,63.15 L73.32,47.15 L75.73,47.15 L75.73,48.29 C76.4901257,47.3777747 77.6227696,46.8592591 78.81,46.88 C80.2111447,46.8827335 81.5489442,47.4640576 82.5069945,48.4864829 C83.4650449,49.5089082 83.9582639,50.8816354 83.87,52.28 C83.9572625,53.6855332 83.4772817,55.0673625 82.5375059,56.1161523 C81.5977302,57.164942 80.2766494,57.7930974 78.87,57.86 C77.6594635,57.8293706 76.5230211,57.2702848 75.76,56.33 L75.73,63.15 Z M75.58,52.38 C75.5018474,53.2125959 75.7747628,54.0400252 76.3329286,54.6627408 C76.8910945,55.2854564 77.6838462,55.6469348 78.52,55.66 C79.3513549,55.6312308 80.1334426,55.2585651 80.6794743,54.6310079 C81.225506,54.0034506 81.4864557,53.1773476 81.4,52.35 C81.4,50.5 80.27,49.02 78.52,49.02 C77,49 75.58,50.11 75.58,52.38 Z M91.27,39.53 L91.27,57.53 L88.85,57.53 L88.85,39.53 L91.27,39.53 Z M99.85,55.88 L95.41,47.12 L98.32,47.12 L101.32,53.19 L104.32,47.12 L107,47.12 L98.74,63.12 L96,63.12 L99.85,55.88 Z M119.8,57.5 L119.8,40 L131.74,52.5 L131.74,41.06 L134.25,41.06 L134.25,58.52 L122.32,46 L122.32,57.5 L119.8,57.5 Z M150.78,52.33 C150.808392,54.580918 149.474328,56.626034 147.402845,57.5071677 C145.331362,58.3883013 142.932819,57.9309012 141.330983,56.3492689 C139.729148,54.7676366 139.241342,52.3750916 140.096113,50.2925921 C140.950884,48.2100925 142.978903,46.8501791 145.23,46.85 C146.701966,46.8089259 148.126863,47.3707537 149.174692,48.405367 C150.222521,49.4399803 150.802388,50.8576314 150.78,52.33 Z M148.31,52.33 C148.190513,50.6560123 146.756722,49.3834351 145.080387,49.463521 C143.404052,49.5436069 142.098108,50.9470735 142.138748,52.624828 C142.179388,54.3025825 143.551754,55.6411722 145.23,55.64 C146.092349,55.6670893 146.924617,55.3215959 147.514258,54.691752 C148.103899,54.061908 148.393827,53.2086927 148.31,52.35 L148.31,52.33 Z M157.09,47.12 L159.78,53.07 L162.69,46.24 L165.6,53.07 L168.29,47.12 L171,47.12 L165.6,58.25 L162.69,51.61 L159.78,58.25 L154.38,47.12 L157.09,47.12 Z" id="Shape" fill="#CE6567" fill-rule="nonzero"></path>
                <path d="M44.24,93.53 L166.99,93.53 M44.24,93.53 L166.99,93.53 M44.24,78.53 L166.99,78.53" id="Shape" stroke="#93909E" stroke-width="2"></path>
                <path d="M159.5,101.2 C163.670739,101.304165 166.999673,104.926728 167,109.098767 C167,113.240903 163.642136,117 159.5,117 L135,117 C130.581722,117 127,113.418278 127,109 C126.999875,106.896717 127.848957,104.882476 129.354725,103.413985 C130.860492,101.945495 132.89538,101.147162 134.998,101.2 L159.5,101.2 Z" id="button" fill="#96C0CE" fill-rule="nonzero" opacity="0.46948596"></path>
                <path d="M244.941002,133.848885 C245.051002,133.822885 245.156002,133.801885 245.253002,133.790885 L248.508002,133.428885 C249.073002,133.365885 249.213002,132.982885 248.819002,132.576885 L240.737002,124.236885 C240.344002,123.829885 240.021002,123.960885 240.020002,124.525885 L240.000002,136.139885 C239.999002,136.705885 240.366002,136.883885 240.816002,136.536885 L243.408002,134.535885 C243.483002,134.477885 243.572002,134.420885 243.665002,134.365885 L245.555002,139.042885 C245.685002,139.364885 246.075002,139.509885 246.428002,139.366885 C246.781002,139.224885 246.961002,138.848885 246.831002,138.526885 L244.941002,133.848885 Z" id="mouse-pointer" fill="#525565" fill-rule="nonzero"></path>
            </g>
        </g>
    </g>
</svg>