<svg id="desktop-web-image" xmlns="http://www.w3.org/2000/svg" viewbox="0 0 306 245"><g id="Page-1" fill="none" fill-rule="evenodd"><g id="desktop" transform="translate(2 2)"><rect id="Rectangle-path" width="21.67" height="93.64" x="139.78" y="140.31" fill="#525565" fill-rule="nonzero" stroke="#525565" stroke-width="5" rx="9" transform="rotate(-180 150.615 187.13)"/><rect id="Rectangle-path" width="16.86" height="127.45" x="142.175" y="167.955" fill="#525565" fill-rule="nonzero" stroke="#525565" stroke-width="5" rx="4" transform="rotate(90 150.605 231.68)"/><rect id="Rectangle-path" width="300.22" height="201.08" x=".5" y=".5" fill="#FFF" fill-rule="nonzero" stroke="#525565" stroke-width="5" rx="15"/><path id="Shape" stroke="#525565" stroke-width="5" d="M.1 160.64h301.02"/><g id="desktop-website" transform="translate(45 14)" style="opacity: 0;"><rect id="Rectangle-path" width="210.53" height="132.45" x=".35" y=".95" fill="#FFF" fill-rule="nonzero" stroke="#525565" stroke-width="2" rx="15"/><path id="Shape" fill="#96C0CE" fill-rule="nonzero" d="M72 20.37l-2.84-3.63h1.66l2 2.65 2-2.65h1.65l-2.86 3.65 3.24 4.15h-1.66l-2.46-3.18-2.46 3.18h-1.66zm10.65 3.44l-3.59-7.07h1.54l2.76 5.58 2.54-5.58h1.51l-5.74 12.12h-1.5zm9.64-.51h5.42v1.24h-8.12L95.23 18h-4.55v-1.26h7.25zm9.82-.45a.94.94 0 1 1-.94.94 1 1 0 0 1 .94-.94zm11.41-3.93a3.17 3.17 0 0 0-2.45-1.17 2.72 2.72 0 0 0-2.76 2.92 2.71 2.71 0 0 0 2.74 2.89 3.3 3.3 0 0 0 2.52-1.22V24a4.16 4.16 0 0 1-2.48.81 4.11 4.11 0 0 1 0-8.22 4.19 4.19 0 0 1 2.43.75v1.58zm3.48 1.75a4.14 4.14 0 1 1 4.14 4.1 4 4 0 0 1-4.14-4.1zm1.39 0a2.75 2.75 0 1 0 5.49 0 2.75 2.75 0 1 0-5.49 0zm10.86-3.93h1.35v.83a2.28 2.28 0 0 1 1.94-1 2.33 2.33 0 0 1 2.12 1.26 2.63 2.63 0 0 1 2.34-1.28c2.32 0 2.54 1.94 2.54 3.05v4.94h-1.34V19.8c0-.88-.11-2-1.39-2-1.56 0-1.73 1.51-1.73 2.45v4.34h-1.36v-4.67c0-.55 0-2.17-1.41-2.17s-1.71 1.6-1.71 2.54v4.25h-1.35v-7.8z"/><path id="Shape" fill="#CE6567" fill-rule="nonzero" d="M49.24 53.54h-7l-1.8 4H37.7l8.19-17.4 7.79 17.4H51l-1.76-4zm-1-2.37l-2.44-5.58-2.54 5.58h4.98zm11.95 11.98h-2.41v-16h2.41v1.14a3.92 3.92 0 0 1 3.09-1.41 5.08 5.08 0 0 1 5 5.4 5.26 5.26 0 0 1-5 5.58 4.14 4.14 0 0 1-3.11-1.53l.02 6.82zm-.14-10.77A3 3 0 0 0 63 55.66a3 3 0 0 0 2.89-3.31c0-1.85-1.14-3.33-2.89-3.33-1.55-.02-2.95 1.09-2.95 3.36zm15.68 10.77h-2.41v-16h2.41v1.14a3.92 3.92 0 0 1 3.08-1.41 5.08 5.08 0 0 1 5.06 5.4 5.26 5.26 0 0 1-5 5.58 4.14 4.14 0 0 1-3.11-1.53l-.03 6.82zm-.15-10.77a3 3 0 0 0 2.94 3.28 3 3 0 0 0 2.88-3.31c0-1.85-1.13-3.33-2.88-3.33-1.52-.02-2.94 1.09-2.94 3.36zm15.69-12.85v18h-2.42v-18zm8.58 16.35l-4.44-8.76h2.91l3 6.07 3-6.07H107l-8.26 16H96zm19.95 1.62V40l11.94 12.5V41.06h2.51v17.46L122.32 46v11.5zm30.98-5.17a5.55 5.55 0 1 1-5.55-5.48 5.4 5.4 0 0 1 5.55 5.48zm-2.47 0a3.09 3.09 0 1 0-3.08 3.31 3 3 0 0 0 3.08-3.29v-.02zm8.78-5.21l2.69 5.95 2.91-6.83 2.91 6.83 2.69-5.95H171l-5.4 11.13-2.91-6.64-2.91 6.64-5.4-11.13z"/><g id="Group" stroke="#93909E" stroke-width="2" transform="translate(44 78)"><path id="Shape" d="M.24 30.54h122.75M.24 15.53h122.75M.24.53h122.75"/></g></g></g></g></svg>