<?xml version="1.0" encoding="UTF-8"?>
<svg id="browser-extension-graphic" viewBox="0 0 156 124" version="1.1" xmlns="http://www.w3.org/2000/svg" xmlns:xlink="http://www.w3.org/1999/xlink">
    <defs>
        <polygon id="path-1" points="0 0 156 0 156 2 0 2"></polygon>
        <polygon id="path-3" points="0 104 82.919 104 82.919 0.845 0 0.845"></polygon>
        <path d="M0.486,11.634 C0.486,17.695 5.399,22.608 11.459,22.608 C17.52,22.608 22.434,17.695 22.434,11.634 C22.434,5.573 17.52,0.66 11.459,0.66 C5.399,0.66 0.486,5.573 0.486,11.634" id="path-5"></path>
        <path d="M0.486,11.634 C0.486,17.695 5.399,22.608 11.459,22.608 C17.52,22.608 22.434,17.695 22.434,11.634 C22.434,5.573 17.52,0.66 11.459,0.66 C5.399,0.66 0.486,5.573 0.486,11.634" id="path-7"></path>
        <path d="M0.486,11.634 C0.486,17.695 5.399,22.608 11.459,22.608 C17.52,22.608 22.434,17.695 22.434,11.634 C22.434,5.573 17.52,0.66 11.459,0.66 C5.399,0.66 0.486,5.573 0.486,11.634 Z" id="path-9"></path>
    </defs>
    <g id="Page-1" stroke="none" stroke-width="1" fill="none" fill-rule="evenodd">
        <g id="extension" transform="translate(-1.000000, -2.000000)">
            <g id="browser">
                <path d="M1,126 L157,126 L157,2 L1,2 L1,126 Z M6,121 L152,121 L152,7 L6,7 L6,121 Z" id="Fill-2" fill="#525564"></path>
                <g id="Group-26" transform="translate(0.000000, 0.265000)">
                    <path d="M29.1913,12.5096 C29.1913,13.5496 28.3483,14.3936 27.3083,14.3936 C26.2683,14.3936 25.4243,13.5496 25.4243,12.5096 C25.4243,11.4696 26.2683,10.6266 27.3083,10.6266 C28.3483,10.6266 29.1913,11.4696 29.1913,12.5096" id="Fill-3" fill="#CD6666"></path>
                    <path d="M27.308,11.3328 C26.659,11.3328 26.131,11.8608 26.131,12.5098 C26.131,13.1588 26.659,13.6868 27.308,13.6868 C27.957,13.6868 28.485,13.1588 28.485,12.5098 C28.485,11.8608 27.957,11.3328 27.308,11.3328 M27.308,15.0998 C25.88,15.0998 24.719,13.9368 24.719,12.5098 C24.719,11.0818 25.88,9.9208 27.308,9.9208 C28.736,9.9208 29.898,11.0818 29.898,12.5098 C29.898,13.9368 28.736,15.0998 27.308,15.0998" id="Fill-5" fill="#545454"></path>
                    <path d="M27.308,11.3328 C26.659,11.3328 26.131,11.8608 26.131,12.5098 C26.131,13.1588 26.659,13.6868 27.308,13.6868 C27.957,13.6868 28.485,13.1588 28.485,12.5098 C28.485,11.8608 27.957,11.3328 27.308,11.3328 M27.308,15.0998 C25.88,15.0998 24.719,13.9368 24.719,12.5098 C24.719,11.0818 25.88,9.9208 27.308,9.9208 C28.736,9.9208 29.898,11.0818 29.898,12.5098 C29.898,13.9368 28.736,15.0998 27.308,15.0998" id="Fill-7" fill="#525564"></path>
                    <path d="M21.6581,12.5096 C21.6581,13.5496 20.8151,14.3936 19.7751,14.3936 C18.7351,14.3936 17.8921,13.5496 17.8921,12.5096 C17.8921,11.4696 18.7351,10.6266 19.7751,10.6266 C20.8151,10.6266 21.6581,11.4696 21.6581,12.5096" id="Fill-9" fill="#97C0CE"></path>
                    <path d="M19.7752,11.3328 C19.1262,11.3328 18.5982,11.8608 18.5982,12.5098 C18.5982,13.1588 19.1262,13.6868 19.7752,13.6868 C20.4242,13.6868 20.9522,13.1588 20.9522,12.5098 C20.9522,11.8608 20.4242,11.3328 19.7752,11.3328 M19.7752,15.0998 C18.3472,15.0998 17.1852,13.9368 17.1852,12.5098 C17.1852,11.0818 18.3472,9.9208 19.7752,9.9208 C21.2032,9.9208 22.3642,11.0818 22.3642,12.5098 C22.3642,13.9368 21.2032,15.0998 19.7752,15.0998" id="Fill-11" fill="#545454"></path>
                    <path d="M19.7752,11.3328 C19.1262,11.3328 18.5982,11.8608 18.5982,12.5098 C18.5982,13.1588 19.1262,13.6868 19.7752,13.6868 C20.4242,13.6868 20.9522,13.1588 20.9522,12.5098 C20.9522,11.8608 20.4242,11.3328 19.7752,11.3328 M19.7752,15.0998 C18.3472,15.0998 17.1852,13.9368 17.1852,12.5098 C17.1852,11.0818 18.3472,9.9208 19.7752,9.9208 C21.2032,9.9208 22.3642,11.0818 22.3642,12.5098 C22.3642,13.9368 21.2032,15.0998 19.7752,15.0998" id="Fill-13" fill="#525564"></path>
                    <path d="M12.242,11.3328 C11.593,11.3328 11.065,11.8608 11.065,12.5098 C11.065,13.1588 11.593,13.6868 12.242,13.6868 C12.891,13.6868 13.419,13.1588 13.419,12.5098 C13.419,11.8608 12.891,11.3328 12.242,11.3328 M12.242,15.0998 C10.814,15.0998 9.652,13.9368 9.652,12.5098 C9.652,11.0818 10.814,9.9208 12.242,9.9208 C13.67,9.9208 14.831,11.0818 14.831,12.5098 C14.831,13.9368 13.67,15.0998 12.242,15.0998" id="Fill-15" fill="#525564"></path>
                    <g id="Group-19" transform="translate(1.000000, 18.735000)">
                        <mask id="mask-2" fill="white">
                            <use xlink:href="#path-1"></use>
                        </mask>
                        <g id="Clip-18" transform="translate(78.000000, 1.000000) scale(1, -1) translate(-78.000000, -1.000000) "></g>
                    </g>
                    <polygon id="Fill-20" fill="#DCDDDE" points="12 44.735 144 44.735 144 33.735 12 33.735"></polygon>
                    <polygon id="Fill-22" fill="#DCDDDE" points="12 113.735 144 113.735 144 89.735 12 89.735"></polygon>
                    <polygon id="Fill-23" fill="#DCDDDE" points="12 84.735 43 84.735 43 49.735 12 49.735"></polygon>
                    <polygon id="Fill-24" fill="#DCDDDE" points="49 84.735 80 84.735 80 49.735 49 49.735"></polygon>
                    <polygon id="Fill-25" fill="#DCDDDE" points="86 84.735 144 84.735 144 49.735 86 49.735"></polygon>
                </g>
                <path d="M1,20 L157,20" id="Stroke-17" stroke="#525564" stroke-width="2"></path>
            </g>
            <g id="sidebar" opacity="0" transform="translate(71.000000, 18.000000)">
                <polygon id="Fill-1" fill="#FFFFFF" points="1 103.155 81.824 103.155 81.824 2 1 2"></polygon>
                <polygon id="Fill-2" fill="#928F9D" points="1 103.155 81.919 103.155 81.919 54.876 1 54.876"></polygon>
                <polygon id="Fill-3" fill="#CD6666" points="1 17.558 81.919 17.558 81.919 1.999 1 1.999"></polygon>
                <polygon id="Stroke-4" stroke="#525564" stroke-width="2" points="1 104.155 81.919 104.155 81.919 2 1 2"></polygon>
                <g id="Group-22" transform="translate(0.000000, 0.155000)">
                    <polygon id="Fill-6" fill="#FFFFFF" points="23.5024 9.0358 23.5024 9.5138 21.7824 9.5138 21.7824 10.3678 23.3224 10.3678 23.3224 10.8408 21.7824 10.8408 21.7824 11.7098 23.5564 11.7098 23.5564 12.1858 21.2514 12.1858 21.2514 9.0358"></polygon>
                    <path d="M28.1743,10.697 L28.1743,12.186 L27.6563,12.186 L27.6563,10.841 C27.6563,10.476 27.4403,10.256 27.0893,10.256 C26.6793,10.269 26.4323,10.585 26.4323,11.003 L26.4323,12.186 L25.9143,12.186 L25.9143,10.841 C25.9143,10.476 25.7033,10.256 25.3523,10.256 C24.9383,10.269 24.6863,10.585 24.6863,11.003 L24.6863,12.186 L24.1733,12.186 L24.1733,9.792 L24.6863,9.792 L24.6863,10.256 C24.8523,9.918 25.1583,9.774 25.5543,9.774 C25.9823,9.774 26.2753,9.985 26.3873,10.35 C26.5403,9.95 26.8603,9.774 27.2963,9.774 C27.8453,9.774 28.1743,10.125 28.1743,10.697" id="Fill-7" fill="#FFFFFF"></path>
                    <mask id="mask-4" fill="white">
                        <use xlink:href="#path-3"></use>
                    </mask>
                    <g id="Clip-10"></g>
                    <path d="M28.867,12.186 L29.38,12.186 L29.38,9.791 L28.867,9.791 L28.867,12.186 Z M29.425,9.108 C29.425,9.283 29.294,9.414 29.124,9.414 C28.953,9.414 28.822,9.283 28.822,9.108 C28.822,8.927 28.953,8.798 29.124,8.798 C29.294,8.798 29.425,8.927 29.425,9.108 Z" id="Fill-9" fill="#FFFFFF" mask="url(#mask-4)"></path>
                    <path d="M30.8203,10.1833 C30.6173,10.1833 30.4693,10.2503 30.4693,10.4223 C30.4693,10.8633 31.7433,10.6243 31.7383,11.4943 C31.7383,11.9843 31.3013,12.2043 30.8203,12.2043 C30.4693,12.2043 30.0953,12.0873 29.8573,11.8713 L30.0413,11.5023 C30.2483,11.6873 30.5813,11.7993 30.8423,11.7993 C31.0633,11.7993 31.2343,11.7233 31.2343,11.5423 C31.2343,11.0523 29.9743,11.3273 29.9783,10.4623 C29.9783,9.9763 30.4023,9.7693 30.8613,9.7693 C31.1623,9.7693 31.4823,9.8593 31.6983,10.0123 L31.5093,10.3953 C31.2973,10.2643 31.0313,10.1833 30.8203,10.1833" id="Fill-11" fill="#FFFFFF" mask="url(#mask-4)"></path>
                    <path d="M32.9355,10.1833 C32.7325,10.1833 32.5845,10.2503 32.5845,10.4223 C32.5845,10.8633 33.8585,10.6243 33.8535,11.4943 C33.8535,11.9843 33.4175,12.2043 32.9355,12.2043 C32.5845,12.2043 32.2105,12.0873 31.9725,11.8713 L32.1565,11.5023 C32.3635,11.6873 32.6975,11.7993 32.9575,11.7993 C33.1785,11.7993 33.3495,11.7233 33.3495,11.5423 C33.3495,11.0523 32.0895,11.3273 32.0935,10.4623 C32.0935,9.9763 32.5175,9.7693 32.9765,9.7693 C33.2775,9.7693 33.5975,9.8593 33.8135,10.0123 L33.6245,10.3953 C33.4125,10.2643 33.1465,10.1833 32.9355,10.1833" id="Fill-12" fill="#FFFFFF" mask="url(#mask-4)"></path>
                    <path d="M35.8071,11.3454 L35.8071,11.1244 L35.1591,11.1244 C34.8211,11.1244 34.6631,11.2144 34.6631,11.4444 C34.6631,11.6594 34.8391,11.7994 35.1271,11.7994 C35.4961,11.7994 35.7801,11.6064 35.8071,11.3454 Z M35.8111,12.1864 L35.8111,11.8944 C35.6401,12.1054 35.3661,12.2084 35.0191,12.2084 C34.5021,12.2084 34.1781,11.8894 34.1781,11.4664 C34.1781,11.0304 34.5061,10.7504 35.0821,10.7454 L35.8071,10.7454 L35.8071,10.6744 C35.8071,10.3724 35.6141,10.1934 35.2351,10.1934 C35.0061,10.1934 34.7671,10.2734 34.5291,10.4354 L34.3171,10.0754 C34.6501,9.8774 34.8931,9.7744 35.3481,9.7744 C35.9651,9.7744 36.3111,10.0884 36.3161,10.6164 L36.3201,12.1864 L35.8111,12.1864 Z" id="Fill-13" fill="#FFFFFF" mask="url(#mask-4)"></path>
                    <path d="M38.3589,9.7741 L38.3589,10.2691 C37.8779,10.2421 37.5709,10.5261 37.5309,10.9351 L37.5309,12.1861 L37.0129,12.1861 L37.0129,9.7921 L37.5309,9.7921 L37.5309,10.2691 C37.6929,9.9451 37.9809,9.7741 38.3589,9.7741" id="Fill-14" fill="#FFFFFF" mask="url(#mask-4)"></path>
                    <path d="M39.0654,13.0827 C38.8494,13.0827 38.6784,13.0197 38.5114,12.8797 L38.7324,12.4787 C38.8444,12.5607 38.9354,12.5967 39.0434,12.5967 C39.2004,12.5967 39.3264,12.5107 39.4074,12.3307 L39.4884,12.1507 L38.4984,9.7917 L39.0344,9.7917 L39.7494,11.6057 L40.4164,9.7917 L40.9334,9.7917 L39.8444,12.5157 C39.6954,12.8937 39.4254,13.0827 39.0654,13.0827" id="Fill-15" fill="#FFFFFF" mask="url(#mask-4)"></path>
                    <path d="M11.751,12.652 L8.687,12.652 L8.687,9.673 C8.687,9.048 9.074,8.493 9.63,8.258 C9.634,8.048 9.667,7.846 9.726,7.655 C8.813,7.88 8.144,8.716 8.144,9.673 L8.144,13.195 L11.787,13.195 C11.772,13.109 11.76,13.021 11.758,12.93 L11.751,12.652 Z" id="Fill-16" fill="#FFFFFF" mask="url(#mask-4)"></path>
                    <path d="M17.4077,10.0349 C17.3667,10.2149 17.3047,10.3859 17.2227,10.5459 C17.6837,10.6989 17.9867,11.1459 17.9867,11.6979 L17.9867,14.0969 L13.5107,14.0969 C12.8497,14.0969 12.3187,13.5779 12.3017,12.9169 L12.2947,12.6509 L11.7507,12.6509 L11.7507,12.6519 L11.7577,12.9309 C11.7607,13.0209 11.7717,13.1089 11.7867,13.1949 C11.9317,14.0229 12.6427,14.6399 13.5107,14.6399 L18.5297,14.6399 L18.5297,11.6979 C18.5297,10.9079 18.0867,10.2649 17.4077,10.0349" id="Fill-17" fill="#FFFFFF" mask="url(#mask-4)"></path>
                    <path d="M15.2852,11.1891 L10.1722,11.1891 L10.1722,8.2971 C10.1722,8.1851 10.1832,8.0751 10.2052,7.9681 C10.2072,7.9591 10.2112,7.9501 10.2132,7.9401 C10.3772,7.2111 11.0282,6.6651 11.8052,6.6651 L15.2852,6.6651 C16.1852,6.6651 16.9182,7.3971 16.9182,8.2971 L16.9182,9.5561 C16.9182,10.4571 16.1852,11.1891 15.2852,11.1891 M17.4612,9.5561 L17.4612,8.2971 C17.4612,7.0971 16.4852,6.1221 15.2852,6.1221 L11.8052,6.1221 C10.8292,6.1221 10.0012,6.7671 9.7262,7.6551 C9.6672,7.8461 9.6342,8.0481 9.6302,8.2581 C9.6302,8.2711 9.6292,8.2851 9.6292,8.2971 L9.6292,11.7321 L15.2852,11.7321 C16.1292,11.7321 16.8622,11.2491 17.2222,10.5451 C17.3052,10.3851 17.3672,10.2141 17.4082,10.0351 C17.4432,9.8801 17.4612,9.7201 17.4612,9.5561" id="Fill-18" fill="#FFFFFF" mask="url(#mask-4)"></path>
                    <path d="M66.8823,7.863 L74.7753,7.863" id="Stroke-19" stroke="#FFFFFF" mask="url(#mask-4)"></path>
                    <path d="M66.8823,10.3806 L74.7753,10.3806" id="Stroke-20" stroke="#FFFFFF" mask="url(#mask-4)"></path>
                    <path d="M66.8823,12.8981 L74.7753,12.8981" id="Stroke-21" stroke="#FFFFFF" mask="url(#mask-4)"></path>
                </g>
                <g id="Group-32" transform="translate(30.000000, 25.155000)">
                    <g id="Group-25">
                        <mask id="mask-6" fill="white">
                            <use xlink:href="#path-5"></use>
                        </mask>
                        <g id="Clip-24"></g>
                        <path d="M0.4854,11.6345 C0.4854,5.5725 5.3984,0.6595 11.4594,0.6595 C17.5204,0.6595 22.4334,5.5725 22.4334,11.6345 C22.4334,17.6955 17.5204,22.6085 11.4594,22.6085 C5.3984,22.6085 0.4854,17.6955 0.4854,11.6345" id="Fill-23" fill="#DCDDDE" mask="url(#mask-6)"></path>
                    </g>
                    <g id="Group-28">
                        <mask id="mask-8" fill="white">
                            <use xlink:href="#path-7"></use>
                        </mask>
                        <g id="Clip-27"></g>
                        <path d="M16.2891,10.3112 C16.2891,7.6432 14.1261,5.4812 11.4591,5.4812 C8.7921,5.4812 6.6301,7.6432 6.6301,10.3112 C6.6301,12.9782 8.7921,15.1402 11.4591,15.1402 C14.1261,15.1402 16.2891,12.9782 16.2891,10.3112" id="Stroke-26" stroke="#525564" mask="url(#mask-8)"></path>
                    </g>
                    <g id="Group-31">
                        <mask id="mask-10" fill="white">
                            <use xlink:href="#path-9"></use>
                        </mask>
                        <g id="Clip-30"></g>
                        <path d="M20.3374,21.11 C20.3374,21.11 18.9084,16.978 15.2344,16.978 C13.4084,16.978 13.0454,17.608 11.6904,17.608 C10.3344,17.608 9.9594,16.974 7.6844,16.978 C4.3394,16.984 2.5814,21.11 2.5814,21.11 C2.5814,21.11 5.7024,26.489 11.6704,26.489 C17.6374,26.489 20.3374,21.11 20.3374,21.11 Z" id="Stroke-29" stroke="#525564" mask="url(#mask-10)"></path>
                    </g>
                </g>
                <g id="Group-40" transform="translate(8.000000, 60.000000)">
                    <polygon id="Fill-33" fill="#FFFFFF" points="0 28 67 28 67 2.84217094e-14 0 2.84217094e-14"></polygon>
                    <polygon id="Fill-35" fill="#97C0CE" points="51 37 67 37 67 32 51 32"></polygon>
                    <path d="M6,6 L27,6" id="Stroke-36" stroke="#928F9D" stroke-width="2"></path>
                    <path d="M6,11 L61,11" id="Stroke-37" stroke="#928F9D" stroke-width="2"></path>
                    <path d="M6,16 L61,16" id="Stroke-38" stroke="#928F9D" stroke-width="2"></path>
                    <path d="M6,21 L61,21" id="Stroke-39" stroke="#928F9D" stroke-width="2"></path>
                </g>
            </g>
        </g>
    </g>
</svg>