<svg id="mobile-phone-image" xmlns="http://www.w3.org/2000/svg" viewbox="0 0 166 292" style="max-width:160px;"><g id="Page-1" fill="none" fill-rule="evenodd"><g id="mobile-phone" transform="translate(3 3)"><g id="phone"><path id="Shape" fill="#FFF" fill-rule="nonzero" stroke="#525565" stroke-width="6" d="M20 0h119.2c11 0 20 9 20 20v245.7c0 11-9 20-20 20H20c-11 0-20-9-20-20V20C0 9 9 0 20 0z"/><path id="Shape" stroke="#525565" stroke-width="6" d="M159.2 29.9H0m159.2 195.5H0"/><path id="Shape" fill="#525565" fill-rule="nonzero" stroke="#525565" stroke-width="1.5" d="M67.8 11.1h23.6c1.2 0 2.2 1 2.2 2.2v1.4c0 1.2-1 2.2-2.2 2.2H67.8c-1.2 0-2.2-1-2.2-2.2v-1.4c0-1.2 1-2.2 2.2-2.2z"/><path id="Shape" fill="#525565" fill-rule="nonzero" stroke="#525565" stroke-width="2" d="M74.2 11.1H85c1.2 0 2.2 1 2.2 2.2v1.4c0 1.2-1 2.2-2.2 2.2H74.2C73 17 72 16 72 14.7v-1.4c0-1.2 1-2.2 2.2-2.2z"/><circle id="Oval" cx="79.6" cy="254.7" r="17" fill="#FFF" fill-rule="nonzero" stroke="#525565" stroke-width="5"/><g transform="translate(24 51)"><g id="mobile-phone-message" transform="translate(0 53)" style="opacity:0;"><path id="Shape" fill="#FFF" fill-rule="nonzero" stroke="#CE6567" stroke-width="5" d="M15.7 0h79.8c8.3 0 15 6.7 15 15v65.4c0 8.3-6.7 15-15 15H.7V15c0-8.3 6.7-15 15-15z"/><path id="Shape" stroke="#CE6567" stroke-width="2" d="M13.5 80.8h84.3M13.5 50.5h84.3M13.5 34.7h84.3M13.5 19h84.3"/><path id="Shape" fill="#96C0CE" fill-rule="nonzero" d="M25 65.6l-2.6-3.3h1.5l1.8 2.4 1.9-2.4h1.5l-2.6 3.3 3 3.8H28l-2.2-2.9-2.2 2.9H22l3-3.8zm9.7 3.1l-3.3-6.4h1.4l2.5 5.1 2.3-5.1H39l-5.2 11h-1.4l2.3-4.6zm8.8-.4h4.9v1.1H41l5.1-6H42v-1.1h6.6l-5.1 6zm8.9-.5c.5 0 .8.4.8.9-.1.5-.5.8-.9.8s-.7-.4-.8-.8c.1-.5.5-.8.9-.9zm10.4-3.5c-.5-.7-1.4-1.1-2.2-1.1-1.5 0-2.6 1.2-2.6 2.6 0 1.5 1.2 2.6 2.6 2.6.9 0 1.7-.4 2.3-1.1v1.5c-.7.5-1.4.7-2.3.7-2.1 0-3.7-1.7-3.7-3.7 0-2.1 1.7-3.7 3.7-3.7.8 0 1.6.2 2.2.7v1.5zm3.2 1.6c0-2.1 1.6-3.8 3.7-3.8s3.8 1.6 3.8 3.7-1.6 3.8-3.7 3.8h-.1c-2 .1-3.7-1.5-3.8-3.5.1-.1.1-.2.1-.2zm1.3 0c.1 1.4 1.3 2.4 2.6 2.3 1.4-.1 2.4-1.3 2.3-2.6-.1-1.3-1.2-2.3-2.5-2.3-1.4 0-2.5 1.1-2.5 2.4.1 0 .1.1.1.2zm9.8-3.6h1.2v.8c.4-.6 1.1-.9 1.8-.9.8 0 1.6.4 1.9 1.1.4-.7 1.3-1.2 2.1-1.1 2.1 0 2.3 1.8 2.3 2.8v4.5h-1.2v-4.3c0-.8-.1-1.9-1.3-1.9-1.4 0-1.6 1.4-1.6 2.2v4h-1.2v-4.2c0-.5 0-2-1.3-2s-1.6 1.4-1.6 2.3v3.9H77v-7.2h.1z"/><path id="Shape" fill="#96C0CE" fill-rule="nonzero" d="M21.9 71.6v-.9h67.5v.9z"/></g><g id="mobile-phone-avatar" fill-rule="nonzero" transform="translate(39)" style="opacity:0;"><path id="Shape" fill="#FFF" d="M.9 37.7V.6h32.3v37.1H.9zm16-18.4c-6.3 0-12.2 4-14.3 9.7-.4 1.1-.3 1.8.6 2.5 7.5 7.2 20.1 7.1 27.5-.1.9-.8 1-1.5.6-2.6-2.4-5.7-8.1-9.5-14.4-9.5zm0-17.9c-3.5 0-6.5 3-6.6 6.5-.1 3.4 2.9 6.5 6.5 6.6 3.5.1 6.7-3.1 6.7-6.6-.1-3.5-3.1-6.5-6.6-6.5z"/><path id="Shape" fill="#CE6567" d="M16.9 19.3c6.3 0 12.1 3.8 14.3 9.4.4 1.1.3 1.8-.6 2.6-7.5 7.2-20 7.3-27.5.1-.8-.8-1-1.5-.6-2.5 2.2-5.6 8.1-9.6 14.4-9.6zm0-17.9c3.5 0 6.5 3.1 6.5 6.5 0 3.5-3.2 6.7-6.7 6.6-3.5-.1-6.5-3.2-6.5-6.6.2-3.5 3.2-6.5 6.7-6.5z"/></g></g></g></g></g></svg>