<?xml version="1.0" encoding="UTF-8"?>
<svg id="outreach-graphic" viewBox="0 0 163 121" version="1.1" xmlns="http://www.w3.org/2000/svg" xmlns:xlink="http://www.w3.org/1999/xlink">
    <g id="Page-1" stroke="none" stroke-width="1" fill="none" fill-rule="evenodd">
        <g id="outreach-map">
            <g id="map-page">
                <polygon id="Fill-1" fill="#525564" points="162.8766 0.0006 155.2296 2.1856 119.8436 12.2946 83.0866 1.7936 81.4386 1.3226 79.7906 1.7936 43.0336 12.2946 7.6486 2.1856 -0.0004 0.0006 -0.0004 7.9546 -0.0004 103.8576 -0.0004 108.3826 4.3516 109.6266 41.3856 120.2076 43.0336 120.6776 44.6816 120.2076 81.4386 109.7056 118.1956 120.2076 119.8436 120.6776 121.4916 120.2076 158.5246 109.6266 162.8766 108.3826 162.8766 103.8576 162.8766 7.9546"></polygon>
                <polygon id="Fill-2" fill="#FFFFFF" points="81.4385 7.5621 119.8435 18.5351 156.8765 7.9551 156.8765 103.8571 119.8435 114.4381 81.4385 103.4651 43.0335 114.4381 6.0005 103.8571 6.0005 7.9551 43.0335 18.5351"></polygon>
                <polygon id="Fill-3" fill="#DCDDDE" points="43.0342 21.3878 8.7442 11.5908 8.7442 101.7878 43.0342 111.5848"></polygon>
                <polygon id="Fill-4" fill="#DCDDDE" points="81.4395 10.4151 81.4395 100.6121 119.8445 111.5841 119.8445 21.3881"></polygon>
            </g>
            <g id="map-content" transform="translate(15.000000, 24.678000)">
                <g id="map-bubble-3" opacity="0" transform="translate(117.000000, 27.000000)">
                    <path d="M20.3692,14.7068 L6.2172,14.7068 C3.1002,14.7068 0.5652,12.1708 0.5652,9.0548 L0.5652,5.9818 C0.5652,2.8658 3.1002,0.3298 6.2172,0.3298 L14.7172,0.3298 C17.8332,0.3298 20.3692,2.8658 20.3692,5.9818 L20.3692,14.7068 Z" id="Fill-5" fill="#97C0CE"></path>
                    <path d="M6.2169,2.3299 C4.2029,2.3299 2.5649,3.9679 2.5649,5.9819 L2.5649,9.0549 C2.5649,11.0689 4.2029,12.7069 6.2169,12.7069 L18.3689,12.7069 L18.3689,5.9819 C18.3689,3.9679 16.7309,2.3299 14.7169,2.3299 L6.2169,2.3299 Z" id="Fill-7" fill="#FFFFFF"></path>
                    <path d="M8.1915,9.2693 C8.1915,9.9883 7.6085,10.5713 6.8895,10.5713 C6.1705,10.5713 5.5875,9.9883 5.5875,9.2693 C5.5875,8.5503 6.1705,7.9673 6.8895,7.9673 C7.6085,7.9673 8.1915,8.5503 8.1915,9.2693" id="Fill-9" fill="#525564"></path>
                    <path d="M12.5064,9.2693 C12.5064,9.9883 11.9234,10.5713 11.2044,10.5713 C10.4854,10.5713 9.9024,9.9883 9.9024,9.2693 C9.9024,8.5503 10.4854,7.9673 11.2044,7.9673 C11.9234,7.9673 12.5064,8.5503 12.5064,9.2693" id="Fill-11" fill="#525564"></path>
                    <path d="M16.8209,9.2693 C16.8209,9.9883 16.2379,10.5713 15.5189,10.5713 C14.7999,10.5713 14.2169,9.9883 14.2169,9.2693 C14.2169,8.5503 14.7999,7.9673 15.5189,7.9673 C16.2379,7.9673 16.8209,8.5503 16.8209,9.2693" id="Fill-13" fill="#525564"></path>
                </g>
                <g id="map-line-3" opacity="0" transform="translate(83.000000, 26.000000)" fill="#928F9D">
                    <path d="M1.9385,30.3318 C0.8585,30.1118 0.1585,29.0518 0.3785,27.9718 C0.5985,26.8818 1.6585,26.1918 2.7385,26.4118 C3.8185,26.6318 4.5185,27.6918 4.2985,28.7718 C4.1085,29.7218 3.2685,30.3718 2.3385,30.3718 C2.2085,30.3718 2.0785,30.3618 1.9385,30.3318" id="Fill-35"></path>
                    <path d="M3.7183,23.1517 C2.6883,22.7517 2.1883,21.5917 2.5983,20.5617 C2.9983,19.5317 4.1583,19.0317 5.1883,19.4417 C6.2183,19.8417 6.7183,21.0117 6.3083,22.0317 C5.9983,22.8217 5.2483,23.3017 4.4583,23.3017 C4.2083,23.3017 3.9583,23.2517 3.7183,23.1517" id="Fill-37"></path>
                    <path d="M6.7183,16.4017 C5.7783,15.8117 5.4983,14.5817 6.0983,13.6417 C6.6783,12.7117 7.9183,12.4317 8.8483,13.0217 C9.7883,13.6117 10.0683,14.8417 9.4783,15.7817 C9.0983,16.3817 8.4483,16.7117 7.7783,16.7117 C7.4183,16.7117 7.0483,16.6117 6.7183,16.4017" id="Fill-39"></path>
                    <path d="M10.9483,10.3421 C10.1683,9.5621 10.1683,8.3021 10.9583,7.5221 C11.7383,6.7421 12.9983,6.7421 13.7783,7.5221 C14.5583,8.3021 14.5583,9.5721 13.7783,10.3521 C13.3883,10.7421 12.8783,10.9321 12.3683,10.9321 C11.8483,10.9321 11.3383,10.7421 10.9483,10.3421" id="Fill-41"></path>
                    <path d="M16.4883,5.452 C15.9683,4.482 16.3283,3.272 17.2983,2.752 C18.2683,2.222 19.4883,2.592 20.0083,3.562 C20.5283,4.532 20.1683,5.752 19.1983,6.272 C18.8983,6.432 18.5683,6.512 18.2483,6.512 C17.5383,6.512 16.8483,6.132 16.4883,5.452" id="Fill-43"></path>
                    <path d="M23.2383,2.4817 C23.0883,1.3817 23.8483,0.3717 24.9383,0.2217 C26.0283,0.0617 27.0383,0.8217 27.1983,1.9117 C27.3583,3.0117 26.5983,4.0217 25.4983,4.1717 L25.4983,4.1817 C25.4083,4.1917 25.3083,4.2017 25.2183,4.2017 C24.2383,4.2017 23.3783,3.4817 23.2383,2.4817" id="Fill-45"></path>
                </g>
                <g id="map-bubble-2" opacity="0" transform="translate(32.000000, 4.000000)">
                    <path d="M20.4444,14.4275 L6.2924,14.4275 C3.1754,14.4275 0.6394,11.8915 0.6394,8.7755 L0.6394,5.7025 C0.6394,2.5855 3.1754,0.0505 6.2924,0.0505 L14.7924,0.0505 C17.9084,0.0505 20.4444,2.5855 20.4444,5.7025 L20.4444,14.4275 Z" id="Fill-15" fill="#97C0CE"></path>
                    <path d="M6.2921,2.0501 C4.2781,2.0501 2.6401,3.6891 2.6401,5.7021 L2.6401,8.7751 C2.6401,10.7891 4.2781,12.4271 6.2921,12.4271 L18.4441,12.4271 L18.4441,5.7021 C18.4441,3.6891 16.8061,2.0501 14.7921,2.0501 L6.2921,2.0501 Z" id="Fill-17" fill="#FFFFFF"></path>
                    <path d="M8.2667,8.9895 C8.2667,9.7085 7.6837,10.2915 6.9647,10.2915 C6.2457,10.2915 5.6627,9.7085 5.6627,8.9895 C5.6627,8.2705 6.2457,7.6875 6.9647,7.6875 C7.6837,7.6875 8.2667,8.2705 8.2667,8.9895" id="Fill-19" fill="#525564"></path>
                    <path d="M12.5811,8.9895 C12.5811,9.7085 11.9981,10.2915 11.2791,10.2915 C10.5601,10.2915 9.9771,9.7085 9.9771,8.9895 C9.9771,8.2705 10.5601,7.6875 11.2791,7.6875 C11.9981,7.6875 12.5811,8.2705 12.5811,8.9895" id="Fill-21" fill="#525564"></path>
                    <path d="M16.8961,8.9895 C16.8961,9.7085 16.3131,10.2915 15.5941,10.2915 C14.8751,10.2915 14.2921,9.7085 14.2921,8.9895 C14.2921,8.2705 14.8751,7.6875 15.5941,7.6875 C16.3131,7.6875 16.8961,8.2705 16.8961,8.9895" id="Fill-23" fill="#525564"></path>
                </g>
                <g id="map-line-2" opacity="0" transform="translate(58.000000, 0.000000)" fill="#928F9D">
                    <path d="M26.9586,56.6517 C25.8486,56.6217 24.9786,55.7017 25.0086,54.6017 C25.0386,53.5017 25.9586,52.6317 27.0586,52.6617 C28.1686,52.6817 29.0386,53.6017 29.0086,54.7117 C28.9786,55.7917 28.0886,56.6517 27.0186,56.6517 L26.9586,56.6517 Z" id="Fill-51"></path>
                    <path d="M24.9786,47.6419 C24.9486,46.5419 25.8086,45.6119 26.9186,45.5819 C28.0186,45.5419 28.9386,46.4019 28.9786,47.5119 C29.0186,48.6119 28.1486,49.5419 27.0486,49.5719 L26.9786,49.5719 C25.9086,49.5719 25.0186,48.7219 24.9786,47.6419" id="Fill-53"></path>
                    <path d="M24.5381,40.702 C24.4281,39.602 25.2381,38.622 26.3381,38.522 C27.4381,38.412 28.4081,39.222 28.5181,40.322 C28.6181,41.422 27.8181,42.392 26.7181,42.502 C26.6481,42.512 26.5881,42.512 26.5281,42.512 C25.5081,42.512 24.6381,41.732 24.5381,40.702" id="Fill-55"></path>
                    <path d="M23.6382,33.8118 C23.4582,32.7218 24.1982,31.7018 25.2882,31.5118 C26.3782,31.3318 27.4082,32.0718 27.5882,33.1618 C27.7682,34.2518 27.0282,35.2818 25.9382,35.4618 C25.8282,35.4818 25.7182,35.4918 25.6182,35.4918 C24.6482,35.4918 23.8082,34.7918 23.6382,33.8118" id="Fill-57"></path>
                    <path d="M22.2286,27.052 C21.9586,25.982 22.5986,24.892 23.6786,24.622 C24.7486,24.342 25.8386,24.992 26.1086,26.062 C26.3786,27.132 25.7286,28.222 24.6586,28.492 C24.4986,28.532 24.3286,28.552 24.1686,28.552 C23.2786,28.552 22.4586,27.952 22.2286,27.052" id="Fill-59"></path>
                    <path d="M20.1885,20.512 C19.7885,19.482 20.3085,18.322 21.3485,17.932 C22.3785,17.542 23.5285,18.062 23.9285,19.092 C24.3185,20.122 23.7985,21.282 22.7685,21.672 C22.5285,21.762 22.2885,21.802 22.0585,21.802 C21.2485,21.802 20.4885,21.312 20.1885,20.512" id="Fill-61"></path>
                    <path d="M17.3184,14.4119 C16.7584,13.4519 17.0884,12.2319 18.0384,11.6719 C18.9984,11.1219 20.2184,11.4419 20.7784,12.4019 C21.3284,13.3519 21.0084,14.5719 20.0484,15.1319 C19.7384,15.3119 19.3884,15.4019 19.0484,15.4019 C18.3584,15.4019 17.6884,15.0519 17.3184,14.4119" id="Fill-63"></path>
                    <path d="M13.3785,9.1819 C12.5985,8.4019 12.6085,7.1319 13.3885,6.3519 C14.1685,5.5719 15.4285,5.5719 16.2085,6.3619 C16.9985,7.1419 16.9985,8.4019 16.2085,9.1919 C15.8185,9.5819 15.3085,9.7719 14.7985,9.7719 C14.2885,9.7719 13.7685,9.5719 13.3785,9.1819" id="Fill-65"></path>
                    <path d="M8.2383,5.6321 C7.2183,5.2021 6.7483,4.0221 7.1783,3.0121 C7.6083,1.9921 8.7783,1.5121 9.7983,1.9521 C10.8183,2.3821 11.2883,3.5521 10.8583,4.5721 C10.5383,5.3321 9.7983,5.7921 9.0183,5.7921 C8.7583,5.7921 8.4883,5.7421 8.2383,5.6321" id="Fill-67"></path>
                    <path d="M0.1382,2.512 C0.1182,1.402 0.9982,0.502 2.1082,0.482 C3.2082,0.462 4.1182,1.352 4.1382,2.452 C4.1482,3.552 3.2682,4.462 2.1682,4.482 L2.1382,4.482 C1.0382,4.482 0.1482,3.602 0.1382,2.512" id="Fill-69"></path>
                </g>
                <g id="map-bubble-1" opacity="0" transform="translate(0.000000, 58.000000)">
                    <path d="M24.5533,17.3216 L7.5573,17.3216 C3.8863,17.3216 0.8993,14.3346 0.8993,10.6636 L0.8993,6.9256 C0.8993,3.2546 3.8863,0.2676 7.5573,0.2676 L17.8953,0.2676 C21.5663,0.2676 24.5533,3.2546 24.5533,6.9256 L24.5533,17.3216 Z" id="Fill-25" fill="#97C0CE"></path>
                    <path d="M7.5572,2.2679 C4.9892,2.2679 2.8992,4.3579 2.8992,6.9259 L2.8992,10.6639 C2.8992,13.2319 4.9892,15.3219 7.5572,15.3219 L22.5532,15.3219 L22.5532,6.9259 C22.5532,4.3579 20.4632,2.2679 17.8952,2.2679 L7.5572,2.2679 Z" id="Fill-27" fill="#FFFFFF"></path>
                    <path d="M9.9586,10.9246 C9.9586,11.7996 9.2496,12.5076 8.3756,12.5076 C7.5006,12.5076 6.7916,11.7996 6.7916,10.9246 C6.7916,10.0496 7.5006,9.3416 8.3756,9.3416 C9.2496,9.3416 9.9586,10.0496 9.9586,10.9246" id="Fill-29" fill="#525564"></path>
                    <path d="M15.2066,10.9246 C15.2066,11.7996 14.4976,12.5076 13.6236,12.5076 C12.7486,12.5076 12.0396,11.7996 12.0396,10.9246 C12.0396,10.0496 12.7486,9.3416 13.6236,9.3416 C14.4976,9.3416 15.2066,10.0496 15.2066,10.9246" id="Fill-31" fill="#525564"></path>
                    <path d="M20.4542,10.9246 C20.4542,11.7996 19.7452,12.5076 18.8712,12.5076 C17.9962,12.5076 17.2872,11.7996 17.2872,10.9246 C17.2872,10.0496 17.9962,9.3416 18.8712,9.3416 C19.7452,9.3416 20.4542,10.0496 20.4542,10.9246" id="Fill-33" fill="#525564"></path>
                </g>
                <g id="map-line-1" opacity="0" transform="translate(27.000000, 42.000000)" fill="#928F9D">
                    <path d="M52.0181,15.5418 C51.2481,14.7518 51.2681,13.4818 52.0581,12.7118 C52.8481,11.9418 54.1181,11.9618 54.8881,12.7518 C55.6581,13.5418 55.6381,14.8118 54.8481,15.5818 C54.4581,15.9618 53.9581,16.1418 53.4481,16.1418 C52.9281,16.1418 52.4081,15.9418 52.0181,15.5418" id="Fill-75"></path>
                    <path d="M46.9986,11.3919 C46.0786,10.7819 45.8286,9.5419 46.4386,8.6219 C47.0486,7.7019 48.2886,7.4519 49.2086,8.0619 C50.1286,8.6719 50.3786,9.9119 49.7686,10.8319 C49.3786,11.4119 48.7486,11.7319 48.0986,11.7319 C47.7186,11.7319 47.3386,11.6219 46.9986,11.3919" id="Fill-77"></path>
                    <path d="M0.6583,10.8519 C-0.0317,9.9919 0.1083,8.7319 0.9683,8.0419 C1.8283,7.3519 3.0883,7.4919 3.7783,8.3519 C4.4683,9.2119 4.3383,10.4719 3.4683,11.1619 C3.0983,11.4619 2.6583,11.6019 2.2183,11.6019 C1.6383,11.6019 1.0583,11.3419 0.6583,10.8519" id="Fill-79"></path>
                    <path d="M41.1983,8.2718 C40.1783,7.8318 39.7083,6.6518 40.1483,5.6418 C40.5883,4.6318 41.7683,4.1618 42.7783,4.6018 C43.7883,5.0318 44.2583,6.2118 43.8283,7.2218 C43.4983,7.9818 42.7583,8.4318 41.9883,8.4318 C41.7183,8.4318 41.4483,8.3818 41.1983,8.2718" id="Fill-81"></path>
                    <path d="M6.3282,6.8221 C5.8682,5.8121 6.3082,4.6321 7.3182,4.1721 C8.3182,3.7121 9.5082,4.1621 9.9682,5.1621 C10.4182,6.1721 9.9782,7.3521 8.9682,7.8121 C8.7082,7.9321 8.4182,7.9921 8.1482,7.9921 C7.3882,7.9921 6.6582,7.5521 6.3282,6.8221" id="Fill-83"></path>
                    <path d="M34.9185,6.1419 C33.8485,5.8719 33.1985,4.7819 33.4685,3.7119 C33.7385,2.6419 34.8285,1.9919 35.8985,2.2619 C36.9685,2.5319 37.6185,3.6219 37.3485,4.6919 C37.1185,5.6019 36.2985,6.2019 35.4085,6.2019 C35.2485,6.2019 35.0785,6.1819 34.9185,6.1419" id="Fill-85"></path>
                    <path d="M12.7784,4.2317 C12.5384,3.1617 13.2084,2.0817 14.2884,1.8417 C15.3584,1.5917 16.4384,2.2717 16.6784,3.3417 C16.9284,4.4217 16.2484,5.4917 15.1784,5.7417 C15.0284,5.7717 14.8784,5.7917 14.7284,5.7917 C13.8184,5.7917 12.9884,5.1617 12.7784,4.2317" id="Fill-87"></path>
                    <path d="M28.3585,4.992 C27.2585,4.882 26.4585,3.902 26.5685,2.802 C26.6785,1.702 27.6585,0.902 28.7585,1.012 C29.8585,1.122 30.6585,2.102 30.5485,3.202 C30.4485,4.232 29.5785,5.002 28.5685,5.002 C28.4985,5.002 28.4285,5.002 28.3585,4.992" id="Fill-89"></path>
                    <path d="M19.6182,2.952 C19.5582,1.842 20.3982,0.902 21.4982,0.842 C22.6082,0.782 23.5482,1.632 23.6082,2.732 C23.6682,3.832 22.8182,4.782 21.7182,4.832 C21.6782,4.842 21.6482,4.842 21.6082,4.842 C20.5582,4.842 19.6682,4.012 19.6182,2.952" id="Fill-91"></path>
                </g>
                <g id="map-pin" transform="translate(77.000000, 35.000000)">
                    <path d="M10.9853248,27.2945172 C10.8229033,28.943385 9.35351187,30.1477424 7.7055518,29.9853251 C6.05664191,29.8219581 4.8522538,28.3535539 5.01467523,26.704686 C5.17804649,25.056768 6.64648813,23.8514608 8.2944482,24.0148279 C9.94335809,24.1772452 11.1477462,25.6465992 10.9853248,27.2945172" id="map-origin-point" fill="#928F9D"></path>
                    <path d="M8,0 C3.58892681,0 0,3.49311024 0,7.78641732 C0,9.15255906 0.371128808,10.4990157 1.07192517,11.6791339 L1.76766528,12.9222441 L1.77676653,12.9379921 C4.19264316,16.9222441 6.12311971,21.1427165 7.51156617,25.4793307 L7.99898875,27 L8.48540008,25.4793307 C9.9213753,20.9970472 11.8306156,16.7765748 14.1575022,12.9389764 L14.9270636,11.6801181 C15.6288712,10.4990157 16,9.15354331 16,7.78641732 C16,3.49311024 12.4110732,0 8,0" id="Fill-97" fill="#CD6666"></path>
                    <path d="M8,10 C6.89440277,10 6,9.10470147 6,8.00057687 C6,6.89529853 6.89440277,6 8,6 C9.10444316,6 10,6.89529853 10,8.00057687 C10,9.10470147 9.10444316,10 8,10" id="Fill-99" fill="#FFFFFF"></path>
                </g>
            </g>
        </g>
    </g>
</svg>