<?xml version="1.0" encoding="UTF-8"?>
<svg id="phone-links-graphic" viewBox="0 0 139 79" version="1.1" xmlns="http://www.w3.org/2000/svg" xmlns:xlink="http://www.w3.org/1999/xlink">
    <g id="Page-1" stroke="none" stroke-width="1" fill="none" fill-rule="evenodd">
        <g id="phone-links">
            <polygon id="Fill-1" fill="#DCDDDE" points="133 9 133 72 8 72 8 79 139 79 139 9"></polygon>
            <path d="M0,72 L133,72 L133,-4.26325641e-14 L0,-4.26325641e-14 L0,72 Z M2,70 L131,70 L131,2 L2,2 L2,70 Z" id="Fill-2" fill="#525564"></path>
            <polygon id="Fill-3" fill="#FFFFFF" points="2 70 131 70 131 2 2 2"></polygon>
            <g id="phone-links-content" transform="translate(13.000000, 15.000000)" fill="#928F9D">
                <polygon id="Fill-4" points="0 6 40 6 40 0 0 0"></polygon>
                <polygon id="Fill-5" points="0 19 107 19 107 13 0 13"></polygon>
                <polygon id="Fill-6" points="0 44 107 44 107 38 0 38"></polygon>
                <polygon id="Fill-12" points="92 25 92 31 107 31 107 25"></polygon>
                <polygon id="Fill-7" points="0 31 31 31 31 25 0 25"></polygon>
                <g id="phone-number" transform="translate(34.000000, 25.000000)">
                    <g id="phone">
                        <polygon id="Fill-8" points="1 6 14 6 14 0 1 0"></polygon>
                        <polygon id="Fill-9" points="16 6 34 6 34 0 16 0"></polygon>
                        <polygon id="Fill-10" points="37 6 55 6 55 0 37 0"></polygon>
                    </g>
                </g>
            </g>
            <g id="phone-number-active" opacity="0" transform="translate(47.000000, 38.000000)">
                <g id="phone-number-link" transform="translate(0.000000, 2.000000)">
                    <g id="phone-link" fill="#CD6666">
                        <polygon id="Fill-8" points="1 6 14 6 14 5.55111512e-17 1 5.55111512e-17"></polygon>
                        <polygon id="Fill-9" points="16 6 34 6 34 5.55111512e-17 16 5.55111512e-17"></polygon>
                        <polygon id="Fill-10" points="37 6 55 6 55 5.55111512e-17 37 5.55111512e-17"></polygon>
                    </g>
                    <polygon id="phone-underline" fill="#96C0CE" points="1 10 55 10 55 8 1 8"></polygon>
                </g>
                <g id="e-logo" transform="translate(58.000000, 0.263800)">
                    <path d="M9.224,10.1228 L2.335,10.1228 C1.122,10.1228 0.136,9.1368 0.136,7.9238 L0.136,2.4108 C0.136,1.1978 1.122,0.2118 2.335,0.2118 L9.224,0.2118 C10.437,0.2118 11.423,1.1978 11.423,2.4108 L11.423,7.9238 C11.423,9.1368 10.437,10.1228 9.224,10.1228 Z" id="Fill-14" stroke="#DCDDDE" fill="#FFFFFF"></path>
                    <path d="M4.6685,6.7577 L2.5225,6.7577 L2.5225,4.6717 C2.5225,4.2337 2.7935,3.8457 3.1835,3.6807 C3.1855,3.5337 3.2085,3.3917 3.2505,3.2577 C2.6105,3.4157 2.1425,4.0017 2.1425,4.6717 L2.1425,7.1387 L4.6935,7.1387 C4.6825,7.0777 4.6755,7.0167 4.6735,6.9527 L4.6685,6.7577 Z" id="Fill-16" fill="#525564"></path>
                    <path d="M4.6685,6.7577 L2.5225,6.7577 L2.5225,4.6717 C2.5225,4.2337 2.7935,3.8457 3.1835,3.6807 C3.1855,3.5337 3.2085,3.3917 3.2505,3.2577 C2.6105,3.4157 2.1425,4.0017 2.1425,4.6717 L2.1425,7.1387 L4.6935,7.1387 C4.6825,7.0777 4.6755,7.0167 4.6735,6.9527 L4.6685,6.7577 Z" id="Stroke-18" stroke="#525564" stroke-width="0.15"></path>
                    <path d="M8.6309,4.9247 C8.6029,5.0507 8.5589,5.1707 8.5009,5.2817 C8.8239,5.3907 9.0359,5.7027 9.0359,6.0897 L9.0359,7.7707 L5.9019,7.7707 C5.4379,7.7707 5.0659,7.4067 5.0539,6.9437 L5.0489,6.7577 L4.6689,6.7577 L4.6729,6.9527 C4.6749,7.0167 4.6829,7.0777 4.6929,7.1387 C4.7949,7.7187 5.2939,8.1507 5.9019,8.1507 L9.4169,8.1507 L9.4169,6.0897 C9.4169,5.5367 9.1059,5.0857 8.6309,4.9247" id="Fill-20" fill="#928F9D"></path>
                    <path d="M8.6309,4.9247 C8.6029,5.0507 8.5589,5.1707 8.5009,5.2817 C8.8239,5.3907 9.0359,5.7027 9.0359,6.0897 L9.0359,7.7707 L5.9019,7.7707 C5.4379,7.7707 5.0659,7.4067 5.0539,6.9437 L5.0489,6.7577 L4.6689,6.7577 L4.6729,6.9527 C4.6749,7.0167 4.6829,7.0777 4.6929,7.1387 C4.7949,7.7187 5.2939,8.1507 5.9019,8.1507 L9.4169,8.1507 L9.4169,6.0897 C9.4169,5.5367 9.1059,5.0857 8.6309,4.9247 Z" id="Stroke-22" stroke="#928F9D" stroke-width="0.15"></path>
                    <path d="M7.144,5.7333 L3.563,5.7333 L3.563,3.7083 C3.563,3.6293 3.571,3.5523 3.586,3.4783 C3.587,3.4713 3.59,3.4643 3.591,3.4583 C3.706,2.9473 4.162,2.5643 4.706,2.5643 L7.144,2.5643 C7.775,2.5643 8.288,3.0783 8.288,3.7083 L8.288,4.5893 C8.288,5.2203 7.775,5.7333 7.144,5.7333 M8.668,4.5893 L8.668,3.7083 C8.668,2.8683 7.984,2.1843 7.144,2.1843 L4.706,2.1843 C4.023,2.1843 3.443,2.6363 3.25,3.2573 C3.208,3.3913 3.186,3.5343 3.183,3.6803 C3.183,3.6903 3.182,3.6993 3.182,3.7083 L3.182,6.1143 L7.144,6.1143 C7.735,6.1143 8.248,5.7753 8.501,5.2823 C8.559,5.1713 8.602,5.0503 8.631,4.9243 C8.655,4.8173 8.668,4.7053 8.668,4.5893" id="Fill-24" fill="#CD6666"></path>
                    <path d="M7.144,5.7333 L3.563,5.7333 L3.563,3.7083 C3.563,3.6293 3.571,3.5523 3.586,3.4783 C3.587,3.4713 3.59,3.4643 3.591,3.4583 C3.706,2.9473 4.162,2.5643 4.706,2.5643 L7.144,2.5643 C7.775,2.5643 8.288,3.0783 8.288,3.7083 L8.288,4.5893 C8.288,5.2203 7.775,5.7333 7.144,5.7333 Z M8.668,4.5893 L8.668,3.7083 C8.668,2.8683 7.984,2.1843 7.144,2.1843 L4.706,2.1843 C4.023,2.1843 3.443,2.6363 3.25,3.2573 C3.208,3.3913 3.186,3.5343 3.183,3.6803 C3.183,3.6903 3.182,3.6993 3.182,3.7083 L3.182,6.1143 L7.144,6.1143 C7.735,6.1143 8.248,5.7753 8.501,5.2823 C8.559,5.1713 8.602,5.0503 8.631,4.9243 C8.655,4.8173 8.668,4.7053 8.668,4.5893 Z" id="Stroke-26" stroke="#CD6666" stroke-width="0.15"></path>
                </g>
            </g>
        </g>
    </g>
</svg>