<svg height="250" viewBox="0 0 250 250" width="250" xmlns="http://www.w3.org/2000/svg"><g fill="none" fill-rule="evenodd"><g fill-rule="nonzero"><circle cx="125" cy="125" fill="#525564" r="125"/><circle cx="125.5" cy="125.5" fill="#fff" r="119.5"/><path d="m124.626544 183.527195c-11.956988 0-23.590652-4.604261-33.132742-12.754645-23.610079 9.560753-39.493802 27.136873-39.493802 45.423862 0 .908279.038094 1.814855.113943 2.719303 20.553507 16.390462 46.020711 25.470267 72.886057 25.470267 26.508524 0 51.659523-8.839123 72.079402-24.832804.115576-1.115775.173686-2.234969.173686-3.356766 0-18.286989-15.883723-35.863109-39.493803-45.423862-9.542089 8.150384-21.175754 12.754645-33.132741 12.754645zm33.533614-17.973065c26.112989 10.093905 44.09293 29.590345 44.09293 50.642282 0 1.676726-.112502 3.347979-.335679 5.010563l-.13367.995791-.785591.62635c-21.439248 17.093469-47.998833 26.556866-75.998148 26.556866-28.376765 0-55.270271-9.721368-76.845565-27.238682l-.791402-.642551-.116439-1.012734c-.164021-1.426593-.246594-2.859128-.246594-4.295603 0-21.051937 17.97994-40.548377 44.09293-50.642282l1.433538-.55413 1.141616 1.028982c8.865271 7.9906 19.78974 12.498213 30.95846 12.498213 11.168719 0 22.093189-4.507613 30.958459-12.498213l1.141617-1.028982z" fill="#525564"/><path d="m124.995426 169.969045c-22.733043 0-42.495426-21.072246-42.495426-44.76958 0-23.519242 19.598256-43.699465 42.495426-43.699465 22.897171 0 42.495426 20.180223 42.495426 43.699465 0 23.697334-19.762383 44.76958-42.495426 44.76958zm0-5c19.897345 0 37.495426-18.764493 37.495426-39.76958 0-20.790032-17.392952-38.699465-37.495426-38.699465-20.102473 0-37.495426 17.909433-37.495426 38.699465 0 21.005087 17.598081 39.76958 37.495426 39.76958z" fill="#525564"/><path d="m175 53h30c3.865993 0 7 3.134007 7 7v39c0 3.865993-3.134007 7-7 7h-7.136719l-15.707031 14-.261719-14h-6.894531c-3.865993 0-7-3.134007-7-7v-39c0-3.865993 3.134007-7 7-7z" fill="#c25b56"/><path d="m33 93h30c3.865993 0 7 3.134007 7 7v49c0 3.865993-3.134007 7-7 7h-7.136719l-15.707031 14-.261719-14h-6.894531c-3.865993 0-7-3.134007-7-7v-49c0-3.865993 3.134007-7 7-7z" fill="#96c0ce" transform="matrix(-1 0 0 1 96 0)"/><path d="m175 58h30c1.104569 0 2 .895431 2 2v39c0 1.104569-.895431 2-2 2h-9.136719l-8.707031 9-.261719-9h-11.894531c-1.104569 0-2-.895431-2-2v-39c0-1.104569.895431-2 2-2z" fill="#fff"/><path d="m33 98h30c1.104569 0 2 .895431 2 2v49c0 1.104569-.895431 2-2 2h-9.136719l-8.707031 9-.261719-9h-11.894531c-1.104569 0-2-.895431-2-2v-49c0-1.104569.895431-2 2-2z" fill="#fff" transform="matrix(-1 0 0 1 96 0)"/><path d="m187.112935 83.353747c0-.43198.028172-.845172.084517-1.239588.056345-.394417.164339-.774741.323983-1.140985.159645-.366244.389718-.709006.690226-1.028295.300507-.319289.694918-.610402 1.183243-.873346.244163-.131472.568143-.305201.97195-.521191s.798218-.464844 1.183243-.74657c.385026-.281726.718397-.605706 1.000123-.97195s.422587-.77474.422587-1.225502c0-.619797-.225378-1.10342-.676139-1.450882-.450762-.347462-.967252-.52119-1.549486-.52119-.375635 0-.709005.07043-1.000122.211293s-.554057.309896-.788829.507104c-.234772.197209-.436672.417891-.605708.662053-.169036.244163-.319287.460149-.450759.647967l-2.901764-2.028417c.488325-1.145686 1.26306-2.037805 2.324228-2.676384s2.258486-.957864 3.591989-.957864c.713706 0 1.427401.103298 2.141107.309897s1.352275.535275 1.915727.986036c.563453.450762 1.023598 1.032987 1.380451 1.746693s.535277 1.577653.535277 2.591866c0 1.070559-.220682 1.967374-.662053 2.69047-.441371.723097-1.094026 1.356971-1.957986 1.901642-.394417.262944-.793522.497712-1.19733.704311-.403807.206599-.774741.422586-1.112812.647967s-.610402.47893-.817001.760656-.309897.619792-.309897 1.014209zm.084517 6.902253v-4.225869h3.690593v4.225869z" fill="#c25b56"/><g fill="#96c0ce"><rect height="3" rx="1.5" width="22" x="37" y="110"/><rect height="3" rx="1.5" width="22" x="37" y="122"/><rect height="3" rx="1.5" width="22" x="37" y="134"/></g></g><path d="m106 216.246094 12.976562 13.570312 24.644532-33.816406" stroke="#78d284" stroke-width="6"/></g></svg>