<?xml version="1.0" encoding="UTF-8"?>
<svg viewBox="0 0 610 410" version="1.1" xmlns="http://www.w3.org/2000/svg" xmlns:xlink="http://www.w3.org/1999/xlink">
    <g id="Page-1" stroke="none" stroke-width="1" fill="none" fill-rule="evenodd">
        <g id="recruiter-chat">
            <g id="bg">
                <path d="M34.6286,409.6571 C13.8546,409.6561 0.3356,396.2391 0.3336,375.5711 C0.3246,261.9841 0.3256,148.3981 0.3326,34.8111 C0.3336,13.8731 13.9626,0.3321 35.0246,0.3321 C214.8196,0.3271 394.6156,0.3281 574.4116,0.3311 C595.8236,0.3311 609.3126,13.8051 609.3126,35.1971 C609.3176,148.3871 609.3166,261.5771 609.3136,374.7671 C609.3126,396.3521 596.0746,409.6571 574.6096,409.6581 C484.6136,409.6601 394.6166,409.6591 304.6196,409.6591 C214.6226,409.6591 124.6256,409.6611 34.6286,409.6571 Z" id="Path" fill="#545767"></path>
                <path d="M183.038764,404.7311 C183.188226,396.752249 187.1406,386.8981 189.6276,379.8251 C201.1056,347.1891 220.7916,321.8231 252.9986,307.4261 C256.7996,305.7271 256.6546,303.9721 254.7176,300.8041 C246.9436,288.0861 240.8696,274.6481 237.6636,259.9701 C233.3906,240.4091 233.6786,221.3021 243.6496,203.4041 C260.8676,172.4971 297.7756,159.0201 331.8046,170.8671 C363.1676,181.7861 383.1566,216.1511 378.0036,250.0881 C375.0136,269.7901 367.9536,287.8461 356.3526,304.3881 C362.6336,308.1681 368.9366,311.5111 374.7616,315.5451 C404.4276,336.0911 424.0866,363.1911 428.5816,399.7851 C429.1666,404.5501 431.3796,404.8041 435.1626,404.7961 C481.7456,404.7041 528.3296,404.7431 574.9126,404.7331 C592.5756,404.7291 604.3616,393.0451 604.3666,375.3331 C604.3966,261.7481 604.3966,148.1641 604.3656,34.5801 C604.3606,17.3441 592.4126,5.2861 575.2666,5.2821 C394.8796,5.2501 214.4926,5.2461 34.1056,5.2891 C17.3126,5.2931 5.2926,17.4001 5.2866,34.2461 C5.2416,148.0271 5.2446,261.8091 5.2826,375.5901 C5.2886,392.9261 17.1766,404.7211 34.3956,404.7311 C64.9226,404.7491 95.4496,404.7361 125.9766,404.7361 L183.038764,404.7311 Z" id="Path" fill="#FFFFFF"></path>
                <path d="M307.127,404.736 C272.835,404.736 238.543,404.664 204.252,404.827 C199.879,404.847 198.739,404.33 199.74,399.466 C207.098,363.727 227.054,337.888 259.438,321.242 C265.584,318.083 270.029,319.205 275.04,323.259 C285.305,331.569 296.726,337.048 310.485,335.74 C320.703,334.768 329.807,330.627 337.328,324.147 C344.582,317.898 350.721,318.916 358.219,323.185 C386.967,339.552 405.185,363.712 413.33,395.68 C415.649,404.781 415.827,404.736 406.435,404.736 L307.127,404.736 Z" id="Fill-8" fill="#FDFDFD"></path>
                <path d="M342.5236,295.8961 C337.9816,302.0521 332.8296,307.8661 326.7646,312.7441 C313.6596,323.2851 299.9046,323.8631 286.7056,313.3361 C266.1006,296.9051 255.0656,274.9921 251.1066,249.1341 C248.7686,233.8601 250.3726,219.5921 259.6046,206.7221 C274.7366,185.6271 300.1556,176.7951 323.9606,184.4071 C347.8446,192.0421 363.1076,213.7471 363.1016,244.0621 C362.3956,260.9421 354.7326,279.3481 342.5236,295.8961 Z" id="Fill-10" fill="#FDFDFD"></path>
                <g id="small-icon" transform="translate(344.000000, 359.000000)" fill-rule="nonzero">
                    <g id="logo-inline">
                        <path d="M12.1402985,22.1823636 L1.82835821,22.1823636 L1.82835821,12.064 C1.84007228,9.96594695 3.08785326,8.07625585 5.00186567,7.25790909 C5.01270586,6.56301396 5.12176606,5.8732386 5.32574627,5.20945455 C2.21092951,6.00321947 0.0212427589,8.82147378 0,12.064 L0,24.0278182 L12.2578358,24.0278182 C12.2050463,23.7308336 12.1736209,23.4303821 12.163806,23.1288182 L12.1402985,22.1823636 Z" id="Shape" fill="#525564"></path>
                        <path d="M31.1787313,13.2925455 C31.0447378,13.8945435 30.8367854,14.4772952 30.5597015,15.0272727 C32.1268657,15.5545455 33.1298507,17.0678182 33.1298507,18.9422727 L33.1298507,27.0912727 L18.0615672,27.0912727 C15.8468894,27.1018006 14.0337646,25.3163294 13.9895522,23.0813636 L13.9686567,22.1823636 L12.1402985,22.1823636 L12.163806,23.1288182 C12.1736209,23.4303821 12.2050463,23.7308336 12.2578358,24.0278182 C12.7461229,26.8745504 15.1992787,28.9494773 18.0615672,28.9367273 L34.9529851,28.9367857 L34.9529851,18.9422727 C34.9529851,16.2610909 33.4615672,14.0755455 31.1787313,13.2925455 Z" id="Shape" fill="#928F9D"></path>
                        <path d="M31.3589552,11.6659091 L31.3589552,7.38181818 C31.3488781,3.30299802 28.0708969,0.00144041104 24.0298507,0 L12.3231343,0 C9.11268109,0.00420741548 6.27779404,2.11473996 5.32574627,5.20945455 C5.12176606,5.8732386 5.01270586,6.56301396 5.00186567,7.25790909 L5.00186567,19.0582727 L24.0298507,19.0582727 C27.4514795,19.052043 30.4149087,16.6602253 31.1735075,13.2925455 C31.293784,12.7587604 31.3559682,12.2133172 31.3589552,11.6659091 Z M24.0455224,17.2022727 L6.82761194,17.2022727 L6.82761194,7.38181818 C6.8264151,7.00628271 6.86405686,6.6316468 6.93992537,6.264 C6.93992537,6.23236364 6.95559701,6.20072727 6.96343284,6.16645455 C7.53341665,3.64100829 9.75698357,1.84836505 12.3231343,1.84545455 L24.0298507,1.84545455 C27.0550079,1.85558214 29.5048916,4.3283738 29.5149254,7.38181818 L29.5149254,11.6659091 C29.510629,14.7234709 27.0590736,17.2026632 24.0298507,17.2128182 L24.0455224,17.2022727 Z" id="Shape" fill="#CC6666"></path>
                        <path d="M31.1787313,13.2925455 C31.0447378,13.8945435 30.8367854,14.4772952 30.5597015,15.0272727 C32.1268657,15.5545455 33.1298507,17.0678182 33.1298507,18.9422727 L33.1298507,27.0912727 L18.0615672,27.0912727 C15.8468894,27.1018006 14.0337646,25.3163294 13.9895522,23.0813636 L13.9686567,22.1823636 L12.1402985,22.1823636 L12.163806,23.1288182 C12.1736209,23.4303821 12.2050463,23.7308336 12.2578358,24.0278182 C12.7461229,26.8745504 15.1992787,28.9494773 18.0615672,28.9367273 L34.9529851,28.9367857 L34.9529851,18.9422727 C34.9529851,16.2610909 33.4615672,14.0755455 31.1787313,13.2925455 Z" id="Shape" fill="#928F9D"></path>
                        <path d="M31.3589552,11.6659091 L31.3589552,7.38181818 C31.3488781,3.30299802 28.0708969,0.00144041104 24.0298507,0 L12.3231343,0 C9.11268109,0.00420741548 6.27779404,2.11473996 5.32574627,5.20945455 C5.12176606,5.8732386 5.01270586,6.56301396 5.00186567,7.25790909 L5.00186567,19.0582727 L24.0298507,19.0582727 C27.4514795,19.052043 30.4149087,16.6602253 31.1735075,13.2925455 C31.293784,12.7587604 31.3559682,12.2133172 31.3589552,11.6659091 Z M24.0455224,17.2022727 L6.82761194,17.2022727 L6.82761194,7.38181818 C6.8264151,7.00628271 6.86405686,6.6316468 6.93992537,6.264 C6.93992537,6.23236364 6.95559701,6.20072727 6.96343284,6.16645455 C7.53341665,3.64100829 9.75698357,1.84836505 12.3231343,1.84545455 L24.0298507,1.84545455 C27.0550079,1.85558214 29.5048916,4.3283738 29.5149254,7.38181818 L29.5149254,11.6659091 C29.510629,14.7234709 27.0590736,17.2026632 24.0298507,17.2128182 L24.0455224,17.2022727 Z" id="Shape" fill="#CC6666"></path>
                    </g>
                </g>
            </g>
            <rect id="avatar-mask" fill="#FFFFFF" x="157" y="159" width="297" height="246"></rect>
            <g id="chat-bubble" opacity="0" transform="translate(377.000000, 26.000000)">
                <g id="Group">
                    <path d="M81.8663,148.1183 C103.2673,148.1183 124.6693,148.1613 146.0703,148.1033 C161.8293,148.0613 171.5753,138.2803 171.6023,122.4603 C171.6533,93.5283 171.6573,64.5973 171.6003,35.6653 C171.5703,20.1333 161.4123,9.9633 145.9583,9.9473 C109.2993,9.9113 72.6383,9.9093 35.9783,9.9493 C20.4323,9.9663 10.8053,19.5593 10.7833,35.1093 C10.7303,70.7783 10.8743,106.4483 10.6433,142.1163 C10.6103,147.2793 12.3283,148.2753 17.0683,148.2233 C38.6653,147.9863 60.2663,148.1193 81.8663,148.1183 M78.5873,157.6633 C54.6083,157.6683 30.6283,157.5503 6.6523,157.7713 C2.0123,157.8143 0.6143,156.5833 0.6373,151.8423 C0.8233,113.0023 0.6843,74.1603 0.7703,35.3193 C0.8153,14.6483 14.9353,0.6383 35.5123,0.6253 C72.7683,0.6033 110.0243,0.6013 147.2803,0.6293 C166.5303,0.6443 180.4893,14.0373 180.6373,33.2453 C180.8753,63.7623 180.8473,94.2823 180.6483,124.7993 C180.5223,144.0863 166.9513,157.4683 147.5493,157.6173 C124.5623,157.7933 101.5743,157.6583 78.5873,157.6633" id="Fill-12" fill="#CF6C6E"></path>
                    <path d="M124.5118,127.4625 C130.0418,127.4745 134.8868,122.4755 134.8808,116.7625 C134.8758,110.7605 130.4508,106.3815 124.4008,106.3905 C118.4138,106.3985 113.9838,110.8555 113.9898,116.8625 C113.9948,122.4975 118.9108,127.4505 124.5118,127.4625 M88.5588,106.3905 C82.6138,106.4415 78.0768,111.0365 78.1368,116.9455 C78.1948,122.5435 83.2158,127.4855 88.8198,127.4615 C94.3778,127.4365 99.1558,122.4455 99.1358,116.6855 C99.1158,110.7235 94.6098,106.3375 88.5588,106.3905 M52.7828,106.3915 C46.8358,106.4565 42.2918,111.0935 42.3798,117.0075 C42.4638,122.6035 47.6038,127.5915 53.1378,127.4485 C58.9098,127.2995 63.4928,122.4785 63.4318,116.6215 C63.3668,110.5145 59.0028,106.3225 52.7828,106.3915 M90.1978,85.2045 C106.8478,85.2045 123.4978,85.2065 140.1488,85.2025 C144.3118,85.2015 148.4738,85.2025 152.6358,85.1575 C153.8998,85.1435 155.0508,84.8215 154.9158,83.1675 C154.8168,81.9485 153.9568,81.5595 152.8878,81.5105 C151.8988,81.4645 150.9078,81.4585 149.9158,81.4585 C109.8758,81.4555 69.8348,81.4555 29.7948,81.4575 C28.8038,81.4575 27.8118,81.4445 26.8228,81.4915 C25.5468,81.5505 24.4278,81.8775 24.5158,83.4905 C24.5858,84.7545 25.5578,85.0715 26.5708,85.1375 C27.9528,85.2275 29.3438,85.2015 30.7318,85.2015 C50.5528,85.2055 70.3748,85.2045 90.1978,85.2045 M89.6488,61.1125 C104.8878,61.1125 120.1268,61.1125 135.3658,61.1115 C140.7098,61.1115 146.0538,61.1565 151.3968,61.0775 C152.8138,61.0565 154.9838,61.7015 154.8938,59.1645 C154.8088,56.7445 152.6928,57.5035 151.2638,57.3345 C150.4828,57.2415 149.6818,57.3135 148.8908,57.3135 C109.5058,57.3135 70.1208,57.3115 30.7358,57.3205 C29.1568,57.3205 27.5738,57.3735 25.9998,57.4925 C25.1428,57.5575 24.5758,58.0965 24.5078,59.0085 C24.4198,60.1695 24.9378,60.9205 26.1248,60.9915 C27.7018,61.0865 29.2858,61.1075 30.8668,61.1075 C50.4608,61.1145 70.0548,61.1125 89.6488,61.1125 M89.5738,32.6025 C70.1768,32.6025 50.7808,32.5995 31.3848,32.6075 C29.6058,32.6085 27.8248,32.6455 26.0488,32.7315 C25.1868,32.7745 24.5978,33.2635 24.5088,34.1835 C24.3988,35.3355 24.8868,36.1065 26.0688,36.2255 C27.2448,36.3445 28.4348,36.3765 29.6178,36.3765 C69.7958,36.3835 109.9738,36.3995 150.1518,36.3245 C151.8258,36.3205 154.8328,37.5335 154.8168,34.4705 C154.7998,31.4265 151.8158,32.6675 150.1358,32.6605 C129.9488,32.5715 109.7608,32.6035 89.5738,32.6025 M81.8658,148.1185 C60.2668,148.1195 38.6648,147.9865 17.0688,148.2235 C12.3278,148.2755 10.6108,147.2795 10.6438,142.1155 C10.8738,106.4475 10.7308,70.7775 10.7828,35.1085 C10.8058,19.5595 20.4328,9.9665 35.9788,9.9495 C72.6388,9.9095 109.2988,9.9115 145.9578,9.9475 C161.4118,9.9625 171.5708,20.1325 171.6008,35.6655 C171.6578,64.5965 171.6538,93.5285 171.6028,122.4605 C171.5748,138.2805 161.8288,148.0615 146.0708,148.1035 C124.6688,148.1615 103.2678,148.1185 81.8658,148.1185" id="Fill-14" fill="#FDFCFC"></path>
                    <path d="M89.5733,32.6026 C109.7603,32.6026 129.9483,32.5716 150.1363,32.6606 C151.8153,32.6676 154.8163,32.0746 154.8163,34.4706 C154.8163,36.9086 151.8263,36.3206 150.1513,36.3246 C109.9733,36.3986 69.7963,36.3836 29.6183,36.3766 C28.4343,36.3766 27.2453,36.3446 26.0683,36.2256 C24.8863,36.1066 24.4943,35.6016 24.5093,34.1836 C24.5183,33.2596 25.1863,32.7736 26.0493,32.7316 C27.8253,32.6446 29.6053,32.6086 31.3853,32.6076 C50.7803,32.5996 70.1773,32.6026 89.5733,32.6026" id="Fill-16" fill="#CF6C6E"></path>
                    <path d="M52.7833,106.3912 C59.0033,106.3222 63.3673,110.5152 63.4313,116.6212 C63.4933,122.4782 58.9103,127.3002 53.1373,127.4492 C47.6033,127.5922 42.4643,122.6032 42.3803,117.0082 C42.2923,111.0942 46.8363,106.4562 52.7833,106.3912" id="Fill-18" fill="#CF6C6E"></path>
                    <path d="M88.5587,106.3907 C94.6097,106.3377 99.1157,110.7237 99.1357,116.6857 C99.1557,122.4457 94.3777,127.4357 88.8197,127.4607 C83.2157,127.4857 78.1947,122.5437 78.1367,116.9457 C78.0777,111.0367 82.6137,106.4417 88.5587,106.3907" id="Fill-20" fill="#CF6C6E"></path>
                    <path d="M124.5118,127.4625 C118.9108,127.4505 113.9948,122.4975 113.9898,116.8625 C113.9838,110.8555 118.4138,106.3985 124.4008,106.3905 C130.4508,106.3815 134.8758,110.7605 134.8808,116.7625 C134.8868,122.4755 130.0418,127.4745 124.5118,127.4625" id="Fill-22" fill="#CF6C6E"></path>
                    <path d="M89.5733,81.2276 C109.7603,81.2276 129.9483,81.1966 150.1363,81.2856 C151.8153,81.2926 154.8163,80.6996 154.8163,83.0956 C154.8163,85.5336 151.8263,84.9456 150.1513,84.9496 C109.9733,85.0236 69.7963,85.0086 29.6183,85.0016 C28.4343,85.0016 27.2453,84.9696 26.0683,84.8506 C24.8863,84.7316 24.4943,84.2266 24.5093,82.8086 C24.5183,81.8846 25.1863,81.3986 26.0493,81.3566 C27.8253,81.2696 29.6053,81.2336 31.3853,81.2326 C50.7803,81.2246 70.1773,81.2276 89.5733,81.2276" id="Fill-24" fill="#CF6C6E"></path>
                    <path d="M89.5733,57.6026 C109.7603,57.6026 129.9483,57.5716 150.1363,57.6606 C151.8153,57.6676 154.8163,57.0746 154.8163,59.4706 C154.8163,61.9086 151.8263,61.3206 150.1513,61.3246 C109.9733,61.3986 69.7963,61.3836 29.6183,61.3766 C28.4343,61.3766 27.2453,61.3446 26.0683,61.2256 C24.8863,61.1066 24.4943,60.6016 24.5093,59.1836 C24.5183,58.2596 25.1863,57.7736 26.0493,57.7316 C27.8253,57.6446 29.6053,57.6086 31.3853,57.6076 C50.7803,57.5996 70.1773,57.6026 89.5733,57.6026" id="Fill-26" fill="#CF6C6E"></path>
                </g>
            </g>
        </g>
    </g>
</svg>