<svg xmlns="http://www.w3.org/2000/svg" xmlns:xlink="http://www.w3.org/1999/xlink" viewbox="0 0 249 299" style="max-width:249px;"><defs><path id="path-1" d="M200.93 256.616c-7.077 6.452-12.598 11.019-16.562 13.7-38.112 25.966-88.58 25.88-126.606-.26-5.723-3.872-11.142-8.352-16.216-13.44-6.894-6.916-12.747-14.528-17.473-22.574 4.38-8.265 13.05-13.918 23.024-13.918 11.88 0 21.895 8.046 25.017 19.007 3.815-6.177 10.58-10.31 18.34-10.31 6.996 0 14.078 5.8 21.246 17.4l.433-43.495h17.343v43.494c7.458-11.599 14.684-17.398 21.68-17.398 7.76 0 14.524 4.132 18.34 10.308 3.078-10.96 13.094-19.007 25.018-19.007 10.276 0 19.164 6.003 23.413 14.702-3.093 5.19-8.758 12.454-16.996 21.79z"/><circle id="path-2" cx="26.5" cy="26.5" r="26.5"/></defs><g id="Page-1" fill="none" fill-rule="evenodd"><g id="rocket" transform="translate(5)"><ellipse id="Oval" cx="119.5" cy="175.5" fill="#DCDDDE" fill-rule="nonzero" stroke="#525564" stroke-width="10" rx="119.5" ry="117.5"/><g id="smoke" fill-rule="nonzero"><use fill="#96C0CE" fill-rule="evenodd" xlink:href="#path-1"/><path stroke="#525564" stroke-width="9" d="M73.383 230.742a25.874 25.874 0 0 1 17.072-6.42c5.895 0 11.485 2.936 16.877 8.606l.345-34.702h26.299v34.828c5.561-5.756 11.25-8.732 17.18-8.732a25.875 25.875 0 0 1 17.057 6.408c5.352-9.146 15.232-15.107 26.3-15.107 11.779 0 22.354 6.778 27.457 17.227l1.069 2.187-1.246 2.091c-3.267 5.483-9.08 12.936-17.488 22.465l-.162.183-.18.165c-7.225 6.586-12.892 11.274-17.06 14.094-39.656 27.017-92.143 26.914-131.662-.252-5.993-4.054-11.631-8.724-16.882-13.99-7.097-7.12-13.202-15.02-18.166-23.472l-1.272-2.166 1.176-2.22c5.268-9.942 15.582-16.311 27-16.311 11.04 0 20.914 5.966 26.286 15.118z"/></g><g id="ship" style="transform:translate(46px, 25px)"><path id="Shape" fill="#FFF" fill-rule="nonzero" d="M139 178c-6.268-2.845-15.378-6.186-25-7.182V139c13.847 6.767 22.701 22.341 25 39zm-129-1c2.299-16.228 11.153-31.398 25-38v30.988c-9.622.976-18.738 4.236-25 7.012zm32 6V97.26c0-10.892 1.305-20.986 3.361-30.26h58.287C105.7 76.269 107 86.357 107 97.26V183H42zm13 12v-12h38v12H55z"/><path id="Shape" fill="#DCDDDE" fill-rule="nonzero" d="M111 178V95.579C111 40.632 74 4 74 4v174h37z"/><g id="Group-5" transform="translate(48 80)"><g id="Oval"><g id="path-1-link" fill="#FFF"><circle id="path-1" cx="26.5" cy="26.5" r="26.5"/></g><circle cx="26.5" cy="26.5" r="22.5" stroke="#525564" stroke-width="8"/></g><g id="user-icon-Clipped"><mask id="mask-3" fill="#fff"><use xlink:href="#path-2"/></mask><g id="user-icon" mask="url(#mask-3)"><g id="Group" fill="#525564" fill-rule="nonzero" transform="translate(13 13)"><path id="Fill-28" d="M14 0a8 8 0 1 1 0 16 8 8 0 0 1 0-16"/><path id="Fill-29" d="M13.5 36c5.441 0 10.221-2.521 13.5-6.435C25.474 23.37 20.034 19 13.5 19S1.525 23.586 0 29.78C3.278 33.48 8.059 36 13.5 36"/></g></g></g></g><path id="Rectangle-path" fill="#DCDDDE" fill-rule="nonzero" d="M74 183h19v12H74z"/><path id="Shape" fill="#525564" fill-rule="nonzero" d="M101.556 202.125V183.75h13.777v-4.952c12.823 1.612 24.998 8.774 25.182 8.889l6.966 4.19v-8.127c0-22.422-11.793-45.428-32.148-52.709V96.47c0-56.38-36.53-91.669-38.086-93.221L74 0l-3.247 3.248C69.196 4.8 32.667 40.09 32.667 96.468v34.573C12.312 138.322.519 161.328.519 183.75l.004 8.126 6.962-4.19c.189-.114 12.364-7.285 25.182-8.893v4.957h13.777v18.375h55.112zm36.198-26.166c-5.621-2.545-13.791-5.535-22.42-6.427V141.06c12.418 6.055 20.358 19.992 22.42 34.899zM74.004 13.377c5.976 7.056 18.752 23.17 26.275 46.342H47.744c7.527-23.134 20.295-39.272 26.26-46.342zM10.247 175.959c2.062-14.907 10.002-28.84 22.42-34.903v28.463c-8.629.895-16.804 3.89-22.42 6.44zm31.606-1.397V96.47c0-9.923 1.29-19.115 3.325-27.563h57.655c2.03 8.444 3.316 17.631 3.316 27.563v78.094H41.852l.001-.002zm13.778 18.375v-9.187h36.74v9.188h-36.74v-.001z"/><path id="Shape" fill="#DCDDDE" fill-rule="nonzero" d="M73.993 13C80.135 20.156 93.268 36.5 101 60H47c7.737-23.463 20.86-39.83 26.993-47z"/></g><g id="stars" transform="translate(18 3)"><path id="star6" fill="#FFF" d="M157.333 37h9.334v-9.333H176v-9.334h-9.333V9h-9.334v9.333H148v9.334h9.333z"/><path id="star5" fill="#FFF" d="M9.333 60h9.334v-9.333H28v-9.334h-9.333V32H9.333v9.333H0v9.334h9.333z"/><path id="star4" fill="#FFF" d="M198.333 74h9.334v-9.333H217v-9.334h-9.333V46h-9.334v9.333H189v9.334h9.333z"/><path id="star3" fill="#525564" d="M171.5 105v4.5H167v9h4.5v4.5h9v-4.5h4.5v-9h-4.5V105z"/><path id="star2" fill="#525564" d="M37.5 101h9v-4.5H51v-9h-4.5V83h-9v4.5H33v9h4.5z"/><path id="star1" fill="#FFF" fill-rule="nonzero" d="M37.5 18h9v-4.5H51v-9h-4.5V0h-9v4.5H33v9h4.5z"/></g></g></g></svg>