<svg height="249" viewBox="0 0 267 249" width="267" xmlns="http://www.w3.org/2000/svg"><g fill="none"><path d="m229 167.712413v61.287587c0 11.045695-8.954305 20-20 20h-150c-11.045695 0-20-8.954305-20-20v-61.183584c-21.8728841-2.017655-39-20.416909-39-42.816416 0-23.748244 19.2517558-43 43-43h181c23.748244 0 43 19.251756 43 43 0 22.056996-16.60734 40.235141-38 42.712413z" fill="#525564"/><path d="m59 130h150c8.284271 0 15 6.715729 15 15v83.65625c0 8.284271-6.715729 15-15 15h-150c-8.284271 0-15-6.715729-15-15v-83.65625c0-8.284271 6.715729-15 15-15z" fill="#fff"/><path d="m59 0h150c6.627417 0 12 5.372583 12 12v94.65625c0 6.627417-5.372583 12-12 12h-150c-6.627417 0-12-5.372583-12-12v-94.65625c0-6.627417 5.372583-12 12-12z" fill="#96c0ce"/><path d="m60 5h148c4.418278 0 8 3.581722 8 8v92.65625c0 4.418278-3.581722 8-8 8h-148c-4.418278 0-8-3.581722-8-8v-92.65625c0-4.418278 3.581722-8 8-8z" fill="#fff"/><rect fill="#c25b56" height="35" rx="5" width="10" x="159" y="104"/><rect fill="#c25b56" height="35" rx="5" width="10" x="97" y="104"/><g fill="#96c0ce"><rect height="3" rx="1.5" width="65" x="133" y="42"/><rect height="3" rx="1.5" width="65" x="133" y="57"/><rect height="3" rx="1.5" width="65" x="133" y="72"/><path d="m76.691656 39c-1.985556 0-2.590214.116765-3.207397.446838-.454972.243322-.794099.582449-1.037421 1.037421-.330073.617183-.446838 1.221841-.446838 3.207397v30.616688c0 1.985556.116765 2.590214.446838 3.207397.243322.454972.582449.794099 1.037421 1.037421.617183.330073 1.221841.446838 3.207397.446838h34.616688c1.985556 0 2.590214-.116765 3.207397-.446838.454972-.243322.794099-.582449 1.037421-1.037421.330073-.617183.446838-1.221841.446838-3.207397v-30.616688c0-1.985556-.116765-2.590214-.446838-3.207397-.243322-.454972-.582449-.794099-1.037421-1.037421-.617183-.330073-1.221841-.446838-3.207397-.446838zm0-3h34.616688c2.674557 0 3.644415.278477 4.622193.801398s1.745144 1.290287 2.268065 2.268065.801398 1.947636.801398 4.622193v30.616688c0 2.674557-.278477 3.644415-.801398 4.622193s-1.290287 1.745144-2.268065 2.268065-1.947636.801398-4.622193.801398h-34.616688c-2.674557 0-3.644415-.278477-4.622193-.801398s-1.745144-1.290287-2.268065-2.268065-.801398-1.947636-.801398-4.622193v-30.616688c0-2.674557.278477-3.644415.801398-4.622193s1.290287-1.745144 2.268065-2.268065 1.947636-.801398 4.622193-.801398z"/></g></g></svg>