<?xml version="1.0" encoding="UTF-8"?>
<svg id="schedule-campaigns-graphic" viewBox="0 0 151 142" version="1.1" xmlns="http://www.w3.org/2000/svg" xmlns:xlink="http://www.w3.org/1999/xlink">
    <g id="Page-1" stroke="none" stroke-width="1" fill="none" fill-rule="evenodd">
        <g id="schedule">
            <g id="calendar">
                <polygon id="Fill-1" fill="#DCDDDE" points="142.909371 30 142.909371 133.884798 8 133.884798 8 142 151 142 151 30"></polygon>
                <polygon id="Fill-2" fill="#525564" points="0 134 143 134 143 22 0 22"></polygon>
                <polygon id="Fill-3" fill="#FFFFFF" points="6 128 137 128 137 28 6 28"></polygon>
                <polygon id="Fill-4" fill="#525564" points="0 19 143 19 143 2.84217094e-14 0 2.84217094e-14"></polygon>
                <polygon id="Fill-5" fill="#FFFFFF" points="2 17 141 17 141 2 2 2"></polygon>
                <path d="M11,48 L57,48 L57,34 L11,34 L11,48 Z M13,46 L55,46 L55,36 L13,36 L13,46 Z" id="Fill-6" fill="#525564"></path>
                <path d="M61,48 L132,48 L132,34 L61,34 L61,48 Z M63,46 L130,46 L130,36 L63,36 L63,46 Z" id="Fill-7" fill="#525564"></path>
                <polygon id="Fill-8" fill="#525564" points="11 57 132 57 132 53 11 53"></polygon>
            </g>
            <g id="dates" transform="translate(11.000000, 65.000000)">
                <path d="M20,9 L30,9 L30,2 L20,2 L20,9 Z M18,11 L32,11 L32,0 L18,0 L18,11 Z" id="Fill-9" fill="#DCDDDE"></path>
                <path d="M38,9 L48,9 L48,2 L38,2 L38,9 Z M36,11 L50,11 L50,0 L36,0 L36,11 Z" id="Fill-10" fill="#DCDDDE"></path>
                <path d="M56,9 L66,9 L66,2 L56,2 L56,9 Z M54,11 L68,11 L68,0 L54,0 L54,11 Z" id="Fill-11" fill="#DCDDDE"></path>
                <path d="M74,9 L84,9 L84,2 L74,2 L74,9 Z M72,11 L86,11 L86,0 L72,0 L72,11 Z" id="Fill-12" fill="#DCDDDE"></path>
                <path d="M92,9 L102,9 L102,2 L92,2 L92,9 Z M90,11 L104,11 L104,0 L90,0 L90,11 Z" id="Fill-13" fill="#DCDDDE"></path>
                <path d="M109,9 L119,9 L119,2 L109,2 L109,9 Z M107,11 L121,11 L121,0 L107,0 L107,11 Z" id="Fill-14" fill="#DCDDDE"></path>
                <path d="M2,24 L12,24 L12,17 L2,17 L2,24 Z M0,26 L14,26 L14,15 L0,15 L0,26 Z" id="Fill-15" fill="#DCDDDE"></path>
                <path d="M20,24 L30,24 L30,17 L20,17 L20,24 Z M18,26 L32,26 L32,15 L18,15 L18,26 Z" id="Fill-16" fill="#DCDDDE"></path>
                <path d="M38,24 L48,24 L48,17 L38,17 L38,24 Z M36,26 L50,26 L50,15 L36,15 L36,26 Z" id="Fill-17" fill="#DCDDDE"></path>
                <path d="M56,24 L66,24 L66,17 L56,17 L56,24 Z M54,26 L68,26 L68,15 L54,15 L54,26 Z" id="Fill-18" fill="#DCDDDE"></path>
                <path d="M74,24 L84,24 L84,17 L74,17 L74,24 Z M72,26 L86,26 L86,15 L72,15 L72,26 Z" id="Fill-19" fill="#DCDDDE"></path>
                <path d="M92,24 L102,24 L102,17 L92,17 L92,24 Z M90,26 L104,26 L104,15 L90,15 L90,26 Z" id="Fill-20" fill="#DCDDDE"></path>
                <path d="M109,24 L119,24 L119,17 L109,17 L109,24 Z M107,26 L121,26 L121,15 L107,15 L107,26 Z" id="Fill-21" fill="#DCDDDE"></path>
                <path d="M2,39 L12,39 L12,32 L2,32 L2,39 Z M0,41 L14,41 L14,30 L0,30 L0,41 Z" id="Fill-22" fill="#DCDDDE"></path>
                <path d="M20,39 L30,39 L30,32 L20,32 L20,39 Z M18,41 L32,41 L32,30 L18,30 L18,41 Z" id="Fill-23" fill="#DCDDDE"></path>
                <path d="M38,39 L48,39 L48,32 L38,32 L38,39 Z M36,41 L50,41 L50,30 L36,30 L36,41 Z" id="Fill-24" fill="#DCDDDE"></path>
                <path d="M56,39 L66,39 L66,32 L56,32 L56,39 Z M54,41 L68,41 L68,30 L54,30 L54,41 Z" id="Fill-25" fill="#DCDDDE"></path>
                <path d="M74,39 L84,39 L84,32 L74,32 L74,39 Z M72,41 L86,41 L86,30 L72,30 L72,41 Z" id="Fill-26" fill="#DCDDDE"></path>
                <path d="M92,39 L102,39 L102,32 L92,32 L92,39 Z M90,41 L104,41 L104,30 L90,30 L90,41 Z" id="date-unselected" fill="#DCDDDE"></path>
                <path d="M92,39 L102,39 L102,32 L92,32 L92,39 Z M90,41 L104,41 L104,30 L90,30 L90,41 Z" id="date-selected" fill="#CD6666" opacity="0"></path>
                <path d="M109,39 L119,39 L119,32 L109,32 L109,39 Z M107,41 L121,41 L121,30 L107,30 L107,41 Z" id="Fill-28" fill="#DCDDDE"></path>
                <path d="M2,54 L12,54 L12,47 L2,47 L2,54 Z M0,56 L14,56 L14,45 L0,45 L0,56 Z" id="Fill-29" fill="#DCDDDE"></path>
                <path d="M20,54 L30,54 L30,47 L20,47 L20,54 Z M18,56 L32,56 L32,45 L18,45 L18,56 Z" id="Fill-30" fill="#DCDDDE"></path>
                <path d="M38,54 L48,54 L48,47 L38,47 L38,54 Z M36,56 L50,56 L50,45 L36,45 L36,56 Z" id="Fill-31" fill="#DCDDDE"></path>
                <path d="M56,54 L66,54 L66,47 L56,47 L56,54 Z M54,56 L68,56 L68,45 L54,45 L54,56 Z" id="Fill-32" fill="#DCDDDE"></path>
                <path d="M74,54 L84,54 L84,47 L74,47 L74,54 Z M72,56 L86,56 L86,45 L72,45 L72,56 Z" id="Fill-33" fill="#DCDDDE"></path>
                <path d="M92,54 L102,54 L102,47 L92,47 L92,54 Z M90,56 L104,56 L104,45 L90,45 L90,56 Z" id="Fill-34" fill="#DCDDDE"></path>
            </g>
            <g id="date-field" transform="translate(23.000000, 38.000000)">
                <g id="date-unfilled" fill="#DCDDDE">
                    <polygon id="date-month-copy" points="0 6 7 6 7 0 0 0"></polygon>
                    <polygon id="date-year-copy" points="16 6 23 6 23 0 16 0"></polygon>
                </g>
                <g id="date-filled" opacity="0" fill="#97C0CE">
                    <polygon id="date-month" points="0 6 7 6 7 0 0 0"></polygon>
                    <polygon id="date-year" points="16 6 23 6 23 0 16 0"></polygon>
                </g>
                <polygon id="Fill-37" fill="#525564" points="10 6 12.4110535 0 13 0 10.5794473 6"></polygon>
            </g>
            <g id="time-field" transform="translate(77.000000, 37.000000)">
                <g id="date-time">
                    <path d="M19,6.50439648 C19,6.20783373 19.2099076,6 19.504618,6 C19.7984887,6 19.9924433,6.20783373 20,6.50439648 C20,6.78417266 19.806885,7 19.4962217,7 C19.2015113,7 19,6.78417266 19,6.50439648 M19,2.50359712 C19,2.20783373 19.2099076,2 19.504618,2 C19.7984887,2 19.9924433,2.20783373 20,2.50359712 C20,2.7833733 19.806885,3 19.4962217,3 C19.2015113,3 19,2.7833733 19,2.50359712" id="Fill-42" fill="#525564"></path>
                    <g id="date-time-unfilled" fill="#DCDDDE">
                        <g id="date-minute" transform="translate(22.000000, 1.000000)">
                            <polygon id="Fill-38" points="0 6 7 6 7 0 0 0"></polygon>
                            <polygon id="Fill-39" points="10 6 17 6 17 0 10 0"></polygon>
                        </g>
                        <g id="date-hour">
                            <polygon id="Fill-40" points="1 7 8 7 8 1 1 1"></polygon>
                            <polygon id="Fill-41" points="10 7 17 7 17 1 10 1"></polygon>
                        </g>
                    </g>
                    <g id="date-time-filled" opacity="0" transform="translate(1.000000, 1.000000)" fill="#97C0CE">
                        <g id="date-minute" transform="translate(21.000000, 0.000000)">
                            <polygon id="Fill-38" points="0 6 7 6 7 0 0 0"></polygon>
                            <polygon id="Fill-39" points="10 6 17 6 17 0 10 0"></polygon>
                        </g>
                        <g id="date-hour">
                            <polygon id="Fill-40" points="0 6 7 6 7 0 0 0"></polygon>
                            <polygon id="Fill-41" points="9 6 16 6 16 0 9 0"></polygon>
                        </g>
                    </g>
                </g>
            </g>
        </g>
    </g>
</svg>