<svg xmlns="http://www.w3.org/2000/svg" width="93" height="76" viewBox="0 0 93 76"><path fill="none" stroke="#efefef" stroke-linecap="round" stroke-linejoin="round" stroke-miterlimit="50" stroke-width="7" d="M16.06 16.5A15.68 15.68 0 0 0 3.5 31.82v28.16h31.58A12.9 12.9 0 0 0 48.02 72.5H89.5V49.37a12.9 12.9 0 0 0-10.31-12.59"/><path fill="none" stroke="#525564" stroke-linejoin="round" stroke-miterlimit="50" stroke-width="7" d="M63.94 3.5h.26l.05.01H64.52l.05.01H64.74l.05.01h.1l.06.01h.1l.06.01h.05l.05.01h.05l.06.01h.05l.05.01h.05l.06.01h.05l.05.01h.05l.05.01h.06l.05.01.06.01h.05l.05.01.05.01h.05l.06.01.04.01h.06l.05.01.05.01.05.01.06.01h.05l.05.01.05.01.05.01.05.01.06.01.05.01.04.01.06.01.05.01.05.01.05.01h.05l.05.01.06.02.05.01.04.01.06.01.05.01.05.01.05.01.05.01.05.01.05.02.05.01.05.01.05.01.05.02.05.01.05.01.05.01.05.02.05.01.05.01.05.02.05.01.05.01.05.02.05.01.05.02.04.01.05.01.06.02.05.01.05.02.04.01.05.02.05.01.05.02.05.01.05.02.04.01.05.02.05.02.05.01.05.02.05.02.04.01.05.02.05.02.05.01.05.02.05.02.04.02.05.01.05.02.05.02.04.02.05.02.05.02.05.01.04.02.05.02.05.02.04.02.05.02.05.02.05.02.04.02.05.02.05.02.04.02.05.02.04.02.05.02.05.02.05.02.04.02.04.02.05.02.05.02.04.03.05.02.05.02.04.02.04.02.05.02.05.03.04.02.05.02.04.02.05.02.04.03.05.02.04.03.05.02.04.02.05.02.04.03.05.02.04.03.04.02.05.02.04.03.04.02.05.03.04.02.05.03.04.02.04.03.05.02.04.03.05.02.04.03.04.02.04.03.05.02.04.03.04.03.04.02.05.03.04.03.04.02.05.03.04.03.04.02.04.03.04.03.05.03.04.02.04.03.04.03.04.03.04.02.04.03.05.03.04.03.04.03.04.03.04.02.04.03.04.03.04.03.04.03.04.03.04.03.04.03.05.03.03.03.04.03.04.03.05.03.03.03.04.03.04.03.04.03.04.03.04.03.04.03.04.03.04.03.03.03.05.04.03.03.04.03.04.03.04.03.04.03.03.04.04.03.04.03.04.03.04.03.03.04.04.03.04.03.04.04.03.03.04.03.04.04.04.03.03.03.04.03.03.04.04.03.04.04.03.03.04.03.04.04.03.03.04.04.03.03.04.04.03.03.04.03.03.04.04.03.04.04.03.04.03.03.04.04.04.03.03.04.04.03.03.04.04.04.03.03.03.03.04.04.03.04.03.04.04.03.03.04.03.04.04.03.03.04.04.04.03.03.03.04.03.04.04.04.03.03.03.04.03.04.03.04.04.03.03.04.03.04.06.08.04.03.03.05.03.03.03.04.03.04.03.04.03.04.03.04.03.03.03.04.03.04.03.04.03.04.03.04.04.04.03.04.02.04.03.04.03.04.03.04.03.04.03.04.03.04.03.04.03.04.03.04.02.04.03.05.03.04.03.04.03.04.03.04.02.04.03.04.03.04.03.05.03.04.02.04.03.04.03.04.02.05.03.04.03.04.02.04.03.05.02.04.03.04.03.04.02.04.03.05.02.04.03.04.02.05.03.04.02.04.03.05.02.04.03.04.02.05.03.04.02.04.03.05.02.04.02.04.03.05.02.04.02.05.03.04.02.05.02.04.03.05.02.04.02.04.02.05.03.04.02.05.02.04.02.05.05.09.02.04.02.05.02.04.02.05.02.05.03.04.02.05.02.04.02.05.02.05.02.04.02.05.02.04.02.05.04.09.02.05.02.05.02.04.01.05.02.04.02.05.02.05.02.05.02.04.02.05.01.05.02.04.02.05.03.1.02.04.02.05.01.05.02.05.02.05.02.04.01.05.02.05.02.05.01.04.02.05.01.05.02.05.01.05.02.05.01.04.02.05.01.05.02.05.01.05.02.05.01.05.02.05.01.04.01.05.02.05.01.05.02.05.01.05.01.05.01.05.02.05.01.05.01.05.02.05.01.05.01.05.01.05.01.05.02.05.01.05.01.05.01.05.01.05.01.05.01.05.01.05.01.05.01.05.01.05.01.05.01.05.01.05.01.05.01.05.01.05.01.06.01.05.01.05v.05l.01.05.01.05.01.05.01.05v.05l.01.05.02.11v.05l.01.05.01.05v.05l.01.06v.05l.01.05.01.05v.05l.01.05.01.11v.05l.01.05v.05l.01.06v.05l.01.1.01.11v.05l.01.05v.05l.01.11v.16l.01.05v.16l.01.21V31.33l-.01.21v.16l-.01.05v.16l-.01.05v.11l-.01.05v.05l-.01.11v.05l-.01.05v.06l-.01.05v.05l-.01.05v.05l-.01.05v.06l-.01.05v.05l-.01.05-.01.05v.06l-.01.05v.05l-.01.05-.01.05v.05l-.01.06-.01.05-.01.05v.05l-.01.05-.01.05-.01.05-.01.05v.05l-.01.06-.01.05-.01.05-.01.05-.02.1-.01.05-.01.05-.01.05-.01.05-.01.05-.01.05-.01.05-.01.05-.01.05-.01.05-.01.05-.01.05-.01.05-.02.05-.01.05-.01.05-.01.05-.01.05-.02.05-.01.05-.01.05-.02.05-.01.05-.01.05-.01.05-.02.05-.01.05-.02.05-.01.04-.01.06-.02.04-.01.05-.02.05-.01.05-.02.05-.01.05-.02.05-.01.04-.02.05-.01.05-.02.05-.01.05-.02.05-.01.04-.02.05-.02.05-.01.05-.02.05-.02.04-.02.05-.01.05-.02.05-.02.04-.01.05-.02.05-.02.04-.02.05-.01.05-.02.05-.02.05-.02.04-.02.05-.02.05-.02.04-.01.05-.02.05-.02.04-.02.05-.02.05-.02.04-.02.05-.02.04-.02.05-.02.05-.02.04-.02.05-.02.04-.02.05-.03.04-.04.1-.02.04-.02.05-.02.04-.02.05-.03.04-.02.05-.02.04-.02.05-.03.04-.02.05-.02.04-.02.05-.03.04-.02.05-.02.04-.05.09-.02.04-.03.05-.02.04-.02.04-.03.05-.02.04-.03.05-.02.04-.03.04-.02.04-.03.05-.02.04-.03.04-.02.05-.03.04-.02.04-.03.05-.02.04-.03.04-.03.04-.02.05-.03.04-.02.04-.03.04-.03.05-.02.04-.03.04-.03.04-.02.04-.03.04-.03.05-.03.04-.03.04-.02.04-.03.04-.03.04-.03.04-.03.05-.03.04-.02.04-.03.04-.03.04-.03.04-.03.04-.03.04-.03.04-.03.04-.03.04-.02.04-.03.04-.03.04-.04.04-.03.04-.06.08-.03.04-.03.04-.03.04-.03.03-.03.04-.03.04-.03.04-.03.04-.03.04-.03.04-.03.03-.04.04-.03.04-.03.04-.03.04-.04.03-.03.04-.03.04-.03.04-.03.04-.04.03-.03.04-.03.04-.03.03-.04.04-.03.04-.04.03-.03.04-.03.04-.04.03-.03.04-.03.04-.04.04-.03.03-.04.04-.03.03-.03.04-.04.03-.04.04-.03.04-.03.03-.04.03-.03.04-.04.04-.04.03-.03.04-.04.03-.03.04-.04.03-.03.03-.04.04-.03.03-.04.04-.04.03-.03.04-.04.03-.04.03-.03.04-.04.03-.03.03-.04.04-.04.03-.04.03-.03.04-.04.03-.04.03-.04.04-.03.03-.04.03-.04.03-.04.03-.04.03-.03.04-.04.03-.04.03-.04.03-.04.03-.03.04-.05.03-.03.03-.04.03-.04.03-.04.03-.04.03-.04.03-.04.03-.04.03-.04.04-.03.02-.05.03-.04.03-.04.04-.04.02-.07.06-.05.03-.04.03-.04.03-.04.03-.04.03-.04.03-.04.03-.04.02-.04.03-.04.03-.04.03-.05.03-.04.02-.04.03-.04.03-.04.03-.04.02-.05.03-.04.03-.04.03-.04.02-.04.03-.05.03-.04.02-.04.03-.05.03-.04.02-.04.03-.04.02-.05.03-.04.03-.04.02-.05.03-.04.03-.04.02-.04.02-.05.03-.04.03-.05.02-.04.02-.05.03-.04.02-.04.03-.05.02-.04.03-.04.02-.05.02-.04.03-.05.02-.04.02-.05.03-.04.02-.05.02-.04.03-.05.02-.04.02-.05.02-.04.02-.05.03-.05.02-.04.02-.04.02-.05.03-.05.02-.04.02-.05.02-.05.02-.04.02-.04.02-.05.02-.05.02-.04.02-.05.02-.05.02-.04.02-.05.02-.05.03-.04.01-.05.02-.05.02-.05.02-.04.02-.05.02-.05.02-.04.02-.05.01-.05.02-.05.02-.04.02-.05.02-.05.02-.05.02-.04.01-.05.02-.05.02-.05.01-.05.02-.05.02-.04.01-.05.02-.05.02-.05.01-.05.02-.05.02-.04.01-.05.02-.05.01-.05.02-.05.01-.05.02-.05.01-.04.02-.05.01-.06.02-.04.01-.05.02-.05.01-.05.02-.05.01-.05.01-.05.02-.05.01-.05.01-.05.02-.05.01-.05.01-.05.01-.05.02-.05.01-.05.01-.05.01-.05.02-.05.01-.05.01-.05.01-.05.01-.05.01-.05.01-.06.01-.04.01-.06.01-.05.02h-.05l-.05.02-.05.01-.05.01-.05.01h-.05l-.06.01-.04.01-.06.01-.05.01-.05.01-.05.01-.05.01h-.05l-.06.01-.05.01-.05.01-.05.01h-.06l-.04.01-.06.01-.05.01H66l-.05.01-.06.01h-.05l-.05.01h-.06l-.05.01h-.05l-.05.01h-.05l-.05.01-.06.01h-.1l-.06.01h-.05l-.05.01h-.05l-.06.01h-.1l-.06.01h-.1l-.05.01h-.16l-.06.01H64.31l-.06.01H16.5V19.67l.01-.26v-.11l.01-.11v-.05l.01-.16v-.05l.01-.05.01-.11v-.05l.01-.1v-.05l.01-.06v-.05l.01-.05v-.05l.01-.11.01-.05v-.05l.01-.05.01-.05v-.06l.05-.36.01-.05v-.05l.01-.05.03-.2.01-.05.01-.05.01-.06.01-.05.03-.15.02-.1.01-.05.01-.05.01-.05.01-.05.01-.05.01-.05.01-.05.01-.05.02-.1.02-.05.01-.05.03-.15.02-.05.01-.05.01-.05.01-.05.02-.05.01-.05.01-.05.03-.1.02-.05.01-.05.01-.04.02-.05.01-.05.02-.05.01-.05.03-.1.02-.05.01-.04.02-.05.01-.05.02-.05.01-.05.03-.09.02-.05.02-.05.01-.05.02-.04.02-.05.01-.05.02-.05.02-.04.02-.05.01-.05.02-.05.02-.05.02-.04.01-.05.02-.05.02-.04.02-.05.04-.1.02-.04.01-.05.02-.04.02-.05.02-.05.02-.04.02-.05.02-.05.02-.04.02-.05.06-.14.02-.04.02-.05.03-.04.02-.05.02-.05.02-.04.02-.04.02-.05.02-.04.02-.05.03-.05.04-.08.05-.1.02-.04.02-.04.03-.05.02-.04.02-.05.03-.04.02-.05.02-.04.03-.05.02-.04.02-.04.03-.05.02-.04.05-.09.05-.08.03-.05.02-.04.02-.04.03-.05.03-.04.02-.04.03-.05.02-.04.03-.04.03-.04.02-.04.03-.05.1-.17.03-.04.03-.04.02-.04.03-.04.03-.05.05-.08.06-.08.06-.08.03-.04.02-.04.03-.05.03-.04.03-.04.03-.04.06-.08.03-.04.05-.08.04-.04.02-.04.03-.04.03-.04.03-.04.03-.04.06-.08.03-.04.04-.03.02-.04.04-.04.06-.08.06-.07.03-.05.04-.03.03-.04.03-.04.03-.04.03-.04.03-.03.07-.08.03-.04.03-.03.04-.04.03-.04.06-.07.04-.04.06-.07.07-.08.03-.03.04-.04.07-.07.03-.04.07-.07.07-.07.07-.07.03-.04.07-.07.04-.04.1-.1.04-.03.07-.07.07-.07.04-.04.04-.03.07-.07.07-.06.04-.04.07-.06.04-.04.04-.03.03-.03.08-.07.04-.03.03-.04.04-.03.04-.03.04-.03.07-.07.04-.03.08-.06.07-.06.05-.04.07-.05.04-.04.08-.06.03-.03.05-.03.04-.03.03-.03.04-.03.08-.06.08-.06.12-.09.05-.03.07-.06.05-.03.08-.05.04-.03.04-.03.04-.03.09-.06.08-.05.04-.03.08-.05.05-.03.08-.06.08-.05.05-.03.08-.05.04-.03.09-.05.04-.03.04-.02.09-.05.04-.03.05-.02.04-.03.09-.05.04-.02.09-.05.04-.03.09-.05.05-.02.08-.05.05-.02.08-.05.05-.02.09-.05.04-.02.05-.03.09-.04.09-.04.04-.03.05-.02.09-.04.05-.02.08-.05.06-.02.04-.02.09-.04.1-.04.09-.04.09-.04.05-.02.05-.02.09-.04.04-.02.05-.02.1-.04.04-.02.1-.03.04-.02.2-.08.05-.01.09-.04.05-.02.09-.03.15-.05.09-.03.05-.02.05-.02.1-.03.05-.01.1-.03.14-.05.1-.03.15-.04.1-.03.05-.01.1-.03.1-.02.1-.03.1-.02.05-.02.1-.02.1-.03.05-.01.1-.02.1-.02.05-.01.1-.02.06-.02.15-.02.1-.02.15-.03.06-.01.1-.02.05-.01.05-.01.1-.01.11-.02.05-.01h.05l.11-.02.1-.01.05-.01.1-.01.11-.01.11-.01.1-.01.06-.01.09-.01h.06l.05-.01h.06l.1-.01.1-.01h.06l.05-.01h.11l.1-.01h.06l.1-.01h.27l.11-.01h31.03z"/></svg>