<svg xmlns="http://www.w3.org/2000/svg" width="248" height="294" viewBox="0 0 248 294"><defs><clipPath id="a"><path fill="#fff" d="M956 2490.5a26.5 26.5 0 1 1 53 0 26.5 26.5 0 0 1-53 0z"/></clipPath></defs><path fill="#dcddde" d="M4 172.5C4 107.6 57.5 55 123.5 55S243 107.6 243 172.5 189.5 290 123.5 290 4 237.4 4 172.5z"/><path fill="#fff" d="M187 175c-5.52-2.48-13.53-5.39-22-6.26V141c12.19 5.9 19.98 19.48 22 34zM61 175c2.02-14.52 9.81-28.09 22-34v27.73c-8.47.87-16.49 3.79-22 6.27zM92 174V96.39c0-9.86 1.3-18.99 3.36-27.39h58.29A114.9 114.9 0 0 1 157 96.39V174H96.64zM106 192v-9h37v9h-32.37z"/><path fill="#dcddde" d="M161 178V95.58C161 40.63 124 4 124 4v174z"/><path fill="#fff" d="M98 106.5a26.5 26.5 0 1 1 53 0 26.5 26.5 0 0 1-53 0z"/><path fill="none" stroke="#525564" stroke-miterlimit="50" stroke-width="16" d="M956 2490.5a26.5 26.5 0 1 1 53 0 26.5 26.5 0 0 1-53 0z" clip-path="url(&quot;#a&quot;)" transform="translate(-858 -2384)"/><path fill="#525564" d="M125 93a8 8 0 1 1 0 16 8 8 0 0 1 0-16M124.5 129c5.44 0 10.22-2.52 13.5-6.43A13.8 13.8 0 0 0 124.5 112a14 14 0 0 0-13.5 10.78 18.06 18.06 0 0 0 13.5 6.22"/><path fill="#96c0ce" d="M227 231.94a119.06 119.06 0 0 1-18.06 23.05A119.84 119.84 0 0 1 56.8 269.2 120.12 120.12 0 0 1 21 231.12a27.72 27.72 0 0 1 24.47-14.72 27.7 27.7 0 0 1 26.58 20.1 22.91 22.91 0 0 1 19.49-10.9 23.03 23.03 0 0 1 22.58 18.39h.46V198h18.43v45.99h.46a23.02 23.02 0 0 1 22.57-18.39 22.9 22.9 0 0 1 19.49 10.9 27.63 27.63 0 0 1 26.59-20.1A27.72 27.72 0 0 1 227 231.94z"/><path fill="#dcddde" d="M124 192v-9h18v9z"/><path fill="#525564" d="M209.91 84.03l-3.24-3.24-6.5 6.49 3.25 3.25c23.16 23.17 35.39 50.63 35.39 79.44 0 18.5-4.37 36.32-12.57 52.32a31.95 31.95 0 0 0-24.17-10.98 32.23 32.23 0 0 0-27.79 16.05 27.25 27.25 0 0 0-18.13-6.86 27.59 27.59 0 0 0-18.37 7.03v-25.4h13.78v-18.38h13.77v-4.95c12.83 1.61 25 8.77 25.18 8.89l6.97 4.19v-8.13c0-22.42-11.79-45.43-32.15-52.71V96.47c0-56.38-36.53-91.67-38.08-93.22L124 0l-3.25 3.25C119.2 4.8 82.67 40.09 82.67 96.47v34.57c-20.36 7.28-32.15 30.29-32.15 52.71v8.13l6.97-4.19c.18-.12 12.36-7.29 25.18-8.9v4.96h13.77v18.38h13.78v25.4a27.59 27.59 0 0 0-18.37-7.03c-6.8 0-13.2 2.49-18.14 6.88a32.31 32.31 0 0 0-27.78-16.07c-9.4 0-18.11 4.12-24.15 11.01a114.28 114.28 0 0 1-12.59-52.36c0-28.8 12.23-56.26 35.39-79.43l3.25-3.25-6.5-6.49-3.24 3.24C13.17 108.96 0 138.68 0 169.96c0 33.14 12.9 64.28 36.32 87.71A123.66 123.66 0 0 0 124 294c31.75 0 63.51-12.15 87.68-36.33a123.24 123.24 0 0 0 36.32-87.7c0-31.29-13.17-61.01-38.09-85.94zm-22.16 91.93c-5.62-2.55-13.79-5.54-22.42-6.43v-28.47c12.42 6.05 20.36 19.99 22.42 34.9zM124 13.38c5.98 7.05 18.76 23.17 26.28 46.34H97.74c7.53-23.14 20.3-39.27 26.26-46.34zM60.25 175.96c2.06-14.91 10-28.84 22.42-34.9v28.46c-8.63.89-16.81 3.89-22.42 6.44zm31.6-1.4V96.47c0-9.92 1.29-19.12 3.33-27.56h57.65a117.37 117.37 0 0 1 3.32 27.56v78.09zm13.78 18.38v-9.19h36.74v9.19zm99.56 58.24c-44.77 44.77-117.61 44.77-162.37 0a115.63 115.63 0 0 1-16.1-20.21 22.9 22.9 0 0 1 19.21-10.47 23.12 23.12 0 0 1 22.08 16.74l2.85 9.99 5.47-8.83a18.17 18.17 0 0 1 15.52-8.71 18.4 18.4 0 0 1 18 14.68l.75 3.69h8.81v-45.93h9.18v45.93h8.81l.75-3.69a18.4 18.4 0 0 1 18-14.68c6.34 0 12.14 3.25 15.52 8.71l5.5 8.87 2.83-10.04a23.02 23.02 0 0 1 22.07-16.73c7.87 0 14.99 3.95 19.23 10.45a115.82 115.82 0 0 1-16.11 20.23z"/><path fill="#fff" d="M179.33 37h9.34v-9.33H198v-9.34h-9.33V9h-9.34v9.33H170v9.34h9.33zM31.33 60h9.34v-9.33H50v-9.34h-9.33V32h-9.34v9.33H22v9.34h9.33zM220.33 74h9.34v-9.33H239v-9.34h-9.33V46h-9.34v9.33H211v9.34h9.33z"/><path fill="#525564" d="M193.5 105v4.5H189v9h4.5v4.5h9v-4.5h4.5v-9h-4.5V105zM59.5 101h9v-4.5H73v-9h-4.5V83h-9v4.5H55v9h4.5z"/><path fill="#fff" d="M59.5 18h9v-4.5H73v-9h-4.5V0h-9v4.5H55v9h4.5z"/><path fill="#dcddde" d="M124.49 13c6.03 7 18.92 23 26.51 46H98c7.59-22.96 20.47-38.98 26.49-46z"/></svg>