<svg xmlns="http://www.w3.org/2000/svg" viewBox="0 0 190.71 150.35"><defs><style>.cls-1{fill:#525564;}.cls-2{fill:#97c0ce;}.cls-3{fill:#c66;}</style></defs><title>Asset 3</title><g id="Layer_2" data-name="Layer 2"><g id="FLAT_Icons" data-name="FLAT Icons"><path class="cls-1" d="M148.23,64.93a39.43,39.43,0,0,0-7.22.74l-1.89.33-1-1.62A57.65,57.65,0,0,0,118.45,43.7V51A51.9,51.9,0,0,1,133,67.39l3.14,5.23,6-1.05a33.85,33.85,0,0,1,6.16-.64,36.52,36.52,0,0,1,36.48,36.48c0,20-16.71,36.94-36.48,36.94H102.9a3,3,0,0,0,0,6h45.33a41.89,41.89,0,0,0,30-12.73,42.59,42.59,0,0,0-30-72.7Z"/><path class="cls-1" d="M85.48,68.43l-.48,0v50.07c0,.11.29,11.4-7,19-4.4,4.55-10.76,6.86-18.89,6.86H27.47A21.5,21.5,0,0,1,6,122.88a21.25,21.25,0,0,1,21.47-21.47h8.77V92.63A51.64,51.64,0,0,1,55.79,52.18V44.73a57.71,57.71,0,0,0-25.55,47.9v2.77H27.47A27.18,27.18,0,0,0,0,122.88a27.5,27.5,0,0,0,27.47,27.47h34.6v-.09c8.42-.54,15.2-3.43,20.2-8.59,9.07-9.37,8.74-22.77,8.72-23.23V68.58a19.14,19.14,0,0,0-2.23-.14Z"/><path class="cls-2" d="M79.82,52.45V4.65A4.65,4.65,0,0,0,75.17,0h0a4.65,4.65,0,0,0-4.65,4.65v47.8a4.65,4.65,0,0,0,4.65,4.65h0A4.65,4.65,0,0,0,79.82,52.45Z"/><path class="cls-2" d="M103.72,52.45V4.65A4.65,4.65,0,0,0,99.07,0h0a4.65,4.65,0,0,0-4.65,4.65v47.8a4.65,4.65,0,0,0,4.65,4.65h0A4.65,4.65,0,0,0,103.72,52.45Z"/><path class="cls-3" d="M63.17,30.46V53.83l0,5.56c.47,10.8,10.23,13.8,22.29,13.8h3.29c12.06,0,21.82-3,22.29-13.8l0-5.56V30.46Z"/><path class="cls-3" d="M63.22,22.27H111a4.65,4.65,0,0,1,4.65,4.65h0A4.65,4.65,0,0,1,111,31.56H63.22a4.65,4.65,0,0,1-4.65-4.65h0A4.65,4.65,0,0,1,63.22,22.27Z"/></g></g></svg>