<svg xmlns="http://www.w3.org/2000/svg" width="92" height="30" viewBox="0 0 92 30"><path fill="#c25b56" d="M2.88 3.42H6.3V0H2.88zM6.3 6.87v18.32c0 2.85-2.08 4.76-4.96 4.76H0v-3.22h.97c1.18 0 1.91-.54 1.91-1.81V6.87zM22.01 16.99v-2.82A6.9 6.9 0 0 0 15 7c-3.28 0-7 2.15-7 8.75 0 6.97 4.06 8.64 7.54 8.64 2.28 0 4.46-.8 6.13-2.74l-2.48-2.12a5.33 5.33 0 0 1-3.72 1.65c-2.34 0-4.05-1.41-4.05-4.19zM15 10.22c2.01 0 3.49 1.37 3.59 3.95h-7.17c.07-2.58 1.57-3.95 3.58-3.95zM25.71 2h3.42v5.16h2.48v2.61h-2.48v9.89c0 .94.37 1.27 1.2 1.27h1.28v3.22h-1.78c-2.38 0-4.12-1.51-4.12-4.19V9.77H24V7.16h1.71zM41.85 3.22c2.61 0 3.85 1.57 3.85 3.41 0 1.88-1.24 3.42-3.85 3.42h-5.23V3.22zm1.2 20.64a6.52 6.52 0 0 0 6.64-6.77c0-2.41-1.27-4.89-3.89-5.49v-.07c2.78-1.24 3.52-3.15 3.52-5.13 0-3.75-2.41-6.4-7.07-6.4H33v23.86zm3.02-7c0 1.87-1.21 3.58-3.89 3.58h-5.56v-7.17h5.56c2.68 0 3.89 1.71 3.89 3.59zM52 0h3.42v19.47c0 .77.44 1.17 1.27 1.17h1.18v3.22h-1.51c-2.48 0-4.36-1.07-4.36-4.12zM59 7h3.42v10.12c0 2.31 1.44 3.65 3.38 3.65 1.91 0 3.35-1.34 3.35-3.65V7h3.42v16.99h-3.42v-1.81h-.06a5.43 5.43 0 0 1-4.39 2.01 5.7 5.7 0 0 1-5.7-5.9zM89.01 16.99v-2.82A6.9 6.9 0 0 0 82 7c-3.28 0-7 2.15-7 8.75 0 6.97 4.05 8.64 7.54 8.64 2.28 0 4.46-.8 6.13-2.74l-2.48-2.12a5.33 5.33 0 0 1-3.72 1.65c-2.34 0-4.05-1.41-4.05-4.19zM82 10.22c2.02 0 3.49 1.37 3.59 3.95h-7.17c.07-2.58 1.57-3.95 3.58-3.95z"/></svg>