<svg xmlns="http://www.w3.org/2000/svg" viewBox="0 0 253.6 187.53"><defs><style>.cls-1{fill:#525564;}.cls-2{fill:#928f9d;}.cls-3{fill:#c66;}</style></defs><g id="Layer_2" data-name="Layer 2"><g id="OL_Text" data-name="OL Text"><path class="cls-1" d="M106.37 84.14H66.89V45.76A19.92 19.92 0 0 1 79 27.53a28.06 28.06 0 0 1 1.23-7.77 27 27 0 0 0-20.38 26v45.38h46.93a23.72 23.72 0 0 1-.36-3.41z"/><path class="cls-2" d="M179.25 50.42a28.08 28.08 0 0 1-2.38 6.58c5.94 2 9.84 7.74 9.84 14.85v30.91H129a15.52 15.52 0 0 1-15.59-15.21l-.08-3.41h-7l.09 3.59a23.72 23.72 0 0 0 .36 3.41A22.44 22.44 0 0 0 129 109.76h64.67V71.85c.04-10.17-5.67-18.46-14.42-21.43z"/><path class="cls-3" d="M180 44.25V28a28.08 28.08 0 0 0-28-28h-44.93A28 28 0 0 0 79 27.53v44.76h72.9a28.1 28.1 0 0 0 28-28zm-28 21H86V28a21.17 21.17 0 0 1 .43-4.24c0-.12.07-.24.1-.37A21.07 21.07 0 0 1 107.07 7h44.83a21.07 21.07 0 0 1 21 21v16.25a21.07 21.07 0 0 1-21 21.04z"/><path class="cls-1" d="M29 135.38v6.15H6.84v11h19.84v6.09H6.84v11.2H29.7V176H0v-40.6zM89.2 156.79V176h-6.67v-17.36c0-4.7-2.79-7.54-7.31-7.54-5.28.18-8.47 4.24-8.47 9.63V176h-6.67v-17.36c0-4.7-2.72-7.54-7.25-7.54-5.33.18-8.58 4.24-8.58 9.63V176h-6.61v-30.87h6.61v6c2.14-4.35 6.09-6.2 11.19-6.2 5.51 0 9.28 2.72 10.73 7.42 2-5.16 6.09-7.42 11.72-7.42 7.11-.03 11.31 4.49 11.31 11.86zM105.31 136.31a3.89 3.89 0 1 1-3.88-4 3.83 3.83 0 0 1 3.88 4zm-.58 8.82V176h-6.61v-30.87zM123.29 150.17c-2.61 0-4.52.87-4.52 3.08 0 5.68 16.41 2.61 16.35 13.8 0 6.32-5.62 9.17-11.83 9.17-4.52 0-9.34-1.51-12.41-4.3l2.38-4.75a16.78 16.78 0 0 0 10.32 3.83c2.84 0 5-1 5-3.31 0-6.32-16.24-2.78-16.19-13.92 0-6.26 5.46-8.93 11.37-8.93A19.5 19.5 0 0 1 134.6 148l-2.44 4.93a18.12 18.12 0 0 0-8.87-2.76zM150.55 150.17c-2.61 0-4.53.87-4.53 3.08 0 5.68 16.42 2.61 16.36 13.8 0 6.32-5.63 9.17-11.83 9.17-4.53 0-9.34-1.51-12.42-4.3l2.38-4.75a16.81 16.81 0 0 0 10.33 3.83c2.84 0 5-1 5-3.31 0-6.32-16.24-2.78-16.18-13.92 0-6.26 5.45-8.93 11.37-8.93a19.55 19.55 0 0 1 10.83 3.16l-2.44 4.93a18.18 18.18 0 0 0-8.87-2.76zM187.6 176v-3.77c-2.2 2.73-5.74 4.06-10.21 4.06-6.67 0-10.84-4.11-10.84-9.57 0-5.62 4.23-9.22 11.66-9.28h9.33v-.92c0-3.89-2.49-6.21-7.36-6.21a16.27 16.27 0 0 0-9.11 3.13l-2.72-4.64c4.29-2.55 7.42-3.88 13.28-3.88 7.94 0 12.41 4.06 12.47 10.84l.06 20.24zm-.06-10.84v-2.86h-8.35c-4.35 0-6.38 1.16-6.38 4.11 0 2.79 2.26 4.59 6 4.59 4.73 0 8.39-2.5 8.73-5.86zM220.43 144.9v6.38c-6.21-.35-10.15 3.3-10.68 8.58V176h-6.67v-30.87h6.67v6.15c2.09-4.18 5.8-6.38 10.68-6.38zM229.53 187.53a10.49 10.49 0 0 1-7.14-2.61l2.85-5.17a6.49 6.49 0 0 0 4 1.51c2 0 3.65-1.1 4.7-3.42l1-2.32-12.76-30.39h6.9l9.22 23.37 8.59-23.37h6.67l-14 35.09c-1.91 4.87-5.39 7.31-10.03 7.31z"/></g></g></svg>