<svg xmlns="http://www.w3.org/2000/svg" viewBox="0 0 422.49 109.76"><defs><style>.cls-1{fill:#525564;}.cls-2{fill:#928f9d;}.cls-3{fill:#c66;}</style></defs><g id="Layer_2" data-name="Layer 2"><g id="OL_Text" data-name="OL Text"><path class="cls-1" d="M197.89 37.55v6.15h-22.15v11h19.83v6.09h-19.83V72h22.85v6.15h-29.7v-40.6zM258.09 59v19.2h-6.67V60.81c0-4.7-2.78-7.54-7.31-7.54-5.28.17-8.47 4.23-8.47 9.63v15.25H229V60.81c0-4.7-2.72-7.54-7.25-7.54-5.33.17-8.58 4.23-8.58 9.63v15.25h-6.61V47.29h6.61v6c2.15-4.35 6.09-6.21 11.19-6.21 5.51 0 9.28 2.73 10.73 7.43 2-5.17 6.09-7.43 11.72-7.43 7.05-.02 11.28 4.51 11.28 11.92zM274.21 38.48a3.89 3.89 0 1 1-3.89-4 3.83 3.83 0 0 1 3.89 4zm-.58 8.81v30.86H267V47.29zM292.18 52.34c-2.61 0-4.52.87-4.52 3.07 0 5.69 16.41 2.61 16.35 13.81 0 6.32-5.62 9.16-11.83 9.16-4.52 0-9.34-1.51-12.41-4.29l2.38-4.76a16.8 16.8 0 0 0 10.32 3.83c2.84 0 5-1 5-3.31 0-6.32-16.24-2.78-16.18-13.91 0-6.27 5.45-8.94 11.36-8.94a19.43 19.43 0 0 1 10.79 3.14l-2.43 4.93a18.08 18.08 0 0 0-8.83-2.73zM319.44 52.34c-2.61 0-4.53.87-4.53 3.07 0 5.69 16.42 2.61 16.36 13.81 0 6.32-5.63 9.16-11.83 9.16-4.53 0-9.34-1.51-12.41-4.29l2.37-4.76a16.81 16.81 0 0 0 10.33 3.83c2.84 0 5-1 5-3.31 0-6.32-16.24-2.78-16.18-13.91C308.59 49.67 314 47 320 47a19.45 19.45 0 0 1 10.79 3.14l-2.44 4.93a18 18 0 0 0-8.91-2.73zM356.5 78.15v-3.77c-2.21 2.72-5.75 4.06-10.21 4.06-6.67 0-10.85-4.12-10.85-9.57 0-5.63 4.24-9.22 11.66-9.28h9.34v-.93c0-3.88-2.5-6.2-7.37-6.2a16.27 16.27 0 0 0-9.07 3.13L337.24 51c4.29-2.55 7.42-3.89 13.28-3.89 8 0 12.41 4.06 12.47 10.85l.06 20.24zm-.06-10.85v-2.84h-8.36c-4.34 0-6.37 1.16-6.37 4.12 0 2.78 2.26 4.58 6 4.58 4.72 0 8.38-2.49 8.73-5.86zM389.32 47.06v6.38c-6.21-.35-10.15 3.31-10.67 8.58v16.13H372V47.29h6.67v6.15a11.22 11.22 0 0 1 10.65-6.38zM398.42 89.69a10.42 10.42 0 0 1-7.13-2.61l2.84-5.16a6.55 6.55 0 0 0 4 1.51c2 0 3.65-1.11 4.7-3.43l1-2.31-12.76-30.4H398l9.23 23.38 8.58-23.38h6.67l-14 35.09c-1.94 4.87-5.42 7.31-10.06 7.31zM46.48 84.14H7V45.76a19.92 19.92 0 0 1 12.15-18.23 27.7 27.7 0 0 1 1.24-7.77A27 27 0 0 0 0 45.76v45.38h46.93a23.72 23.72 0 0 1-.36-3.41z"/><path class="cls-2" d="M119.37 50.42A28.11 28.11 0 0 1 117 57c6 2 9.84 7.74 9.84 14.85v30.91H69.15a15.52 15.52 0 0 1-15.59-15.21l-.08-3.41h-7l.09 3.59a23.72 23.72 0 0 0 .36 3.41 22.45 22.45 0 0 0 22.22 18.62h64.67V71.85c0-10.17-5.71-18.46-14.45-21.43z"/><path class="cls-3" d="M120.06 44.25V28A28.07 28.07 0 0 0 92 0H47.18a28.09 28.09 0 0 0-26.79 19.76 27.7 27.7 0 0 0-1.24 7.77v44.76H92a28.1 28.1 0 0 0 27.35-21.87 28.53 28.53 0 0 0 .71-6.17zm-28 21H26.14V28a20.47 20.47 0 0 1 .43-4.24c0-.12.06-.24.09-.37A21.07 21.07 0 0 1 47.18 7H92a21.07 21.07 0 0 1 21 21v16.25a21.07 21.07 0 0 1-21 21.04z"/></g></g></svg>