<svg xmlns="http://www.w3.org/2000/svg" viewBox="0 0 165.46 140.23"><defs><style>.cls-1{fill:#525564;}.cls-2{fill:#97c0ce;}.cls-3{fill:#c66;}</style></defs><title>Asset 2</title><g id="Layer_2" data-name="Layer 2"><g id="FLAT_Icons" data-name="FLAT Icons"><circle class="cls-1" cx="103" cy="88.3" r="2.33"/><circle class="cls-1" cx="110.72" cy="88.3" r="2.33"/><circle class="cls-1" cx="118.44" cy="88.3" r="2.33"/><path class="cls-2" d="M126.82,97.74H103.5a9.23,9.23,0,0,1-9.22-9.22v-5.1a9.23,9.23,0,0,1,9.22-9.22h14.1a9.23,9.23,0,0,1,9.22,9.22ZM103.5,77.2a6.23,6.23,0,0,0-6.22,6.22v5.1a6.23,6.23,0,0,0,6.22,6.22h20.32V83.42a6.23,6.23,0,0,0-6.22-6.22Z"/><path class="cls-1" d="M47.42,83.76a27,27,0,1,1,27-27A27.06,27.06,0,0,1,47.42,83.76Zm0-48.06a21,21,0,1,0,21,21A21.05,21.05,0,0,0,47.42,35.7Z"/><path class="cls-1" d="M48.57,140.23C17.51,140.23,1.42,113.12.75,112L0,110.67l.59-1.38c.39-.91,9.74-22.35,28.14-22.38h.11a41.81,41.81,0,0,1,13.47,2A20.3,20.3,0,0,0,48.67,90a18.74,18.74,0,0,0,6.48-1.24,32,32,0,0,1,11.16-1.89c8.42,0,16,3.95,21.9,11.42a42.14,42.14,0,0,1,6.32,11.16l.41,1.2-.57,1.13C93.8,113,79.75,140.23,48.57,140.23Zm-41.79-30c3.5,5.16,17.9,24,41.79,24,24.34,0,36.93-19,39.82-24-1.77-4.08-8.57-17.36-22.08-17.36A26.15,26.15,0,0,0,57,94.5,24.51,24.51,0,0,1,48.67,96a26.07,26.07,0,0,1-8.06-1.39,35.69,35.69,0,0,0-11.76-1.74h-.11C16.61,92.93,9,105.91,6.78,110.25Z"/><path class="cls-1" d="M144.16,84.94a12.18,12.18,0,1,0,12.18,12.18A12.19,12.19,0,0,0,144.16,84.94Z"/><path class="cls-1" d="M165.26,120.51c-.14-.41-3.61-10.15-12.7-10.15a14.37,14.37,0,0,0-5,.85,8.19,8.19,0,0,1-2.83.54,8.88,8.88,0,0,1-2.78-.5,18.76,18.76,0,0,0-6-.89h0c-8.29,0-12.49,9.64-12.66,10.05l-.29.69.38.65c.3.52,7.5,12.64,21.4,12.64s20.25-12.2,20.51-12.72l.28-.57Z"/><path class="cls-3" d="M134.25,53.06h-53V20.69A20.71,20.71,0,0,1,101.94,0h32.32a20.71,20.71,0,0,1,20.69,20.69V32.37A20.71,20.71,0,0,1,134.25,53.06Zm-47-6h47a14.7,14.7,0,0,0,14.69-14.69V20.69A14.7,14.7,0,0,0,134.25,6H101.94A14.7,14.7,0,0,0,87.25,20.69Z"/><rect class="cls-1" x="95.78" y="18.53" width="40.98" height="2"/><rect class="cls-1" x="95.78" y="26.47" width="40.98" height="2"/><rect class="cls-1" x="95.78" y="34.42" width="40.98" height="2"/></g></g></svg>