<svg xmlns="http://www.w3.org/2000/svg" viewBox="0 0 163.12 163.54"><defs><style>.cls-1{fill:none;}.cls-2{fill:#525564;}.cls-3{fill:#c66;}</style></defs><title>Asset 1</title><g id="Layer_2" data-name="Layer 2"><g id="FLAT_Icons" data-name="FLAT Icons"><path class="cls-1" d="M84.63,119.3c-1.2.12-2.41.17-3.62.17A37.75,37.75,0,0,1,44.13,73.4l0-.17,0-.16a6.18,6.18,0,0,1,5.86-4.39,5.81,5.81,0,0,1,4.17,1.76L67.84,83.26a5.14,5.14,0,0,0,3.55,1.36A5.21,5.21,0,0,0,75.18,83l5.93-6.29A5.23,5.23,0,0,0,82.56,73,4.94,4.94,0,0,0,81,69.47l0,0,0,0L66.45,55.9a6.11,6.11,0,0,1-1.76-5.64,6,6,0,0,1,3.83-4.43A37.8,37.8,0,0,1,81.2,43.65a37.9,37.9,0,0,1,37.63,41,14.69,14.69,0,0,0,.54,5.23,38.74,38.74,0,1,0-30,29.77,14.58,14.58,0,0,0-3.35-.4C85.59,119.23,85.11,119.25,84.63,119.3Z"/><path class="cls-1" d="M81.49,126.45a44.75,44.75,0,1,1,42.22-29.91l24.09,22.73h.61l7-17.06L139.73,88.69V73.83l16-11.61L147.42,42.4l-19.08,2.66-9.83-9.49V14.46l-17.41-7L88.18,22.6H75.53L63,7.2,43.91,14.77v20.8L33.79,45.06l-19-1.4L7.24,62.23,22.41,74.46V89L7.53,102.22l7,17.06H36L43.91,129,42,147.51l21,8.68,11-15H89.76l11.34,14.53,19.76-8.13-.11-.88L96.53,123.85A44.66,44.66,0,0,1,81.49,126.45Z"/><path class="cls-2" d="M81.49,36.94a44.75,44.75,0,1,0,15,86.91l-1.12-1.06a13,13,0,0,0-6-3.16,38.78,38.78,0,1,1,30-29.77,13.26,13.26,0,0,0,3.6,6l.74.7a44.76,44.76,0,0,0-42.22-59.6Z"/><polygon class="cls-2" points="145.73 85.94 145.73 76.89 159.26 67.09 163.12 64.29 161.28 59.91 152.96 40.08 151.17 35.82 146.6 36.46 130.41 38.71 124.51 33.02 124.51 14.46 124.51 10.4 120.75 8.89 103.34 1.91 99.34 0.31 96.54 3.58 85.42 16.61 78.39 16.61 67.64 3.41 64.86 0 60.77 1.62 41.7 9.19 37.91 10.7 37.91 14.77 37.91 32.97 31.61 38.88 15.27 37.67 10.92 37.35 9.27 41.39 1.69 59.96 0 64.09 3.48 66.9 16.41 77.33 16.41 86.31 3.54 97.73 0.35 100.56 1.98 104.51 9.02 121.56 10.55 125.28 14.57 125.28 33.15 125.28 37.69 130.87 36.04 146.9 35.58 151.35 39.71 153.06 60.7 161.74 65.05 163.54 67.83 159.73 77 147.19 86.84 147.19 96.38 159.41 99.18 163 103.39 161.26 123.14 153.13 126.22 151.87 120.75 146.71 120.86 147.58 101.11 155.72 89.77 141.19 73.95 141.19 62.99 156.19 42.01 147.51 43.91 129.01 36.01 119.28 14.57 119.28 7.53 102.22 22.41 89.01 22.41 74.47 7.24 62.23 14.83 43.66 33.79 45.06 43.91 35.57 43.91 14.77 62.99 7.2 75.53 22.61 88.18 22.61 101.11 7.48 118.51 14.46 118.51 35.57 128.34 45.06 147.42 42.4 155.74 62.23 139.73 73.83 139.73 88.69 155.46 102.22 148.42 119.28 147.81 119.28 152.92 124.1 153.97 121.56 161.01 104.51 162.66 100.5 159.37 97.67 145.73 85.94"/><path class="cls-3" d="M106.43,102.34a4.13,4.13,0,0,1,2.84,1.11L144.48,137l7-7.42L119.54,99.48a18.76,18.76,0,0,1-5.7-15.24A32.79,32.79,0,0,0,70.2,50.54a1.05,1.05,0,0,0-.32,1.72L84.33,65.78a10.11,10.11,0,0,1,.42,14.42l-5.93,6.29a10.33,10.33,0,0,1-14.42.42L50.7,74a.8.8,0,0,0-.63-.29,1.17,1.17,0,0,0-1.07.83,32.75,32.75,0,0,0,32,40c1,0,2.1-.05,3.14-.15q1-.09,1.92-.09a18.57,18.57,0,0,1,12.77,4.92l33.06,31.2,7-7.42-35.33-33.45a4.21,4.21,0,0,1-.17-5.86A4.15,4.15,0,0,1,106.43,102.34ZM98.61,65.88a2.5,2.5,0,0,1,3.83-3.22,29.43,29.43,0,0,1,6,26,2.5,2.5,0,0,1-2.43,1.9,2.54,2.54,0,0,1-.6-.07,2.5,2.5,0,0,1-1.83-3,24.43,24.43,0,0,0-5-21.54Z"/></g></g></svg>