<svg xmlns="http://www.w3.org/2000/svg" width="85" height="27" viewBox="0 0 85 27"><path fill="#c25b56" d="M52.85 20.68c-4.95 3.64-12.12 5.58-18.3 5.58a33.16 33.16 0 0 1-22.35-8.5c-.46-.42-.05-.99.51-.66a44.56 44.56 0 0 0 39.42 2.43c.83-.35 1.53.55.72 1.15"/><path fill="#c25b56" d="M55.19 18.23c-.64-.81-4.19-.39-5.78-.2-.48.06-.56-.36-.12-.66 2.83-1.99 7.47-1.41 8.01-.75.54.67-.14 5.31-2.8 7.52-.41.34-.79.16-.61-.29.59-1.49 1.93-4.81 1.3-5.62M49.49 3.42V1.49a.5.5 0 0 1 .49-.49h8.67c.27 0 .5.2.5.49v1.65c-.01.28-.24.64-.66 1.21l-4.48 6.39a9.63 9.63 0 0 1 4.94 1.06c.34.19.43.47.46.75v2.05c0 .29-.31.62-.64.44a10.01 10.01 0 0 0-9.15.02c-.3.16-.62-.16-.62-.45v-1.95c0-.31.01-.85.32-1.32l5.2-7.44h-4.53a.5.5 0 0 1-.5-.48M18.11 14.7h-2.64a.5.5 0 0 1-.47-.45V.77a.5.5 0 0 1 .51-.49h2.45c.26.02.47.21.48.46V2.5h.05C19.13.79 20.34 0 21.96 0c1.65 0 2.68.79 3.42 2.5A3.73 3.73 0 0 1 29.02 0c1.11 0 2.31.45 3.05 1.48.84 1.13.67 2.78.67 4.22l-.01 8.51a.5.5 0 0 1-.5.49h-2.64a.5.5 0 0 1-.47-.49V7.07c0-.57.05-1.99-.07-2.53-.2-.91-.79-1.16-1.55-1.16-.64 0-1.31.42-1.58 1.1-.27.68-.24 1.82-.24 2.59v7.14a.5.5 0 0 1-.51.49h-2.63a.5.5 0 0 1-.48-.49V7.07c0-1.51.25-3.72-1.62-3.72-1.9 0-1.82 2.15-1.82 3.72v7.14a.5.5 0 0 1-.51.49M63.89 7.04c0 1.64-.03 5.16 2.04 5.16 2.04 0 2.14-2.84 2.14-4.57 0-1.13-.05-2.49-.39-3.57-.3-.94-.89-1.31-1.73-1.31-1.94 0-2.06 2.64-2.06 4.29zm8.07.56c0 4.12-2.34 7.38-6.03 7.38-3.84 0-5.93-3.35-5.93-7.52C60 3.26 62.12 0 65.93 0c3.91 0 6.03 3.35 6.03 7.6zM77.1 14.7h-2.62a.5.5 0 0 1-.48-.49V.72c.02-.24.24-.44.51-.44h2.44c.23.02.42.17.47.38v2.06h.05C78.21.88 79.24 0 81.06 0c1.18 0 2.34.43 3.08 1.59.68 1.08.68 2.89.68 4.2v8.48a.5.5 0 0 1-.5.43h-2.64a.5.5 0 0 1-.47-.43V6.95c0-1.47.17-3.63-1.65-3.63-.64 0-1.23.43-1.53 1.08a6.08 6.08 0 0 0-.41 2.55v7.26a.52.52 0 0 1-.52.49M45.42 14.79a.54.54 0 0 1-.62.07c-.87-.73-1.03-1.06-1.51-1.75-1.45 1.46-2.47 1.91-4.35 1.91-2.21 0-3.94-1.37-3.94-4.1a4.46 4.46 0 0 1 2.81-4.29c1.43-.63 3.43-.74 4.96-.91v-.35c0-.62.05-1.36-.32-1.9-.33-.48-.94-.68-1.48-.68-1.01 0-1.9.51-2.12 1.57-.05.24-.22.48-.46.49l-2.55-.28c-.22-.05-.46-.22-.4-.55C36.03.93 38.83 0 41.34 0c1.28 0 2.95.34 3.97 1.31 1.28 1.19 1.15 2.79 1.15 4.52v4.09c0 1.23.52 1.77 1 2.44.17.24.21.52-.01.7-.54.45-1.49 1.27-2.02 1.74zm-2.65-6.97c-1.91 0-3.92.41-3.92 2.64 0 1.14.59 1.91 1.6 1.91.74 0 1.4-.45 1.82-1.19.52-.91.5-1.77.5-2.79zM10.42 14.79a.54.54 0 0 1-.62.07c-.88-.73-1.03-1.06-1.51-1.75-1.45 1.46-2.47 1.91-4.35 1.91-2.21 0-3.94-1.37-3.94-4.1a4.46 4.46 0 0 1 2.81-4.29c1.43-.63 3.43-.74 4.96-.91v-.35c0-.62.04-1.36-.32-1.9-.33-.48-.94-.68-1.48-.68-1.01 0-1.9.51-2.12 1.57-.05.24-.22.48-.46.49L.84 4.57c-.22-.05-.46-.22-.4-.55C1.03.93 3.83 0 6.34 0c1.28 0 2.95.34 3.97 1.31 1.28 1.19 1.15 2.79 1.15 4.52v4.09c0 1.23.52 1.77 1 2.44.17.24.2.52-.01.7a84 84 0 0 0-2.02 1.74zM7.77 7.82c-1.91 0-3.92.41-3.92 2.64 0 1.14.59 1.91 1.6 1.91.74 0 1.4-.45 1.82-1.19.52-.91.5-1.77.5-2.79z"/></svg>