<svg xmlns="http://www.w3.org/2000/svg" width="118" height="30" viewBox="0 0 118 30"><path fill="#c25b56" d="M0 4v21.13h13.2v-4.27H4.63V4zM20.16 6.58a2.58 2.58 0 1 1-5.16 0 2.58 2.58 0 0 1 5.16 0zm-4.81 18.85h4.45V11.12h-4.45zM38 4h4.45v12.62l5.03-5.82h5.45l-5.83 6.62 5.71 7.71h-5.59l-4.72-7.08h-.05v7.08H38zM22 11.36h4.27v1.95h.06A4.67 4.67 0 0 1 30.54 11c4.51 0 5.34 2.97 5.34 6.82v7.85h-4.45v-6.96c0-1.66-.03-3.79-2.32-3.79-2.31 0-2.66 1.8-2.66 3.67v7.08H22z"/><path fill="#c25b56" d="M66.09 23.28a7.84 7.84 0 0 1-6.08 2.84c-4.45 0-8.01-2.96-8.01-7.56 0-4.59 3.56-7.56 8.01-7.56 4.15 0 6.76 2.97 6.76 7.56v1.39H56.45a3.31 3.31 0 0 0 3.35 2.79c1.45 0 2.43-.74 3.17-1.75zm-3.77-6.35a2.67 2.67 0 0 0-2.73-2.73c-1.96 0-3.02 1.34-3.14 2.73zM83.66 25.12h-4.09v-1.9h-.06a5.6 5.6 0 0 1-4.42 2.25c-4.27 0-7.09-3.08-7.09-7.44 0-4 2.49-7.68 6.58-7.68 1.84 0 3.56.51 4.57 1.9h.06V4h4.45zm-11.21-7.21c0 2.17 1.33 3.65 3.56 3.65 2.22 0 3.56-1.48 3.56-3.65 0-2.16-1.34-3.64-3.56-3.64-2.23 0-3.56 1.48-3.56 3.64zM115.78 0H90.21C88.99 0 88 .97 88 2.16v25.68c0 1.19.99 2.16 2.21 2.16h25.57a2.2 2.2 0 0 0 2.22-2.16V2.16C118 .97 117 0 115.78 0"/><path fill="#fff" d="M97.16 6.58a2.57 2.57 0 0 1-2.58 2.58 2.58 2.58 0 1 1 2.58-2.58zm-4.81 18.85h4.46V11.12h-4.46zM100 11.36h4.27v1.95h.06a4.67 4.67 0 0 1 4.21-2.31c4.5 0 5.33 2.96 5.33 6.82v7.85h-4.44v-6.96c0-1.66-.03-3.8-2.32-3.8-2.31 0-2.67 1.81-2.67 3.68v7.08H100z"/></svg>