<svg xmlns="http://www.w3.org/2000/svg" width="127.5" height="34" viewBox="0 0 127.5 34"><path fill="#fff" d="M59.91 8.5c.19 0 .34.07.43.2.09.13.14.35.14.66v.5c0 .31-.05.53-.14.66-.09.13-.24.2-.43.2h-5.65v3.5h5.05c.2 0 .34.07.44.2.09.13.13.35.13.66v.5c0 .31-.04.53-.13.66-.1.13-.24.2-.44.2h-5.05v3.84h5.67c.2 0 .34.07.43.2.09.13.14.35.14.66v.5c0 .31-.05.53-.14.66-.09.13-.23.2-.43.2h-7.64c-.27 0-.47-.06-.6-.17-.13-.11-.19-.3-.19-.55V9.22c0-.25.06-.44.19-.55.13-.11.33-.17.6-.17h7.62M73.38 11.5c2.08 0 3.12 1.12 3.12 3.35v7.07c0 .39-.37.58-1.1.58H75c-.73 0-1.1-.19-1.1-.58V15.2c0-1.03-.5-1.55-1.5-1.55-.46 0-.85.13-1.17.4-.33.27-.6.57-.8.9v6.97c0 .39-.37.58-1.11.58h-.39c-.74 0-1.11-.19-1.11-.58V15.2c0-1.03-.49-1.55-1.49-1.55-.47 0-.89.15-1.24.43-.35.29-.6.58-.74.85v6.99c0 .39-.37.58-1.1.58h-.4c-.73 0-1.1-.19-1.1-.58V15.1c0-.93-.04-1.6-.13-2.02a6.42 6.42 0 0 1-.12-.77c0-.2.23-.34.69-.45.45-.1.86-.15 1.2-.15.23 0 .38.09.48.29a4.86 4.86 0 0 1 .31 1.05c.36-.44.82-.81 1.37-1.11a3.67 3.67 0 0 1 1.75-.44c1.46 0 2.4.54 2.83 1.61a4.8 4.8 0 0 1 1.43-1.14 3.77 3.77 0 0 1 1.82-.47M80.26 7.5c.83 0 1.24.19 1.24.56v1.45c0 .18-.1.32-.29.41-.2.1-.51.14-.95.14h-.52c-.44 0-.75-.04-.95-.14-.19-.09-.29-.23-.29-.41V8.06c0-.37.41-.56 1.24-.56zm-.03 4.53h-.46c-.82 0-1.22.19-1.22.56v9.35c0 .37.4.56 1.22.56h.46c.82 0 1.22-.19 1.22-.56v-9.35c0-.37-.4-.56-1.22-.56zM87.25 11.5c.69 0 1.33.1 1.93.3.6.19.9.46.9.78 0 .23-.09.53-.26.89-.18.36-.35.54-.51.54-.04 0-.22-.08-.56-.23a2.67 2.67 0 0 0-1.18-.24c-.4 0-.72.08-.96.24a.76.76 0 0 0-.35.68c0 .28.08.52.24.71.17.19.36.34.59.45.22.11.61.28 1.15.51.78.3 1.35.67 1.71 1.11.37.45.55 1.08.55 1.89 0 1-.34 1.81-1.02 2.43-.68.63-1.59.94-2.73.94-.53 0-1.04-.06-1.54-.18a3.93 3.93 0 0 1-1.23-.5c-.32-.21-.48-.44-.48-.67 0-.21.11-.5.34-.84.22-.35.42-.52.59-.52.05 0 .2.06.44.19s.49.24.76.33c.27.08.58.13.92.13.97 0 1.45-.38 1.45-1.14a1 1 0 0 0-.42-.86 5.69 5.69 0 0 0-1.38-.67c-.8-.26-1.4-.62-1.83-1.09-.42-.46-.63-1.12-.63-1.98 0-.98.32-1.75.96-2.33a3.65 3.65 0 0 1 2.55-.87M95.25 11.5c.69 0 1.33.1 1.93.3.6.19.9.46.9.78 0 .23-.09.53-.26.89-.18.36-.35.54-.51.54-.04 0-.22-.08-.56-.23a2.67 2.67 0 0 0-1.18-.24c-.4 0-.72.08-.96.24a.76.76 0 0 0-.35.68c0 .28.08.52.24.71.17.19.36.34.59.45.22.11.61.28 1.15.51.78.3 1.35.67 1.71 1.11.37.45.55 1.08.55 1.89 0 1-.34 1.81-1.02 2.43-.68.63-1.59.94-2.73.94-.53 0-1.04-.06-1.54-.18a3.93 3.93 0 0 1-1.23-.5c-.32-.21-.48-.44-.48-.67 0-.21.11-.5.34-.84.22-.35.42-.52.59-.52.05 0 .2.06.44.19s.49.24.76.33c.27.08.58.13.92.13.97 0 1.45-.38 1.45-1.14a1 1 0 0 0-.42-.86 5.69 5.69 0 0 0-1.38-.67c-.8-.26-1.4-.62-1.83-1.09-.42-.46-.63-1.12-.63-1.98 0-.98.32-1.75.96-2.33a3.65 3.65 0 0 1 2.55-.87M104.98 11.5c1.45 0 2.52.29 3.22.88.7.59 1.05 1.41 1.05 2.46v4.12a11.92 11.92 0 0 0 .25 2.82c0 .19-.23.34-.67.44-.45.11-.85.16-1.19.16a.48.48 0 0 1-.47-.3c-.1-.2-.17-.41-.22-.65l-.09-.47c-.31.39-.73.74-1.25 1.06-.51.32-1.16.48-1.92.48-1.04 0-1.83-.27-2.37-.81a2.93 2.93 0 0 1-.82-2.2c0-2.51 2.07-3.78 6.2-3.79v-.78c0-.91-.62-1.37-1.84-1.37-.51 0-.95.06-1.34.17-.39.12-.73.24-1.01.37-.27.13-.43.2-.48.2-.17 0-.37-.19-.6-.57a1.98 1.98 0 0 1-.34-.85c0-.22.18-.43.52-.64.35-.21.83-.39 1.43-.53a9.1 9.1 0 0 1 1.94-.2zm-.94 6.4c-.64.25-.96.7-.96 1.34 0 .37.11.66.32.87.22.22.54.32.97.32.47 0 .91-.12 1.32-.37.4-.24.74-.56 1.01-.96v-1.6a7.96 7.96 0 0 0-2.66.4zM116.35 11.5c.41 0 .7.1.88.3a1 1 0 0 1 .27.69c0 .26-.05.58-.16.95-.11.38-.24.56-.38.56-.07 0-.2-.03-.41-.09-.2-.06-.4-.09-.6-.09-.39 0-.73.12-1.02.37-.29.25-.51.49-.67.74v6.99c0 .39-.36.58-1.07.58h-.38c-.71 0-1.07-.19-1.07-.58V15.1a11.99 11.99 0 0 0-.24-2.79c0-.2.22-.34.66-.45.45-.1.84-.15 1.17-.15.22 0 .37.09.47.29.09.19.16.39.21.61l.09.44c.29-.48.62-.86.98-1.14a2.1 2.1 0 0 1 1.27-.41M126.46 11.5c.69 0 1.04.14 1.04.41 0 .08-.02.2-.06.35l-4.7 13.81c-.11.29-.45.43-1.02.43h-.34c-.32 0-.57-.03-.73-.1-.17-.07-.25-.17-.25-.29 0-.09.03-.22.1-.37l1.37-3.69-3.29-9.81a1.1 1.1 0 0 1-.08-.33c0-.27.35-.41 1.06-.41h.47c.56 0 .89.13.98.39l1.45 4.43c.16.49.35 1.27.59 2.33h.06l.19-.84c.19-.76.32-1.26.4-1.49l1.45-4.43c.09-.26.42-.39.98-.39h.33"/><path fill="none" stroke="#fff" stroke-linecap="round" stroke-linejoin="round" stroke-miterlimit="50" stroke-width="3" d="M7.2 7.5a7.03 7.03 0 0 0-5.7 6.84v12.57h14.32a5.81 5.81 0 0 0 5.87 5.59H40.5V22.17a5.8 5.8 0 0 0-4.68-5.62"/><path fill="none" stroke="#fff" stroke-linejoin="round" stroke-miterlimit="50" stroke-width="3" d="M28.99 1.5h.22l.03.01h.16l.03.01H29.55l.02.01h.1l.02.01h.07l.03.01h.07l.02.01h.05l.02.01H30l.02.01h.05l.02.01h.05l.02.01h.03l.02.01h.05l.02.01h.03l.02.01h.04l.03.01h.02l.02.01h.02l.03.01h.02l.02.01h.03l.02.01h.02l.03.01h.02l.02.01h.02l.03.01h.02l.02.01.03.01h.02l.02.01h.03l.02.01h.02l.02.01.03.01h.02l.02.01h.02l.02.01.03.01h.02l.02.01.02.01h.03l.02.01.02.01h.02l.03.01.02.01.02.01h.02l.02.01.03.01h.02l.02.01.02.01.02.01h.02l.03.01.02.01.02.01.02.01h.02l.02.01.03.01.02.01.02.01h.02l.02.01.03.01.02.01.02.01.02.01h.02l.02.01.02.01.03.01.02.01.02.01.02.01.02.01.02.01.02.01h.02l.02.01.03.01.02.01.02.01.02.01.02.01.02.01.02.01.02.01.02.01.02.01.02.01.02.01.02.01.02.01.02.01.02.01.02.01.02.01.03.01.02.01.02.01.02.01.02.01.02.01.02.02.02.01.02.01.02.01.02.01.02.01.02.01.02.01.02.01.02.02.02.01.01.01.03.01.02.01.02.01.01.01.02.02.02.01.02.01.02.01.02.01.02.02.02.01.02.01.02.01.02.01.02.02.01.01.02.01.02.01.02.02.02.01.02.01.02.01.02.02.01.01.03.01.01.01.02.02.02.01.02.01.02.02.02.01.01.01.02.02.02.01.02.01.02.02.02.01.01.01.02.02.02.01.02.01.02.02.01.01.02.02.02.01.02.01.01.02.02.01.02.02.02.01.01.01.02.02.02.01.02.02.01.01.02.01.02.02.02.01.02.02.01.01.02.02.02.01.01.02.02.01.02.02.01.01.02.02.02.01.02.02.01.01.02.02.01.01.02.02.02.01.01.02.02.01.02.02.01.02.02.01.02.02.01.01.02.02.01.01.02.02.02.01.01.02.02.02.02.01.01.02.02.02.01.01.02.02.01.01.02.02.02.02.01.01.02.02.01.02.02.01.01.02.02.02.01.01.02.02.01.02.02.01.01.02.02.02.01.01.02.02.01.02.02.01.01.02.02.02.01.02.01.01.02.02.01.02.03.03.02.02.01.02.02.01.01.02.01.02.02.02.01.02.02.01.01.02.01.02.02.02.01.01.01.02.02.02.01.02.02.02.01.01.01.02.02.02.01.02.01.02.02.02.01.01.01.02.01.02.02.02.01.02.01.02.02.02.01.01.01.02.01.02.02.02.01.02.01.02.01.02.02.02.01.01.01.02.01.02.02.02.01.02.01.02.01.02.01.02.02.02.01.02.01.02.01.02.01.02.01.01.01.02.02.02.01.02.01.02.01.02.01.02.01.02.01.02.02.02.01.02.01.02.01.02.01.02.01.02.01.02.01.02.01.02.01.02.01.02.01.02.01.02.01.02.01.02.01.02.01.02.01.02.01.03.02.04.01.02.01.02.01.02.01.02.01.02.01.02.01.02.01.02.01.02.01.02.01.02.01.03.01.02.01.02.01.04.01.02.01.02.01.02.01.02.01.02.01.03v.02l.01.02.01.02.01.02.01.02.01.02v.03l.02.04.01.02v.02l.01.02.01.03.01.02v.02l.01.02.01.02.01.02v.03l.01.02.01.02.01.02v.02l.01.03.01.02v.02l.01.02.01.02v.03l.01.02.01.02v.02l.01.03.01.02v.02l.01.02v.02l.01.03.01.02v.02l.01.03v.02l.01.02v.02l.01.03.01.02v.02l.01.02v.03l.01.02v.02l.01.02v.03l.01.02v.02l.01.03v.02l.01.02v.05l.01.02v.02l.01.03v.02l.01.02v.05l.01.02v.02l.01.03v.05l.01.02v.04l.01.05V8l.01.02v.05l.01.02v.07l.01.02v.07l.01.03V8.37l.01.05V8.51l.01.03v.17l.01.02V14.27l-.01.02v.17l-.01.03v.11l-.01.03V14.72l-.01.03v.07l-.01.02v.07l-.01.03v.04l-.01.03v.04l-.01.03v.04l-.01.03v.04l-.01.03v.02l-.01.02v.05l-.01.02-.01.05v.02l-.01.02v.05l-.01.02v.03l-.01.02v.02l-.01.02v.03l-.01.02v.02l-.01.02v.03l-.01.02v.02l-.01.02-.01.03v.02l-.01.02v.03l-.01.02v.02l-.01.02-.01.03v.02l-.01.02v.02l-.01.02-.01.03v.02l-.01.02-.01.02v.03l-.01.02-.01.02v.02l-.01.02-.01.03v.02l-.01.02-.01.02-.01.02v.02l-.01.03-.01.02-.01.02v.02l-.01.02-.01.03-.01.02v.02l-.01.02-.01.02-.01.02v.02l-.01.03-.01.02-.01.02-.01.02-.01.02v.02l-.01.03-.01.02-.01.02-.01.02-.01.02-.01.02-.01.02v.02l-.01.02-.01.02-.01.03-.01.02-.01.02-.01.02-.01.02-.01.02-.01.02-.02.04-.01.02-.01.02-.01.02-.01.02-.01.03-.01.02-.01.02-.01.02-.01.02-.01.02-.01.02-.01.02-.01.02-.01.02-.01.02-.02.04-.01.02-.01.02-.01.02-.01.02-.01.02-.01.02-.02.02-.01.02-.01.02-.01.02-.01.02-.01.02-.01.02-.02.02-.01.02-.01.02-.01.01-.01.02-.01.02-.02.02-.01.02-.01.02-.01.02-.01.02-.01.02-.02.02-.01.02-.01.02-.01.01-.02.02-.01.02-.01.02-.01.02-.02.02-.01.02-.01.02-.01.01-.02.02-.01.02-.01.02-.02.02-.01.02-.01.02-.01.01-.02.02-.01.02-.02.02-.01.02-.01.02-.01.01-.02.02-.01.02-.02.02-.02.03-.02.02-.01.02-.01.02-.02.02-.01.01-.02.02-.01.02-.01.02-.02.01-.01.02-.02.02-.01.02-.02.01-.01.02-.02.02-.01.01-.01.02-.02.02-.01.02-.02.01-.01.02-.02.02-.01.01-.02.02-.01.02-.02.02-.01.01-.02.02-.01.01-.02.02-.01.02-.02.02-.01.01-.02.02-.02.01-.01.02-.02.02-.01.01-.02.02-.01.02-.02.01-.01.02-.02.01-.02.02-.01.02-.02.01-.02.02-.01.01-.02.02-.01.01-.02.02-.02.01-.01.02-.02.02-.02.01-.01.02-.02.01-.02.02-.01.01-.02.02-.01.01-.02.02-.02.01-.02.02-.01.01-.02.02-.02.01-.01.02-.02.01-.02.02-.01.01-.02.02-.02.01-.02.02-.02.01-.01.01-.02.02-.02.01-.02.02-.01.01-.02.02-.02.01-.01.01-.02.02-.02.01-.02.02-.02.01-.02.01-.01.02-.02.01-.02.01-.02.02-.02.01-.03.03-.02.01-.02.01-.02.02-.01.01-.02.01-.02.02-.02.01-.02.01-.02.02-.01.01-.02.01-.02.01-.02.02-.02.01-.02.01-.02.02-.02.01-.02.01-.02.01-.01.01-.02.02-.02.01-.02.01-.02.01-.02.02-.02.01-.02.01-.02.01-.02.01-.02.01-.02.02-.01.01-.03.01-.02.01-.01.01-.02.01-.02.01-.02.02-.02.01-.02.01-.02.01-.02.01-.02.01-.02.01-.02.01-.02.01-.02.02-.02.01-.02.01-.02.01-.02.01-.02.01-.03.01-.02.01-.02.01-.02.01-.02.01-.02.01-.02.01-.02.01-.02.01-.02.01-.02.01-.02.01-.02.01-.02.01-.02.01-.02.01-.02.01-.03.01-.02.01-.02.01-.02.01h-.02l-.02.01-.02.01-.02.01-.02.01-.02.01-.03.01-.02.01-.02.01h-.02l-.02.01-.02.01-.02.01-.03.01-.02.01-.02.01h-.02l-.02.01-.03.01-.02.01h-.02l-.02.01-.02.01-.02.01-.03.01h-.02l-.02.01-.02.01-.02.01h-.02l-.03.01-.02.01h-.02l-.02.01-.02.01-.03.01h-.02l-.02.01-.02.01h-.03l-.02.01-.02.01h-.02l-.03.01-.02.01h-.02l-.02.01h-.02l-.03.01-.02.01h-.02l-.02.01h-.03l-.02.01-.02.01h-.03l-.02.01h-.02l-.03.01h-.02l-.02.01h-.02l-.03.01h-.02l-.02.01h-.03l-.02.01h-.02l-.03.01h-.02l-.02.01h-.02l-.03.01h-.04l-.03.01h-.02l-.02.01h-.03l-.02.01h-.05l-.02.01h-.05l-.02.01h-.05l-.02.01h-.05l-.02.01h-.05l-.02.01h-.07l-.03.01h-.07l-.02.01h-.1l-.02.01H29.43l-.03.01h-.14l-.02.01H7.5V8.73l.01-.02v-.17l.01-.03V8.42l.01-.05V8.28l.01-.03v-.07l.01-.02v-.07l.03-.17v-.04l.01-.02.01-.1.01-.02v-.05l.01-.02.01-.07.01-.05v-.02l.01-.02v-.02l.01-.03v-.02l.01-.02v-.03l.01-.02.01-.04V7.3l.01-.02.02-.07v-.02l.01-.02v-.02l.01-.03V7.1l.01-.02.01-.03.01-.04v-.02l.01-.02.01-.03v-.02l.01-.02.01-.02v-.02l.02-.05v-.02l.01-.02.01-.03v-.02l.01-.02.01-.02.01-.05.01-.02.01-.02v-.02l.01-.02.01-.02.01-.03.01-.02v-.02l.01-.02.01-.02.01-.02v-.03l.01-.02.01-.02.01-.02.01-.02.01-.02.01-.05.01-.02.01-.02.01-.02.01-.02.01-.02.01-.02v-.02l.01-.02.01-.02.01-.03.03-.06.01-.02.01-.02.01-.02.01-.02.01-.02.01-.02.01-.02.01-.02.01-.02.01-.02.01-.03.02-.04.02-.04.01-.02.01-.02.01-.02.01-.02.01-.02.01-.02.01-.02.01-.02.01-.02.01-.02.01-.02.01-.02.01-.02.03-.04.02-.04.01-.02.01-.02.01-.02.01-.02.02-.01.01-.02.01-.02.01-.02.01-.02.01-.02.02-.02.01-.02.05-.08.01-.02.01-.02.01-.01.02-.02.01-.02.02-.04.03-.04.02-.03.02-.02.01-.02.01-.02.02-.02.01-.02.01-.02.03-.03.01-.02.03-.04.01-.02.01-.01.02-.02.01-.02.02-.02.01-.02.03-.03.01-.02.01-.02.02-.01.01-.02.03-.04.03-.03.01-.02.02-.02.01-.02.02-.01.01-.02.01-.02.02-.01.03-.04.01-.02.02-.01.01-.02.02-.02.03-.03.01-.02.03-.03.03-.03.02-.02.01-.02.03-.03.02-.02.03-.03.03-.03.03-.03.02-.02.03-.03.02-.02.04-.05.02-.01.03-.03.04-.03.01-.02.02-.02.03-.03.03-.03.02-.01.03-.03.02-.02.02-.01.02-.02.03-.03.02-.01.01-.02.02-.01.02-.02.01-.01.04-.03.02-.02.03-.02.04-.03.01-.02.04-.02.02-.02.03-.03.02-.01.02-.01.02-.02.01-.01.02-.02.04-.02.03-.03.06-.04.02-.01.03-.03.02-.01.04-.03.02-.01.02-.02.01-.01.04-.02.04-.03.02-.01.04-.03.02-.01.03-.02.04-.03.02-.01.04-.02.02-.02.04-.02.02-.01.02-.01.03-.03.02-.01.02-.01.02-.01.04-.02.02-.02.04-.02.02-.01.04-.02.02-.01.04-.02.02-.02.04-.02.02-.01.04-.02.02-.01.03-.01.03-.02.04-.02.03-.01.02-.01.04-.02.02-.01.04-.02.02-.01.02-.01.04-.02.05-.02.04-.01.04-.02.02-.01.02-.01.04-.02.03-.01.02-.01.04-.01.02-.01.04-.02.03-.01.08-.03.02-.01.05-.01.02-.01.04-.02.07-.02.04-.02h.02l.03-.01.04-.01.02-.01.05-.02.06-.02.05-.01.06-.02.05-.01.02-.01.05-.01.04-.01.05-.01.04-.01.03-.01.04-.01.05-.01.02-.01.05-.01.04-.01h.02l.05-.01.02-.01.07-.01.05-.01.07-.01.02-.01h.05l.02-.01h.03l.04-.01.05-.01h.05l.04-.01.05-.01h.02l.05-.01h.05l.05-.01h.07l.04-.01h.08l.04-.01h.1l.02-.01h.17l.05-.01h14.16z"/></svg>