<svg xmlns="http://www.w3.org/2000/svg" width="112" height="33" viewBox="0 0 112 33"><path fill="#c25b56" d="M0 33h23V1H0zM3.32 4.22h16.35v25.56H3.32zM37.53 14.19h-1.42c-1.85-2.57-3.7-5.13-5.53-8.03h-.02v8.03H29V3h1.42c1.85 2.56 3.69 5.1 5.51 7.98h.03V3h1.57zM42.94 3L39 14.19h1.69l.99-3.05h3.44l.89 3.05h2.19L44.57 3zm-.75 6.76c.45-1.47.91-2.83 1.32-4.56h.03c.45 1.73.86 3.09 1.29 4.56zM50 14.19V4.5h-3V3h7.94v1.5h-2.99v9.69zM55 14.19h1.94V3H55zM67.67 8.63c0-3.14-2.05-5.63-4.83-5.63C60.06 3 58 5.49 58 8.63c0 3.34 1.86 5.94 4.84 5.94 2.98 0 4.83-2.6 4.83-5.94zm-7.58 0c0-2.07.81-4.03 2.75-4.03s2.75 1.96 2.75 4.03c0 2.14-.72 4.35-2.75 4.35-2.04 0-2.75-2.21-2.75-4.35zM77.53 14.19h-1.42c-1.86-2.57-3.7-5.13-5.53-8.03h-.02v8.03H69V3h1.41a146 146 0 0 1 5.52 7.98h.03V3h1.57zM81.94 3L78 14.19h1.69l.99-3.05h3.44l.9 3.05h2.18L83.57 3zm-.75 6.76c.46-1.47.91-2.83 1.32-4.56h.03c.46 1.73.86 3.09 1.28 4.56zM88 3h1.94v9.69h3.86v1.5H88zM36.71 24.27v4.62c-1.05.4-2.14.69-3.24.69-3.35 0-5.47-2.56-5.47-5.86 0-3.05 2.12-5.72 5.53-5.72a5 5 0 0 1 2.77.86l-.64 1.33a4.26 4.26 0 0 0-2.08-.59c-2.08 0-3.5 1.62-3.5 4.16 0 2.65 1.63 4.22 3.31 4.22.52 0 .96-.06 1.37-.27v-3.44zM44.21 19.51h-3.26v3.06h3.2v1.51h-3.2v3.61h3.85v1.5H39V18h5.21zM54.67 23.63c0-3.13-2.05-5.63-4.83-5.63-2.79 0-4.84 2.5-4.84 5.63 0 3.34 1.85 5.95 4.84 5.95 2.97 0 4.83-2.61 4.83-5.95zm-7.59 0c0-2.06.82-4.03 2.76-4.03 1.93 0 2.74 1.97 2.74 4.03 0 2.14-.71 4.35-2.74 4.35-2.04 0-2.76-2.21-2.76-4.35zM63.71 24.27v4.62c-1.05.4-2.13.69-3.24.69-3.35 0-5.47-2.56-5.47-5.86 0-3.05 2.12-5.72 5.54-5.72a5 5 0 0 1 2.76.86l-.64 1.33a4.23 4.23 0 0 0-2.07-.59c-2.09 0-3.51 1.62-3.51 4.16 0 2.65 1.63 4.22 3.31 4.22.52 0 .96-.06 1.37-.27v-3.44zM72.9 29.19l-2.29-4.63a3.78 3.78 0 0 0 1.97-3.33c0-2.18-1.35-3.23-3.54-3.23H66v11.19h1.96v-4.22h.88l1.83 4.22zm-4.94-9.68h.86c1.15 0 1.8.65 1.8 1.8 0 1.5-.92 2.17-1.85 2.22l-.81.05zM76.94 18L73 29.19h1.69l1-3.05h3.43l.89 3.05h2.19L78.57 18zm-.75 6.76c.46-1.47.91-2.83 1.32-4.55h.03c.46 1.72.87 3.08 1.29 4.55zM84.95 23.58v-4.07h.88c1.14 0 1.79.65 1.79 1.8 0 1.5-.92 2.17-1.85 2.22-.2.02-.68.03-.82.05zM83 18v11.19h1.95v-4.22h.88a3.69 3.69 0 0 0 3.75-3.74c0-2.18-1.35-3.23-3.54-3.23zM97.94 29.19h-1.95v-5.38h-4.06v5.38H90V18h1.93v4.3h4.06v-4.27h1.95zM100 29.19h1.94V18H100zM110.5 20.22a4.22 4.22 0 0 0-2-.62c-1.99 0-3.43 1.62-3.43 4.16 0 2.65 1.59 4.22 3.48 4.22a3.7 3.7 0 0 0 1.95-.56l.54 1.39c-.59.4-1.63.77-2.57.77-3.35 0-5.47-2.56-5.47-5.86 0-3.05 2.1-5.72 5.5-5.72 1.01 0 1.95.42 2.62.86z"/></svg>