<svg xmlns="http://www.w3.org/2000/svg" width="110" height="24" viewBox="0 0 110 24"><path fill="#c25b56" d="M0 23.12h25.81V0H0z"/><path fill="#fff" d="M4.18 18.55c2.24-2.28 10.29-9.63 10.29-9.63-4.19.97-8.56 2.28-10.12 2.99L2 14.3c1.96-.42 2.6-.5 4.03-.71zm6.72-3.4a42.32 42.32 0 0 1 9.4-1.85c.32-.99.67-1.7.67-1.7l3.76-.37s-2.86-2.29-5.61-4.15c0 0-7.1 7.06-8.22 8.07zm-7.93 6.77c.8-.35 8.45-2.87 15.49-3.29.15-.58.92-2.55 1.06-3.08A48.23 48.23 0 0 0 3.9 19.31zM14.39 4a69.3 69.3 0 0 1 4.18 2.7c-2.93.07-8.65 1.33-11.03 2.11C9.49 7.36 13.13 4.58 14.39 4z"/><path fill="#c25b56" d="M47.85 23.17l1.07-3.34h-6.93l-1.75.01s.33-.59.77-1.33l7.83-13.55V2H36.52l-.92 3.4h6.34c1.24 0 1.7.03 1.7.03s-.31.73-.87 1.67L35 20.3v2.87zM53.43 7.86a2.44 2.44 0 0 0 2.46-2.43A2.4 2.4 0 0 0 53.49 3a2.43 2.43 0 1 0-.06 4.86M52 23.07h3.97L55.96 9l-3.95.88zM60.03 22.67L60 1.91 64.06 1l.03 21.67zM68.03 22.67L68 1.91 72.06 1l.03 21.67zM105.45 23l4.33-15h-4.09l-1.15 5.36a70.53 70.53 0 0 0-.84 4.9s-.44-2.52-1.12-5.31L101.37 8h-3.74l-1.42 5.04c-.71 2.55-1.09 5.22-1.09 5.22s-.48-2.93-.86-4.66L93.05 8H89l4.22 15h3.7l.77-3.07c.36-1.41 1.01-3.99 1.31-5.28a21 21 0 0 0 .35-1.93l.24 1.49c.18 1 .53 2.44.86 3.64l1.36 5.15zM88.71 15.73c0-2.43-.53-4.07-1.75-5.47A6.36 6.36 0 0 0 81.81 8C77.72 8 75 11.14 75 15.85c0 4.72 2.69 7.77 6.81 7.77 2.34 0 3.85-.79 5.01-2.08 1.3-1.47 1.89-3.23 1.89-5.81zm-4.32-.02c0 3.54-.74 5.07-2.46 5.07-.77 0-1.66-.42-2.01-1.24-.33-.76-.51-2.05-.51-3.78 0-1.49.15-2.54.42-3.34a2.13 2.13 0 0 1 2.04-1.52c.71 0 1.33.29 1.72.79.53.68.8 1.99.8 4.02z"/></svg>